<svg width="333" height="488" viewBox="0 0 333 488" fill="none" xmlns="http://www.w3.org/2000/svg">
<g filter="url(#filter0_d_3613_5809)">
<rect x="5.83496" width="321.33" height="413.266" rx="40" fill="#0693F1" fill-opacity="0.7"/>
</g>
<mask id="mask0_3613_5809" style="mask-type:alpha" maskUnits="userSpaceOnUse" x="5" y="0" width="323" height="414">
<rect x="5.83496" width="321.33" height="413.266" rx="17.8517" fill="#0693F1"/>
</mask>
<g mask="url(#mask0_3613_5809)">
<path fill-rule="evenodd" clip-rule="evenodd" d="M56.6489 349.47L61.0535 354.734C61.0535 354.734 58.555 354.923 56.1328 355.117C55.2882 355.181 54.4496 355.247 53.734 355.305C51.8279 355.459 46.655 354.434 43.5993 353.78C43.5876 353.775 43.5817 353.775 43.5759 353.775C42.1917 353.474 41.2475 353.251 41.2475 353.251C41.2475 353.251 39.6874 351.366 38.3854 349.752C38.1332 349.44 37.8927 349.14 37.6698 348.864C37.3473 348.457 37.0012 347.78 36.6611 346.98C35.5819 344.424 34.6025 340.555 34.7784 339.861C35.0013 338.948 44.4791 318.721 51.0185 307.245C51.6695 306.103 52.3147 305.037 52.954 304.037C57.9803 296.141 62.3731 292.578 62.3731 292.578C62.4083 292.878 62.4377 293.184 62.4611 293.502C63.0711 301.882 59.6577 317.026 56.8659 327.648C55.0536 334.567 53.5053 339.583 53.5053 339.583C53.5053 339.583 53.4936 339.572 53.4818 339.554C53.4466 339.513 53.3821 339.443 53.2941 339.336C53.2648 339.295 53.2238 339.254 53.1827 339.207C53.1065 339.125 53.0302 339.025 52.9305 338.918C52.8543 338.824 52.7722 338.73 52.6901 338.636L51.4643 343.281L56.6431 349.464L56.6489 349.47Z" fill="#00CCB2"/>
<path fill-rule="evenodd" clip-rule="evenodd" d="M58.5294 304.041L56.8649 327.649C55.0556 334.569 53.5031 339.58 53.5031 339.58C51.7906 337.444 49.8604 335.79 47.9707 334.511C50.166 327.454 55.4175 310.862 58.5294 304.041Z" fill="#00A48F"/>
<path fill-rule="evenodd" clip-rule="evenodd" d="M62.3731 292.574C62.3731 292.574 55.9961 296.682 51.0185 307.243C51.0168 307.247 51.015 307.251 51.0133 307.254C48.3148 311.991 45.1184 318.213 42.2768 323.954C40.4839 327.152 39.1091 329.505 38.6903 330.217C39.0293 329.665 39.99 328.1 41.2692 326C37.6945 333.294 34.898 339.369 34.7784 339.86C34.6025 340.554 35.5819 344.423 36.6611 346.979C36.8077 347.078 36.8957 347.131 36.8957 347.131C36.8957 347.131 35.6816 340.978 35.8341 339.766C35.9866 338.546 42.573 325.097 43.0246 324.338C43.2017 324.04 44.7852 320.861 46.645 317.106C49.5916 312.184 52.4109 307.374 53.2543 305.614C54.6935 302.598 58.1515 297.863 61.3438 294.603C61.352 294.596 61.352 294.587 61.352 294.587C61.7298 294.205 62.0998 293.838 62.4617 293.503C62.4377 293.185 62.4054 292.876 62.3731 292.574Z" fill="#00DABE"/>
<path fill-rule="evenodd" clip-rule="evenodd" d="M61.0534 354.733C61.0534 354.733 58.5549 354.921 56.1327 355.116C53.8219 354.821 50.8425 354.462 49.9099 354.427C48.8367 354.38 45.8514 354.044 43.5992 353.779C43.5875 353.773 43.5816 353.773 43.5758 353.773C42.1916 353.473 41.2474 353.249 41.2474 353.249C41.2474 353.249 39.6873 351.365 38.3853 349.751C38.8251 349.881 40.3266 350.305 41.6638 350.629C43.2532 351.006 44.9188 351.312 44.9188 351.312C44.9188 351.312 42.5729 349.487 42.1154 348.65C41.6638 347.82 41.2826 345.765 41.2826 345.765L46.9599 346.754C46.9599 346.754 44.3851 343.18 43.4761 342.421C42.5729 341.661 40.1506 340.448 40.1506 340.448L38.7841 339.995C38.7841 339.995 40.9072 339.765 41.74 340.065C42.5729 340.372 43.8573 340.754 43.8573 340.754L45.5992 335.508C45.5992 335.508 47.1123 341.661 49.0771 343.793C50.8601 345.712 55.7221 348.874 56.6429 349.463L56.6488 349.469L61.0534 354.733Z" fill="#00A48F"/>
<path fill-rule="evenodd" clip-rule="evenodd" d="M107.407 428.017L72.337 430.274L69.2333 430.47L45.3569 432.01L46.6595 408.988L46.7082 408.018L46.8126 406.209L62.5419 405.85L104.866 404.881L106.016 415.377L107.407 428.017Z" fill="#00CCB2"/>
<path fill-rule="evenodd" clip-rule="evenodd" d="M106.016 415.377C97.6281 415.198 72.3371 413.715 72.3371 413.715V430.274L69.2333 430.47L70.1254 416.241C68.9999 415.719 52.6589 410.789 46.6596 408.988C45.2931 408.572 44.4644 408.328 44.4644 408.328L46.7083 408.018L62.542 405.85L104.866 404.881L106.016 415.377Z" fill="#00A48F"/>
<path fill-rule="evenodd" clip-rule="evenodd" d="M115.61 289.894C115.61 289.894 114.387 299.804 112.883 312.403C111.13 327.153 108.991 345.595 107.977 356.14C107.543 360.712 107.27 367.256 107.101 374.606C106.86 385.315 106.852 397.734 106.924 408.238C99.4861 408.532 82.019 409.274 73.8808 409.926C65.3003 410.618 49.8279 408.956 44.4644 408.329C46.089 391.777 48.3165 371.762 49.3053 358.038C49.3698 357.093 49.4502 356.124 49.5387 355.138C49.595 354.567 49.6431 353.981 49.6994 353.394C50.1903 348.455 50.9059 343.084 51.7663 337.641C54.5809 319.664 58.8828 300.936 61.3438 294.604C61.352 294.596 61.352 294.588 61.352 294.588C61.7461 293.586 62.0916 292.893 62.3731 292.575C64.3836 290.318 70.5518 287.514 73.8808 286.113C73.889 286.105 73.8972 286.105 73.8972 286.105C75.208 285.55 76.0766 285.217 76.0766 285.217L103 283.113L115.61 289.894Z" fill="#00CCB2"/>
<path fill-rule="evenodd" clip-rule="evenodd" d="M62.4617 293.505C63.2177 292.804 63.9332 292.217 64.593 291.777C68.1795 289.39 73.5512 286.309 73.8808 286.113C70.5519 287.515 64.3837 290.319 62.3731 292.576C62.0922 292.894 61.7462 293.587 61.3521 294.589C61.7298 294.205 62.0998 293.839 62.4617 293.505Z" fill="#00DABE"/>
<path fill-rule="evenodd" clip-rule="evenodd" d="M94.5963 322.964L80.901 345.416L58.1267 351.239L61.0533 354.734C61.0533 354.734 56.5138 355.076 53.7338 355.305C52.857 355.376 51.2916 355.197 49.5585 354.92C49.5521 354.992 49.5456 355.067 49.5386 355.138C54.7654 357.036 66.0162 361.005 69.7393 361.348C69.7393 361.348 78.8746 364.184 85.0991 367.256C89.8357 369.603 101.705 373.075 107.101 374.606C107.27 367.256 107.543 360.712 107.977 356.14C108.991 345.595 111.13 327.153 112.883 312.402L94.5963 322.964Z" fill="#00A48F"/>
<path fill-rule="evenodd" clip-rule="evenodd" d="M90.2599 313.517L81.5615 312.598L82.3099 310.271L91.0083 311.19L90.2599 313.517Z" fill="white"/>
<path fill-rule="evenodd" clip-rule="evenodd" d="M52.9012 330.792C52.6783 332.064 52.4613 333.347 52.2502 334.625C52.0801 335.632 51.9217 336.639 51.7634 337.64C51.6637 338.282 51.564 338.924 51.4701 339.56C51.2766 340.808 51.1006 342.05 50.9247 343.281L47.9687 346.831C47.9687 346.831 46.1858 345.218 45.4468 343.906C45.218 343.499 44.9776 342.928 44.7664 342.333C44.2914 341.032 43.916 339.63 43.916 339.63C43.916 339.63 44.9893 333.536 45.6169 332.623C46.2385 331.711 50.215 330.969 50.7839 330.857C50.9012 330.833 51.083 330.815 51.2942 330.81C51.7868 330.78 52.4554 330.786 52.9012 330.792Z" fill="#58BAD3"/>
<path fill-rule="evenodd" clip-rule="evenodd" d="M52.2502 334.625C52.0801 335.632 51.9217 336.639 51.7634 337.64C51.6637 338.282 51.564 338.924 51.4701 339.56L49.5347 340.089C49.5347 339.801 50.4965 337.811 50.4965 337.811C50.4965 337.811 50.954 335.815 51.4056 335.415C51.6578 335.19 51.9628 334.884 52.2502 334.625Z" fill="#0099B8"/>
<path fill-rule="evenodd" clip-rule="evenodd" d="M51.2947 330.809C49.6876 331.374 46.9487 332.387 46.3563 332.905C45.5059 333.647 44.8197 336.95 44.7669 337.639C44.7141 338.287 44.7611 341.931 44.7669 342.332C44.2919 341.031 43.9165 339.629 43.9165 339.629C43.9165 339.629 44.9898 333.535 45.6173 332.622C46.239 331.709 50.2155 330.968 50.7844 330.856C50.9017 330.832 51.0835 330.814 51.2947 330.809Z" fill="#85E4E0"/>
<path fill-rule="evenodd" clip-rule="evenodd" d="M123.622 307.086C122.091 314.753 113.288 330.339 108.22 338.87L108.214 338.877C106.097 342.451 104.631 344.789 104.631 344.789C104.631 344.789 97.317 354.392 94.5375 356.783C91.7634 359.18 79.1654 362.595 77.3473 362.936C75.5291 363.278 67.4707 360.204 63.9517 358.379C60.4327 356.553 50.1044 351.313 48.8552 349.717C47.606 348.121 47.6294 346.125 47.6294 346.125C47.6294 346.125 47.6347 345.307 47.735 344.253C47.8699 342.863 48.1749 341.073 48.8728 340.278C50.1044 338.889 51.8815 338.635 51.8815 338.635C51.8815 338.635 54.9841 338.5 56.3448 339.036C57.7055 339.578 67.7522 342.31 69.8225 342.821C70.1392 342.899 70.5674 343.04 71.0659 343.205C73.6107 344.082 77.9743 345.913 78.444 346.114C78.4734 346.119 78.4851 346.125 78.4851 346.125C82.0569 344.377 82.3442 342.575 82.2856 341.833C82.4381 341.633 82.5906 341.432 82.7431 341.226C83.3765 340.902 84.3618 340.284 84.5026 339.578C84.5671 339.26 84.4967 339.012 84.3618 338.83C84.7073 338.258 85.007 337.687 85.2416 337.134C85.2416 337.134 85.2474 337.134 85.2474 337.128C85.2767 337.104 85.3055 337.075 85.3289 337.052C85.7454 336.639 87.1002 335.797 86.2621 334.79C86.1735 334.673 86.0386 334.59 85.8691 334.537C85.8691 334.537 85.8456 334.484 85.8163 334.372C85.7108 333.978 85.5407 332.853 86.2621 331.063C86.2621 331.063 89.8338 320.812 94.2496 311.673L94.256 311.661C96.2267 307.587 98.3668 303.724 100.432 301.098C102.778 298.107 105.376 295.834 107.763 294.144C108.766 293.431 109.733 292.825 110.625 292.307H110.636C113.657 290.563 115.839 289.893 115.839 289.893C115.839 289.893 116.69 290.434 117.839 291.47C119.399 292.872 121.516 295.192 122.795 298.319C123.804 300.762 124.302 303.706 123.622 307.086Z" fill="#00CCB2"/>
<path fill-rule="evenodd" clip-rule="evenodd" d="M78.2379 346.118C77.7511 345.995 67.8217 343.404 66.7894 343.257C65.7279 343.109 59.6752 340.978 57.7046 340.313C55.7398 339.647 53.5052 339.577 53.5052 339.577L55.8102 342.267C55.687 342.197 53.7516 341.043 53.2472 340.689C52.7311 340.324 50.5141 340.065 49.5405 340.689C48.5611 341.314 47.5054 344.252 47.5054 344.252C47.6403 342.862 47.9452 341.072 48.6432 340.277C49.8748 338.888 51.6519 338.634 51.6519 338.634C51.6519 338.634 54.7545 338.499 56.1152 339.035C57.4758 339.577 67.5226 342.309 69.5929 342.82C71.6046 343.321 77.8508 345.953 78.2379 346.118Z" fill="#00DABE"/>
<path fill-rule="evenodd" clip-rule="evenodd" d="M107.763 294.143C107.763 294.143 96.2266 308.539 93.2002 316.895C90.1739 325.25 86.5318 335.402 86.5318 335.402C86.5318 335.402 86.2268 335.002 85.8162 334.371C85.7107 333.977 85.5406 332.852 86.262 331.062C86.262 331.062 89.8337 320.81 94.2495 311.672L94.2559 311.66C96.2266 307.585 98.3667 303.723 100.432 301.097C102.778 298.105 105.376 295.833 107.763 294.143Z" fill="#00DABE"/>
<path fill-rule="evenodd" clip-rule="evenodd" d="M122.795 298.317L118.478 316.076L108.22 338.869L108.214 338.876C107.933 339.217 98.9354 350.134 94.8657 354.426C90.7309 358.789 81.998 360.268 78.4438 360.462C74.8896 360.656 69.8223 358.684 69.8223 358.684C69.8223 358.684 80.3382 357.164 84.8777 356.099C89.4172 355.032 97.7396 346.123 97.7396 346.123L113.974 312.532C113.974 312.532 118.455 297.24 117.839 291.469C119.399 292.871 121.516 295.19 122.795 298.317Z" fill="#00A48F"/>
<path fill-rule="evenodd" clip-rule="evenodd" d="M78.2554 346.126C78.2554 346.126 82.2999 345.279 84.0899 342.826C85.8798 340.371 86.0353 337.926 86.0353 337.926C86.0353 337.926 86.9619 336.265 86.2998 335.401C85.6376 334.537 80.121 337.926 80.121 337.926L78.2554 346.126Z" fill="#00A48F"/>
<path fill-rule="evenodd" clip-rule="evenodd" d="M85.1001 337.052C85.0766 337.075 85.0473 337.105 85.018 337.128C85.018 337.135 85.0121 337.135 85.0121 337.135C84.5136 337.576 83.2526 338.294 83.2526 338.294C83.2526 338.294 83.845 338.406 84.1323 338.83C84.2672 339.012 84.3376 339.26 84.2731 339.578C84.1323 340.284 83.147 340.902 82.5136 341.226C82.2086 341.385 81.9858 341.474 81.9858 341.474C81.9858 341.474 82.0385 341.603 82.0561 341.833C82.1148 342.575 81.8274 344.377 78.2556 346.125C78.2556 346.125 78.2439 346.119 78.2146 346.114C77.7864 345.931 74.1325 344.395 71.5578 343.458C71.3056 343.37 71.0652 343.281 70.8364 343.205C70.8599 343.175 70.8892 343.152 70.9185 343.123L71.1414 342.899C71.2176 342.822 71.2939 342.74 71.3819 342.658L71.5871 342.451C72.0153 342.027 72.5079 341.544 73.0417 341.033C73.2059 340.873 73.3701 340.715 73.5402 340.555C73.7748 340.337 74.0094 340.113 74.244 339.896C74.3554 339.79 74.4668 339.689 74.5783 339.583C74.719 339.46 74.8539 339.33 74.9947 339.207C75.2234 339.001 75.4522 338.794 75.675 338.594C75.8217 338.465 75.9683 338.341 76.1149 338.212C76.3026 338.053 76.4785 337.899 76.6545 337.758C76.6721 337.747 76.6897 337.729 76.7073 337.717C76.8187 337.623 76.9243 337.534 77.0357 337.453C77.6691 336.94 78.238 336.539 78.6662 336.322C79.4462 335.921 80.4667 335.497 81.5048 335.156C83.1353 334.602 84.8127 334.261 85.6396 334.537C85.8097 334.59 85.9446 334.673 86.0326 334.79C86.8713 335.797 85.5165 336.639 85.1001 337.052Z" fill="#58BAD3"/>
<path fill-rule="evenodd" clip-rule="evenodd" d="M81.5048 335.154C80.4198 335.684 79.1236 336.367 78.2556 337.003C76.8832 338.01 73.1766 341.79 71.5578 343.457C71.3056 343.368 71.0652 343.28 70.8364 343.204C70.8599 343.174 70.8892 343.151 70.9185 343.121L71.1414 342.897C71.2176 342.821 71.2939 342.738 71.3819 342.656L71.5871 342.45C72.0153 342.026 72.5079 341.543 73.0417 341.031C73.2059 340.872 73.3701 340.713 73.5402 340.554C73.7748 340.336 74.0094 340.112 74.244 339.894C74.3554 339.788 74.4668 339.688 74.5783 339.582C74.719 339.459 74.8539 339.329 74.9947 339.205C75.2234 338.999 75.4522 338.793 75.675 338.593C75.8217 338.463 75.9683 338.34 76.1149 338.21C76.2967 338.057 76.4785 337.904 76.6545 337.757C76.6721 337.745 76.6897 337.727 76.7073 337.716C76.8187 337.621 76.9243 337.533 77.0357 337.451C77.6691 336.938 78.238 336.538 78.6662 336.32C79.4462 335.92 80.4667 335.496 81.5048 335.154Z" fill="#85E4E0"/>
<path fill-rule="evenodd" clip-rule="evenodd" d="M98.899 282.169C88.9432 288.583 78.8748 287.743 78.8748 287.743C79.1968 286.276 79.3898 284.932 79.4859 283.717C79.8883 278.632 78.666 275.755 78.666 275.755L95.9959 272.602C95.9478 274.036 96.0598 275.299 96.261 276.399C96.9929 280.36 98.899 282.169 98.899 282.169Z" fill="#B57E65"/>
<path fill-rule="evenodd" clip-rule="evenodd" d="M96.261 276.399C93.6639 280.564 87.6242 287.988 79.4859 283.717C79.8883 278.632 78.666 275.755 78.666 275.755L95.9959 272.602C95.9478 274.036 96.0598 275.299 96.261 276.399Z" fill="#6F4C3C"/>
<path fill-rule="evenodd" clip-rule="evenodd" d="M103 283.116C103 283.116 79.6515 302.358 73.8921 311.661C73.8921 311.661 73.9742 292.213 76.0621 285.247C76.068 285.235 76.0739 285.23 76.0739 285.218L79.0474 284.376L79.153 283.622L79.4521 281.508C79.4521 281.508 79.4521 281.502 79.458 281.496L79.5459 280.855V280.837L79.5518 280.813C79.5518 280.813 82.3201 283.122 87.0472 282.48C88.5252 282.279 90.0091 281.75 91.358 281.12C91.4518 281.078 91.5457 281.037 91.6337 280.99C91.8096 280.908 91.9797 280.819 92.1498 280.731C92.2788 280.666 92.4078 280.601 92.531 280.531C92.6307 280.478 92.7245 280.425 92.8243 280.372C92.9709 280.289 93.1116 280.207 93.2524 280.124C93.3697 280.06 93.487 279.988 93.5984 279.924C93.6453 279.895 93.6923 279.871 93.7392 279.841C95.4635 278.8 96.6072 277.857 96.6072 277.857L98.9004 282.168L103 283.116Z" fill="white"/>
<path fill-rule="evenodd" clip-rule="evenodd" d="M93.739 279.84C90.6189 283.443 85.1703 286.582 79.1528 283.621L79.4519 281.506C79.4519 281.506 79.4519 281.5 79.4578 281.495C79.5165 281.288 79.5517 281.077 79.5458 280.853V280.835L79.5517 280.811C79.5517 280.811 82.3199 283.12 87.0471 282.478C88.5251 282.278 90.0089 281.748 91.3579 281.118C91.4517 281.077 91.5397 281.035 91.6335 280.988C91.8095 280.906 91.9795 280.817 92.1496 280.73C92.2787 280.664 92.4077 280.599 92.5309 280.529C92.6306 280.476 92.7303 280.423 92.8241 280.37C92.9707 280.288 93.1115 280.205 93.2522 280.122C93.3695 280.058 93.4868 279.994 93.5983 279.923C93.6452 279.893 93.6921 279.87 93.739 279.84Z" fill="#D0D0D0"/>
<path fill-rule="evenodd" clip-rule="evenodd" d="M103.386 252.142C103.185 248.568 102.28 244.898 100.091 242.02C97.702 238.879 94.1173 237.485 90.3397 236.949C85.7973 236.306 80.5188 236.816 76.706 239.624C74.8784 240.971 72.7635 242.53 71.7782 244.655C70.543 247.321 71.0621 250.796 71.258 253.619C71.2586 253.63 71.2638 253.638 71.265 253.649C71.258 254.295 71.2615 254.94 71.2574 255.577C71.2404 258.221 71.0046 260.857 71.2181 263.5C71.5782 267.955 73.3893 272.05 76.0772 275.564C78.3136 278.487 81.5575 281.376 85.4313 281.319C89.5344 281.258 93.4998 278.041 95.9707 274.973C98.7243 271.556 100.593 267.373 101.942 263.203C103.084 259.669 103.596 255.857 103.386 252.142Z" fill="#B57E65"/>
<path fill-rule="evenodd" clip-rule="evenodd" d="M87.4676 262.757C87.1169 262.524 86.7139 262.531 86.3333 262.645C86.3169 261.99 86.3092 261.34 86.2101 260.69C86.1955 260.593 86.0312 260.593 86.016 260.69C85.8993 261.445 85.8776 262.195 85.8999 262.96C85.9052 263.14 86.0805 263.222 86.2324 263.152C87.83 262.421 88.0846 264.904 87.2811 265.788C87.0048 266.092 86.6576 266.139 86.2688 266.166C86.0113 266.185 85.9656 266.528 86.209 266.617C87.1732 266.968 87.9491 265.986 88.1297 265.134C88.2975 264.342 88.1995 263.244 87.4676 262.757Z" fill="#3A180F"/>
<path fill-rule="evenodd" clip-rule="evenodd" d="M89.7314 271.077C89.6346 271.224 89.5385 271.371 89.4499 271.526C88.9918 273.18 86.9813 274.068 85.3485 273.995C83.25 273.905 81.5369 272.577 81.0946 270.474C81.0624 270.311 81.199 270.206 81.3199 270.23C82.0835 270.67 83.7239 271.452 85.8957 271.468C87.8177 271.485 89.0716 271.175 89.7396 270.939H89.7472C89.7713 270.98 89.7713 271.028 89.7314 271.077Z" fill="white"/>
<path fill-rule="evenodd" clip-rule="evenodd" d="M93.3968 255.886C93.3528 255.733 93.2026 255.603 93.0396 255.61C92.8912 255.617 92.7047 255.72 92.6818 255.886C92.6572 256.067 92.612 256.24 92.6044 256.423C92.598 256.592 92.5815 256.761 92.5669 256.93C92.5381 257.263 92.51 257.597 92.5147 257.931C92.5182 258.155 92.7059 258.368 92.9358 258.358C93.168 258.347 93.351 258.17 93.3569 257.931C93.3645 257.595 93.412 257.264 93.4466 256.93C93.463 256.768 93.4765 256.604 93.4836 256.44C93.4918 256.25 93.449 256.068 93.3968 255.886Z" fill="#3A180F"/>
<path fill-rule="evenodd" clip-rule="evenodd" d="M95.7374 251.614C95.4471 251.382 95.0536 251.255 94.7034 251.145C94.2853 251.014 93.8589 250.936 93.4219 250.91C92.6659 250.864 91.7891 250.941 91.205 251.481C91.08 251.598 91.2443 251.819 91.3879 251.722C91.985 251.321 92.7574 251.308 93.4413 251.421C93.8073 251.481 94.175 251.57 94.5286 251.682C94.8577 251.787 95.1521 251.955 95.4723 252.076C95.7198 252.169 95.9497 251.783 95.7374 251.614Z" fill="#3A180F"/>
<path fill-rule="evenodd" clip-rule="evenodd" d="M80.8555 254.764C80.9264 254.622 81.0971 254.521 81.2566 254.559C81.4015 254.593 81.5657 254.729 81.5587 254.896C81.5511 255.078 81.564 255.257 81.5382 255.439C81.5147 255.607 81.5 255.776 81.4836 255.945C81.4531 256.276 81.4203 256.611 81.3558 256.937C81.3124 257.156 81.0889 257.332 80.8654 257.279C80.6385 257.226 80.4907 257.019 80.5276 256.783C80.5804 256.451 80.5933 256.117 80.6191 255.782C80.632 255.619 80.6484 255.456 80.6713 255.293C80.6965 255.104 80.771 254.933 80.8555 254.764Z" fill="#3A180F"/>
<path fill-rule="evenodd" clip-rule="evenodd" d="M79.3208 250.133C79.6481 249.958 80.058 249.905 80.4217 249.862C80.8563 249.81 81.2897 249.812 81.7243 249.866C82.4756 249.961 83.3242 250.199 83.8011 250.838C83.9031 250.975 83.7019 251.162 83.5782 251.041C83.0638 250.536 82.3061 250.381 81.6134 250.366C81.2428 250.359 80.865 250.377 80.4967 250.422C80.1548 250.464 79.8352 250.576 79.4985 250.636C79.2387 250.681 79.0815 250.26 79.3208 250.133Z" fill="#3A180F"/>
<path fill-rule="evenodd" clip-rule="evenodd" d="M71.9024 262.617C71.7909 262.08 71.6472 261.662 71.6244 261.097C71.6074 260.672 71.4109 260.32 71.3686 259.914C71.3211 259.459 71.6824 259.144 71.7587 258.703C71.8032 258.448 71.7704 258.169 71.7176 257.917C71.6402 257.548 71.483 257.163 71.1651 257.012C71.4613 256.626 71.6267 256.195 71.5845 255.694C71.5411 255.181 71.334 254.692 71.3247 254.174C71.3141 253.619 71.5675 253.096 71.6285 252.548C71.7094 251.826 71.5205 251.116 71.4947 250.397C71.4906 250.3 71.398 250.275 71.3335 250.31C71.2537 250.212 71.1071 250.168 70.9892 250.285C70.5094 250.756 70.1399 251.04 69.9405 251.707C69.703 252.5 69.5429 253.334 69.4015 254.149C69.1112 255.824 68.9945 257.513 69.198 259.205C69.3399 260.385 69.6215 261.561 69.9511 262.704C70.1575 263.42 70.466 264.632 71.32 264.822C71.4349 264.848 71.534 264.803 71.5997 264.708C72.0038 264.12 72.0443 263.3 71.9024 262.617Z" fill="#3A180F"/>
<path fill-rule="evenodd" clip-rule="evenodd" d="M104.698 256.023C104.538 255.591 104.111 254.916 103.557 255.021C102.777 255.167 103.016 256.366 102.839 256.89C102.688 257.341 102.374 257.652 102.341 258.148C102.298 258.797 102.464 259.407 102.367 260.064C102.278 260.675 102.132 261.233 101.855 261.787C101.654 262.193 101.44 262.586 101.393 263.046C101.323 263.727 101.75 264.364 101.446 265.013C101.309 265.306 101.17 265.6 101.068 265.908C100.916 266.364 100.857 266.92 101.259 267.117C101.301 267.223 101.404 267.306 101.527 267.256C102.193 266.99 102.485 266.162 102.781 265.566C103.237 264.653 103.549 263.811 103.722 262.794C103.926 261.601 104.215 260.455 104.507 259.283C104.757 258.284 105.071 257.03 104.698 256.023Z" fill="#3A180F"/>
<path fill-rule="evenodd" clip-rule="evenodd" d="M99.5605 268.219C99.9188 266.435 100.043 264.798 99.9951 263.877C100.46 263.199 102.662 259.943 103.799 257.451L103.106 257.132C102.16 259.205 100.4 261.905 99.6438 263.033C98.6379 262.661 94.0204 261.328 88.1279 260.483C82.5022 259.676 74.7469 260.119 73.0373 260.231C72.4408 259.203 71.025 256.587 70.3353 253.818L69.5957 254.004C70.4145 257.293 72.1657 260.28 72.5804 260.96C72.4514 261.895 72.2619 263.682 72.3083 265.83C71.6127 263.771 70.9089 261.617 70.5605 260.344L69.825 260.547C70.3458 262.448 72.3927 269.051 72.4062 269.144C73.0871 273.817 76.663 277.578 76.663 277.578C76.663 277.578 80.182 281.339 84.9496 281.795C89.7173 282.25 96.2608 276.4 98.1171 272.677C98.2972 272.317 98.4579 271.935 98.6092 271.546L98.6203 271.553C98.7347 271.347 101.421 266.499 102.214 264.622L102.431 262.762C102.06 263.641 100.321 266.79 99.5605 268.219Z" fill="white"/>
<path fill-rule="evenodd" clip-rule="evenodd" d="M107.651 256.271C105.628 264.709 99.8271 269.336 99.8271 269.336C102.15 265.333 103.569 257.284 103 254.552C102.825 253.709 102.678 252.897 102.437 252.096V252.09C101.88 250.276 100.807 248.51 97.6635 246.543C97.1239 246.202 96.5843 245.902 96.0383 245.643C92.0149 243.694 87.7693 243.764 81.4697 244.871C74.315 246.126 72.3502 248.481 71.1004 253.15C71.0945 253.173 71.0892 253.197 71.0828 253.22C69.8981 257.802 71.6288 266.445 71.7104 266.852C68.8195 263.036 67.6225 258.914 67.2418 254.003C67.0717 251.848 67.06 249.535 67.1304 247.032C67.3533 238.83 72.3502 232.335 80.0679 228.914C86.1212 226.229 94.2026 226.212 100.696 230.457C102.479 231.623 104.144 233.113 105.611 234.956C106.564 236.146 107.282 237.429 107.821 238.739L107.833 238.753L107.968 239.083L108.015 239.201C111.047 247.18 107.651 256.271 107.651 256.271Z" fill="#00CCB2"/>
<path fill-rule="evenodd" clip-rule="evenodd" d="M107.651 256.27C105.628 264.707 99.8267 269.335 99.8267 269.335C102.149 265.332 103.569 257.282 103 254.55C102.824 253.708 102.678 252.896 102.437 252.095V252.088C102.437 252.088 104.929 252.824 105.305 250.9C105.686 248.968 104.261 245.782 103.798 243.274C103.34 240.766 104.021 240.459 104.548 239.094C105.082 237.728 105.34 237.045 104.871 236.055C104.425 235.131 103.874 234.071 103.803 233.941L107.833 238.752L107.967 239.082L108.014 239.2C111.046 247.178 107.651 256.27 107.651 256.27Z" fill="#00A48F"/>
<path fill-rule="evenodd" clip-rule="evenodd" d="M74.1069 272.6C74.1069 272.6 76.8471 274.918 78.6658 275.431C80.4851 275.943 83.9449 272.699 86.6973 272.112C89.4497 271.525 94.7358 271.927 95.8209 269.339C96.9065 266.75 98.8988 263.652 98.8988 263.652C98.8988 263.652 99.0965 266.86 98.3446 270.225C97.5927 273.591 95.9792 274.759 92.9992 278.01C90.0198 281.262 86.1929 281.683 83.0575 280.881C79.9227 280.081 75.3615 276.779 74.1069 272.6Z" fill="#F0F0F0"/>
<path fill-rule="evenodd" clip-rule="evenodd" d="M100.695 230.457C99.9327 230.286 98.9474 230.115 96.9064 229.75C93.188 229.085 93.7276 228.384 91.1587 228.078C88.5957 227.771 86.3905 228.078 82.5255 229.067C78.6663 230.056 79.6516 230.586 78.6663 232.259C77.681 233.93 75.7162 235.374 73.0711 236.704C70.4202 238.029 70.7251 238.718 69.0947 241.603C67.4701 244.488 68.1504 245.631 67.9979 248.593C67.9217 250.105 67.5698 252.261 67.2413 254.003C67.0712 251.848 67.0595 249.534 67.1299 247.032C67.3528 238.83 72.3497 232.335 80.068 228.914C86.1207 226.229 94.2027 226.212 100.695 230.457Z" fill="#00DABE"/>
<path fill-rule="evenodd" clip-rule="evenodd" d="M96.038 245.642C92.0146 243.693 87.7684 243.764 81.4694 244.871C74.3141 246.125 72.3494 248.48 71.1001 253.15C71.0942 253.173 71.0884 253.196 71.0825 253.22C71.2702 252.008 71.5165 250.718 71.8156 249.823C72.537 247.68 74.4314 245.707 76.5487 244.795C78.6659 243.882 79.8037 243.199 82.6776 242.662C85.5573 242.132 86.9942 242.439 89.264 242.892C91.5337 243.351 93.1055 242.892 94.56 244.258C94.9941 244.665 95.516 245.154 96.038 245.642Z" fill="#00DABE"/>
<path fill-rule="evenodd" clip-rule="evenodd" d="M290.597 342.22C290.539 342.661 290.458 343.21 290.359 343.859C289.71 347.878 288.248 355.551 286.803 362.499C285.859 367.043 284.922 371.279 284.233 373.992C283.83 375.598 283.741 378.868 283.856 383.029C284.266 398.366 287.411 425.744 287.411 425.744C287.411 425.744 272.58 428.748 264.319 428.54C256.05 428.324 222.776 423.381 222.776 423.381C222.776 423.381 224.508 415.658 226.398 406.263C228.943 393.614 231.776 377.936 231.054 373.992C230.716 372.153 230.241 366.577 229.781 359.354C229.542 355.718 229.304 351.665 229.1 347.462C228.27 330.769 227.81 311.67 228.91 306.728C228.927 306.653 228.943 306.586 228.959 306.519C229.067 306.087 229.198 305.779 229.338 305.629L229.345 305.621C230.233 304.705 232.556 303.607 235.332 302.542C235.34 302.542 235.34 302.534 235.349 302.534C235.735 302.384 236.137 302.234 236.539 302.084L236.547 302.076C239.175 301.111 242.049 300.187 244.381 299.471C247.124 298.639 249.12 298.09 249.12 298.09L265.691 299.604L269.058 301.427L280.842 307.801C280.842 307.801 281.695 312.353 282.961 316.223C284.233 320.092 291.229 337.268 290.597 342.22Z" fill="#EDA1AB"/>
<path fill-rule="evenodd" clip-rule="evenodd" d="M290.359 343.86C289.711 347.878 288.248 355.551 286.804 362.499C285.859 367.043 284.922 371.279 284.233 373.992C283.83 375.598 283.741 378.868 283.856 383.029C276.785 385.276 253.612 392.566 247.28 393.798C241.951 394.829 231.809 402.136 226.397 406.263C228.943 393.615 231.776 377.937 231.054 373.992C230.553 371.221 229.723 360.02 229.099 347.463L238.181 322.123C238.181 322.123 241.22 344.534 240.743 348.628C240.678 349.202 240.629 349.876 240.588 350.583C242.723 351.79 246.615 353.887 248.627 354.336C251.493 354.985 271.628 352.081 271.628 352.081L270.52 356.966L274.165 352.297C274.165 352.297 285.851 347.854 290.359 343.86Z" fill="#DB909A"/>
<path fill-rule="evenodd" clip-rule="evenodd" d="M280.532 323.948L272.562 324.043L272.25 322.218L280.221 322.123L280.532 323.948Z" fill="#EB8991"/>
<path fill-rule="evenodd" clip-rule="evenodd" d="M280.22 323.716L272.25 323.81L271.938 321.985L279.909 321.891L280.22 323.716Z" fill="white"/>
<path fill-rule="evenodd" clip-rule="evenodd" d="M294.009 372.684C294.009 372.684 292.282 373.693 290.359 372.44C288.436 371.186 287.812 367.539 287.812 367.539L295.871 364.191C295.871 364.191 296.268 365.83 296.154 366.798C296.041 367.767 294.928 371.447 294.009 372.684Z" fill="#EB8991"/>
<path fill-rule="evenodd" clip-rule="evenodd" d="M299.217 358.801C299.211 358.918 299.205 359.042 299.188 359.159C298.689 365.649 294.314 372.237 294.009 372.685C294.115 372.437 294.994 370.43 295.135 369.364C295.17 369.082 295.194 368.463 295.17 367.669C295.112 365.26 294.648 361.197 292.936 359.714C292.783 359.583 292.625 359.449 292.449 359.313C290.554 357.835 287.534 356.251 286.338 355.639C286.32 355.479 286.297 355.274 286.262 355.074C286.191 354.679 286.074 354.308 285.874 354.338L284.338 340.129L281.957 318.112L280.842 307.803C280.842 307.803 286.813 310.205 290.637 316.164C292.748 319.461 295.106 326.945 296.818 334.694V334.7C296.865 335 298.349 344.504 298.977 352.012C299.2 354.703 299.317 357.134 299.217 358.801Z" fill="#FFAEB7"/>
<path fill-rule="evenodd" clip-rule="evenodd" d="M292.449 359.313C290.554 357.835 287.534 356.252 286.337 355.639C286.32 355.48 286.296 355.274 286.261 355.074C286.191 354.68 286.074 354.308 285.874 354.338L284.337 340.13V331.538L283.745 318.426C283.745 318.426 289.047 327.287 290.05 329.825C291.047 332.363 294.226 346.948 294.378 349.993C294.501 352.559 293.334 357.483 292.449 359.313Z" fill="#EB8991"/>
<path fill-rule="evenodd" clip-rule="evenodd" d="M273.159 363.588L280.636 328.021L295.522 324.965L288.045 360.533L273.159 363.588Z" fill="#3E5164"/>
<path fill-rule="evenodd" clip-rule="evenodd" d="M295.522 324.967L294.301 323.955L279.415 327.011L271.938 362.579L273.159 363.59L280.636 328.022L295.522 324.967Z" fill="white"/>
<path fill-rule="evenodd" clip-rule="evenodd" d="M295.17 367.67C294.983 367.871 294.79 368.059 294.601 368.224C292.637 369.973 286.203 370.809 286.203 370.809L286.356 355.917C286.356 355.917 286.349 355.805 286.338 355.641C287.64 356.306 291.117 358.131 292.936 359.715C294.648 361.199 295.112 365.262 295.17 367.67Z" fill="#0099B8"/>
<path fill-rule="evenodd" clip-rule="evenodd" d="M291.781 363.565V363.571C291.727 363.794 291.663 364.036 291.581 364.288C291.517 364.495 291.44 364.706 291.358 364.925C291.311 365.054 291.258 365.19 291.2 365.325C291.124 365.531 291.035 365.737 290.936 365.949C290.883 366.073 290.824 366.197 290.766 366.32C290.695 366.473 290.625 366.62 290.554 366.767C290.478 366.921 290.408 367.068 290.326 367.215C290.244 367.368 290.168 367.516 290.085 367.663C290.085 367.669 290.08 367.669 290.08 367.674C289.998 367.827 289.915 367.974 289.827 368.122C289.728 368.299 289.634 368.458 289.534 368.617C289.504 368.657 289.481 368.705 289.452 368.746C289.364 368.888 289.276 369.017 289.194 369.146C289.088 369.299 288.982 369.446 288.888 369.571C288.836 369.635 288.789 369.694 288.737 369.753C288.689 369.806 288.648 369.859 288.601 369.906C287.264 371.372 275.652 372.485 271.523 370.695C271.523 370.695 269.927 369.706 269.617 368.358C269.599 368.292 269.581 368.216 269.581 368.152C269.393 366.85 270.25 365.395 270.25 365.395C270.25 365.395 269.147 364.607 269.447 363.588C269.47 363.505 269.499 363.417 269.552 363.323C270.144 362.175 270.56 361.775 270.56 361.775L270.555 361.751C270.537 361.657 270.496 361.386 270.555 361.045C270.643 360.485 270.989 359.737 272.156 359.413C272.156 359.413 272.126 358.96 272.32 358.389C272.467 357.988 272.713 357.523 273.165 357.117C273.329 356.964 273.522 356.823 273.746 356.699C273.746 356.699 277.458 357.883 279.575 357.664C279.575 357.664 278.871 357.146 278.408 356.21C278.279 355.939 278.161 355.645 278.091 355.309C278.091 355.309 282.437 355.515 284.232 355.309C284.901 355.227 285.61 355.385 286.308 355.645C287.218 355.992 288.097 356.522 288.789 356.999H288.795C289.03 357.164 289.241 357.317 289.428 357.459C289.815 357.729 290.127 358.224 290.408 358.795C290.578 359.148 290.737 359.531 290.877 359.92C291.217 360.821 291.493 361.728 291.781 362.28C291.921 362.551 291.904 363.005 291.781 363.565Z" fill="#58BAD3"/>
<path fill-rule="evenodd" clip-rule="evenodd" d="M286.31 355.644C285.046 355.41 283.559 355.568 283.034 355.627C282.361 355.71 280.571 355.627 279.979 355.627C279.38 355.627 278.09 355.311 278.09 355.311C278.09 355.311 282.435 355.519 284.233 355.311C284.898 355.227 285.613 355.386 286.31 355.644Z" fill="#85E4E0"/>
<path fill-rule="evenodd" clip-rule="evenodd" d="M278.937 364.863C278.937 364.863 278.033 365.67 277.458 365.779C276.875 365.886 270.249 365.396 270.249 365.396C270.249 365.396 269.148 364.606 269.443 363.59C270.01 363.84 271.276 364.339 272.424 364.381C273.961 364.431 276.358 364.422 277.122 364.505C277.877 364.597 278.937 364.863 278.937 364.863Z" fill="#0099B8"/>
<path fill-rule="evenodd" clip-rule="evenodd" d="M277.006 361.992C277.006 361.992 275.602 362.15 274.748 362.208C273.903 362.258 270.56 361.775 270.56 361.775L270.552 361.75C270.536 361.659 270.495 361.384 270.552 361.043C271.3 361.209 273.131 361.6 273.78 361.667C274.617 361.75 277.006 361.992 277.006 361.992Z" fill="#0099B8"/>
<path fill-rule="evenodd" clip-rule="evenodd" d="M274.165 359.92L272.153 359.413C272.153 359.413 272.129 358.963 272.318 358.389L274.165 359.92Z" fill="#0099B8"/>
<path fill-rule="evenodd" clip-rule="evenodd" d="M285.916 357.155C285.916 357.155 282.64 357.929 279.577 357.663C279.577 357.663 278.87 357.147 278.411 356.207C278.443 356.215 278.575 356.224 279.084 356.207C279.88 356.19 281.465 357.072 282.418 357.155C283.371 357.239 285.916 357.155 285.916 357.155Z" fill="#0099B8"/>
<path fill-rule="evenodd" clip-rule="evenodd" d="M283.133 357.606C282.386 357.714 278.83 358.181 277.376 358.006C276.178 357.856 274.149 357.365 273.164 357.115C273.328 356.965 273.525 356.824 273.747 356.699C273.747 356.699 277.459 357.881 279.578 357.664C280.941 357.781 282.64 357.647 283.133 357.606Z" fill="#85E4E0"/>
<path fill-rule="evenodd" clip-rule="evenodd" d="M291.781 362.28C291.493 361.727 291.217 360.82 290.877 359.919C290.737 359.53 290.578 359.148 290.408 358.794C290.127 358.223 289.815 357.729 289.428 357.458C289.241 357.316 289.03 357.164 288.795 356.998H288.789C288.684 357.016 288.396 357.398 288.32 357.716C288.244 358.041 287.321 360.36 287.321 360.36H287.323C286.989 361.21 286.851 362.256 286.244 363.457C284.989 365.972 282.197 367.197 282.167 367.208C281.276 367.532 280.637 367.709 280.637 367.65C280.637 367.491 280.244 363.588 280.244 363.588L278.672 366.525C278.672 366.525 274.854 368.516 273.763 368.722C273.019 368.875 270.854 368.439 269.581 368.151C269.581 368.215 269.599 368.292 269.617 368.356C269.927 369.705 271.523 370.694 271.523 370.694C275.652 372.484 287.265 371.371 288.601 369.905C288.648 369.858 288.689 369.805 288.737 369.752C288.784 369.694 288.831 369.634 288.877 369.576C288.877 369.576 288.883 369.576 288.889 369.57C288.982 369.446 289.088 369.299 289.194 369.145C289.276 369.016 289.364 368.887 289.452 368.745C289.481 368.704 289.504 368.657 289.534 368.616C289.634 368.457 289.728 368.298 289.828 368.121C289.915 367.974 289.998 367.827 290.08 367.673C290.08 367.668 290.085 367.668 290.085 367.662C290.121 367.615 290.144 367.562 290.174 367.515C290.226 367.415 290.279 367.315 290.326 367.215C290.408 367.068 290.478 366.92 290.554 366.767C290.561 366.755 290.567 366.737 290.578 366.726C290.643 366.59 290.707 366.455 290.766 366.319C290.824 366.195 290.883 366.072 290.936 365.948C291.035 365.736 291.124 365.531 291.2 365.324C291.258 365.189 291.311 365.053 291.358 364.924C291.44 364.706 291.517 364.494 291.581 364.288C291.663 364.034 291.727 363.793 291.781 363.569V363.564C291.904 363.004 291.921 362.551 291.781 362.28Z" fill="#0099B8"/>
<path fill-rule="evenodd" clip-rule="evenodd" d="M276.092 275.132C275.989 274.04 275.545 273.074 274.481 272.869C273.591 272.698 272.542 272.993 271.961 273.787C271.178 274.274 270.958 276.516 270.882 277.137C270.801 277.803 270.761 278.473 270.687 279.14C270.607 279.872 270.273 280.805 270.203 281.637C270.171 282.014 270.187 282.431 270.394 282.748C270.676 283.179 271.178 283.24 271.62 283.147C272.624 282.938 273.549 282.141 274.225 281.34C275.596 279.714 276.299 277.347 276.092 275.132Z" fill="#FFD3D1"/>
<path fill-rule="evenodd" clip-rule="evenodd" d="M265.798 289.494C265.493 290.875 265.486 293.63 265.552 296.143C265.625 298.923 265.691 299.606 265.691 299.606C265.691 299.606 265.058 303.874 259.285 304.406C253.521 304.947 249.12 298.09 249.12 298.09C249.522 296.817 249.826 295.203 250.048 293.722C250.392 291.458 250.54 289.494 250.54 289.494C250.54 289.494 266.438 286.589 265.798 289.494Z" fill="#FFD3D1"/>
<path fill-rule="evenodd" clip-rule="evenodd" d="M265.798 289.494C265.494 290.875 265.486 293.63 265.552 296.143C263.934 298.04 261.717 299.846 259.286 299.58C255.87 299.206 252.059 295.777 250.048 293.722C250.393 291.458 250.54 289.494 250.54 289.494C250.54 289.494 266.439 286.589 265.798 289.494Z" fill="#FF9BA1"/>
<path fill-rule="evenodd" clip-rule="evenodd" d="M273.987 264.303C274.016 261.193 273.515 258.013 271.595 255.548C269.587 252.969 266.454 251.557 263.313 251.045C256.546 249.94 249.147 252.289 245.501 258.468C244.278 260.538 243.422 262.973 243.017 265.453C242.939 265.378 242.175 271.688 242.05 274.744C241.937 277.519 242.101 280.321 242.972 282.972C244.452 287.473 247.778 290.702 251.501 293.387C253.35 294.719 255.356 296.233 257.668 296.55C259.937 296.861 261.875 295.747 263.532 294.28C267.492 290.777 271.316 286.268 273.015 281.147C274.009 278.148 273.94 275.074 274.085 271.96C274.201 269.446 274.606 266.78 273.987 264.303Z" fill="#FAE0BD"/>
<path fill-rule="evenodd" clip-rule="evenodd" d="M244.863 274.475C244.768 273.587 244.35 272.211 243.418 271.908C243.375 271.893 243.334 271.896 243.295 271.905C243.032 271.67 242.711 271.505 242.339 271.434C241.637 271.298 240.795 271.413 240.25 271.915C239.58 272.531 239.349 273.633 239.227 274.498C239.091 275.471 239.086 276.466 239.202 277.442C239.436 279.429 240.508 281.444 242.403 282.242C243.108 282.539 243.775 282.494 244.014 281.666C244.145 281.208 244.205 280.719 244.304 280.253C244.45 279.567 244.595 278.879 244.694 278.184C244.864 276.992 244.993 275.68 244.863 274.475Z" fill="#FFD3D1"/>
<path fill-rule="evenodd" clip-rule="evenodd" d="M261.143 287.518C260.889 287.496 260.724 287.652 260.523 287.783C260.328 287.911 260.12 288.022 259.904 288.109C259.455 288.291 258.973 288.397 258.489 288.42C258.008 288.442 257.53 288.384 257.069 288.242C256.844 288.172 256.63 288.077 256.429 287.952C256.381 287.922 256.338 287.885 256.285 287.864C256.267 287.857 256.196 287.831 256.181 287.828C256.07 287.774 255.963 287.684 255.871 287.605C255.718 287.476 255.459 287.641 255.578 287.834C255.651 287.95 255.729 288.071 255.821 288.172C255.893 288.252 255.936 288.348 256.068 288.448C256.285 288.611 256.519 288.739 256.768 288.845C257.299 289.07 257.881 289.146 258.455 289.124C259.034 289.1 259.614 288.982 260.151 288.761C260.57 288.588 261.357 288.284 261.361 287.739C261.363 287.612 261.26 287.528 261.143 287.518Z" fill="#FF6969"/>
<path fill-rule="evenodd" clip-rule="evenodd" d="M260.752 282.03C260.653 281.566 260.341 281.286 260.037 280.954C259.935 280.843 259.922 280.647 259.901 280.458C259.863 280.111 259.848 279.769 259.784 279.426C259.759 279.295 259.549 279.296 259.523 279.426C259.465 279.726 259.42 280.019 259.401 280.325C259.386 280.552 259.379 280.794 259.453 281.013C259.571 281.367 259.916 281.556 260.081 281.881C260.149 282.016 260.185 282.155 260.188 282.288C260.191 282.425 260.174 282.52 260.112 282.611C260.101 282.624 260.088 282.637 260.076 282.649C260.066 282.657 260.067 282.657 260.063 282.66C260.059 282.663 260.059 282.662 260.049 282.669C260.038 282.675 260.027 282.68 260.017 282.686C260.014 282.686 260.007 282.688 259.991 282.694C259.981 282.697 259.943 282.701 259.935 282.702C259.858 282.706 259.849 282.704 259.754 282.674C259.613 282.632 259.508 282.64 259.368 282.682C259.194 282.735 259.117 282.932 259.203 283.093C259.287 283.248 259.386 283.345 259.563 283.378C259.681 283.401 259.801 283.413 259.921 283.401C260.132 283.379 260.334 283.302 260.487 283.148C260.775 282.859 260.835 282.418 260.752 282.03Z" fill="#FF9BA1"/>
<path fill-rule="evenodd" clip-rule="evenodd" d="M264.905 273.729C264.736 273.48 264.245 273.548 264.081 273.766C264.055 273.801 264.027 273.834 264.003 273.868C263.933 273.964 263.928 274.036 263.915 274.141C263.906 274.216 263.898 274.29 263.889 274.365C263.869 274.534 263.861 274.7 263.857 274.87C263.853 275.033 263.851 275.195 263.852 275.359C263.852 275.44 263.854 275.522 263.856 275.603C263.859 275.719 263.892 275.83 263.918 275.944C263.959 276.121 264.261 276.255 264.488 276.237C264.72 276.219 265.003 276.086 265.031 275.893C265.082 275.533 265.065 275.174 265.078 274.814C265.084 274.651 265.089 274.491 265.083 274.329C265.08 274.249 265.081 274.168 265.074 274.088C265.06 273.948 264.986 273.848 264.905 273.729Z" fill="#00143B"/>
<path fill-rule="evenodd" clip-rule="evenodd" d="M267.382 269.679C267.215 269.538 267.054 269.387 266.876 269.261C266.391 268.921 265.736 268.831 265.16 268.806C263.995 268.753 262.948 269.429 262.365 270.43C262.242 270.643 262.574 270.842 262.722 270.656C263.343 269.871 264.354 269.446 265.337 269.544C265.786 269.588 266.242 269.67 266.598 269.962C266.837 270.159 267.281 270.698 267.629 270.528C267.805 270.442 267.867 270.282 267.819 270.093C267.773 269.911 267.52 269.795 267.382 269.679Z" fill="#FF9043"/>
<path fill-rule="evenodd" clip-rule="evenodd" d="M251.865 273.729C252.034 273.48 252.525 273.548 252.689 273.766C252.715 273.801 252.743 273.834 252.768 273.868C252.837 273.964 252.843 274.036 252.855 274.141C252.864 274.216 252.873 274.29 252.881 274.365C252.901 274.534 252.909 274.7 252.914 274.87C252.917 275.033 252.919 275.195 252.918 275.359C252.918 275.44 252.916 275.522 252.914 275.603C252.911 275.719 252.879 275.83 252.853 275.944C252.811 276.121 252.51 276.255 252.282 276.237C252.051 276.219 251.768 276.086 251.74 275.893C251.688 275.533 251.705 275.174 251.692 274.814C251.687 274.651 251.682 274.491 251.688 274.329C251.691 274.249 251.69 274.168 251.697 274.088C251.71 273.948 251.785 273.848 251.865 273.729Z" fill="#00143B"/>
<path fill-rule="evenodd" clip-rule="evenodd" d="M249.388 269.679C249.555 269.538 249.716 269.387 249.894 269.261C250.379 268.921 251.034 268.831 251.61 268.806C252.775 268.753 253.822 269.429 254.405 270.43C254.528 270.643 254.195 270.842 254.048 270.656C253.427 269.871 252.416 269.446 251.432 269.544C250.984 269.588 250.528 269.67 250.172 269.962C249.932 270.159 249.488 270.698 249.141 270.528C248.965 270.442 248.903 270.282 248.951 270.093C248.997 269.911 249.25 269.795 249.388 269.679Z" fill="#FF9043"/>
<path fill-rule="evenodd" clip-rule="evenodd" d="M269.242 281.244C269.242 281.704 268.377 282.077 267.309 282.077C266.241 282.077 265.375 281.704 265.375 281.244C265.375 280.785 266.241 280.412 267.309 280.412C268.377 280.412 269.242 280.785 269.242 281.244Z" fill="#FFBCC1"/>
<path fill-rule="evenodd" clip-rule="evenodd" d="M252.395 281.244C252.395 281.704 251.529 282.077 250.461 282.077C249.394 282.077 248.527 281.704 248.527 281.244C248.527 280.785 249.394 280.412 250.461 280.412C251.529 280.412 252.395 280.785 252.395 281.244Z" fill="#FFBCC1"/>
<path fill-rule="evenodd" clip-rule="evenodd" d="M271.576 283.493L270.862 283.223C270.881 283.171 272.824 277.973 273.416 274.33L274.168 274.453C273.564 278.172 271.657 283.277 271.576 283.493Z" fill="white"/>
<path fill-rule="evenodd" clip-rule="evenodd" d="M271.822 281.913C271.822 281.913 271.786 282.195 271.711 282.649C271.564 283.609 271.253 285.339 270.766 286.7C269.253 290.957 263.2 297.417 260.397 297.946C257.5 298.494 254.497 297.417 250.937 294.831C250.397 294.437 249.869 294.001 249.371 293.536C246.573 290.986 244.503 287.765 244.503 287.765C244.503 287.765 244.96 282.143 245.869 281.383C246.779 280.623 263.2 276.519 271.822 281.913Z" fill="white"/>
<path fill-rule="evenodd" clip-rule="evenodd" d="M271.71 282.648C271.564 283.608 271.253 285.339 270.767 286.699C269.253 290.956 263.2 297.416 260.397 297.945C257.5 298.493 254.497 297.416 250.936 294.83C250.397 294.436 249.869 294 249.371 293.535L247.91 291.18C247.91 291.18 249.417 292.499 250.462 292.617C250.462 292.617 254.655 293.117 255.711 292.893C256.767 292.664 257.933 289.873 257.933 289.873C257.933 289.873 262.977 288.383 264.467 288.383C265.957 288.383 267.775 285.887 267.746 284.291C267.716 282.695 267.746 280.434 267.746 280.434C267.746 280.434 270.15 281.193 271.71 282.648Z" fill="#F0F0F0"/>
<path fill-rule="evenodd" clip-rule="evenodd" d="M245.82 281.913C245.789 281.842 242.718 274.711 241.543 273.015L242.169 272.578C243.388 274.336 246.393 281.313 246.52 281.61L245.82 281.913Z" fill="white"/>
<path fill-rule="evenodd" clip-rule="evenodd" d="M244.505 287.764C244.476 287.715 241.671 282.751 240.388 278.961L241.11 278.715C242.37 282.436 245.139 287.336 245.167 287.386L244.505 287.764Z" fill="white"/>
<path fill-rule="evenodd" clip-rule="evenodd" d="M276.368 265.349C275.91 270.973 272.637 280.411 272.637 280.411C273.071 278.226 273.136 274.964 272.42 272.25C272.074 270.92 271.541 269.724 270.767 268.846C270.162 268.163 269.13 267.587 267.834 267.109V267.103C264.069 265.72 258.075 265.202 253.963 265.655C248.439 266.262 245.564 268.617 243.975 272.415C242.673 275.524 242.908 282.03 243.031 284.292C243.066 284.786 243.084 285.092 243.084 285.092C243.084 285.092 239.811 282.826 237.77 279.027C236.966 277.531 236.468 275.077 236.21 272.427C235.811 268.329 235.993 263.777 236.515 261.646C236.521 261.633 236.526 261.628 236.526 261.616C237.025 258.431 238.233 255.492 240.04 252.966C243.524 248.103 252.45 243.015 263.575 246.43C265.136 246.913 266.526 247.52 267.746 248.226C270.256 249.668 272.092 251.524 273.418 253.537C276.045 257.53 276.625 262.134 276.368 265.349Z" fill="#00CCB2"/>
<path fill-rule="evenodd" clip-rule="evenodd" d="M276.368 265.35C275.91 270.973 272.637 280.411 272.637 280.411C273.071 278.227 273.136 274.964 272.42 272.251C272.696 272.062 272.954 271.785 273.159 271.378C274.022 269.701 274.192 267.193 274.244 265.714C274.302 264.231 274.983 264.331 275.153 262.54C275.282 261.163 274.672 256.628 273.417 253.537C276.045 257.53 276.625 262.134 276.368 265.35Z" fill="#00A48F"/>
<path fill-rule="evenodd" clip-rule="evenodd" d="M267.834 267.103C264.069 265.719 258.074 265.202 253.963 265.655C248.439 266.261 245.564 268.616 243.975 272.415C242.673 275.523 242.908 282.03 243.031 284.291C242.914 282.53 242.602 278.373 242.291 277.249C241.893 275.801 242.521 272.155 243.541 270.73C244.561 269.299 245.242 267.362 246.52 266.167C247.799 264.972 248.42 264.972 251.688 264.571C254.948 264.171 256.573 263.623 258.397 264.012C260.227 264.4 261.588 264.63 263.235 264.972C264.884 265.313 267.834 267.103 267.834 267.103Z" fill="#00DABE"/>
<path fill-rule="evenodd" clip-rule="evenodd" d="M263.576 246.43C252.45 243.015 243.524 248.103 240.04 252.966C238.233 255.492 237.025 258.431 236.526 261.616C236.526 261.628 236.521 261.633 236.515 261.646C235.993 263.777 235.811 268.328 236.21 272.426C236.562 269.447 237.219 263.836 237.465 262.017C237.729 260.063 238.835 257.362 240.478 254.943C240.126 256.35 240.389 257.36 240.389 257.36C240.618 259.305 242.406 257.905 243.313 256.538C244.222 255.17 246.151 253.745 247.911 251.882C249.537 250.159 249.417 248.252 248.712 247.746C249.946 247.228 251.332 246.853 252.919 246.695C258.239 246.165 260.18 247.213 262.896 247.189C264.046 247.183 265.939 247.667 267.746 248.226C266.526 247.52 265.136 246.913 263.576 246.43Z" fill="#00DABE"/>
<path fill-rule="evenodd" clip-rule="evenodd" d="M269.06 301.428C268.374 305.697 266.72 313.805 263.465 318.427C263.465 318.427 249.306 308.841 244.38 299.473C249.441 297.848 249.518 296.605 249.518 296.605C250.462 297.318 251.371 297.901 252.251 298.378C257.212 301.075 261.113 300.356 263.388 299.396C264.825 298.79 265.611 298.089 265.611 298.089C265.992 299.532 268.667 301.187 269.019 301.404C269.047 301.422 269.06 301.428 269.06 301.428Z" fill="white"/>
<path fill-rule="evenodd" clip-rule="evenodd" d="M291.435 365.179L291.426 365.195C291.246 365.72 290.982 366.327 290.605 367.018V367.026C289.866 368.366 288.709 369.989 286.885 371.769C286.614 372.028 286.327 372.285 286.039 372.544C280.636 377.37 268.392 382.038 263.785 382.363C261.782 382.505 254.572 380.981 246.902 379.109C246.845 379.101 246.82 379.092 246.82 379.092C236.851 376.662 226.151 373.675 225.166 373.026C220.871 370.197 218.81 365.778 218.334 363.323C218.243 362.882 218.186 362.308 218.153 361.667C217.98 358.73 218.26 354.336 218.26 354.336L234.38 356.591L233.961 360.003L233.747 361.775C233.747 361.775 240.9 365.295 246.623 368.682C252.339 372.069 262.989 374.308 262.989 374.308L262.998 374.299C266.34 370.446 272.046 369.314 272.737 368.682C273.426 368.041 278.723 362.715 279.675 362.558C280.636 362.391 280.316 364.322 279.363 366.743C278.452 369.057 275.717 370.929 275.495 371.079C275.783 371.004 280.431 369.664 283.248 368.041C283.248 368.041 283.256 368.041 283.272 368.033C284.085 367.559 284.742 367.068 285.087 366.577C286.672 364.322 288.421 360.785 289.373 360.785C289.489 360.785 289.587 360.818 289.686 360.885C290.392 361.351 290.638 363.323 290.638 363.323C290.638 363.323 291.599 362.874 291.755 363.323C291.812 363.49 291.788 364.155 291.435 365.179Z" fill="#58BAD3"/>
<path fill-rule="evenodd" clip-rule="evenodd" d="M289.685 360.885C288.922 361.442 287.55 363.299 286.474 365.179C285.284 367.252 283.485 367.959 283.272 368.034C284.085 367.559 284.742 367.068 285.087 366.577C286.671 364.322 288.421 360.785 289.373 360.785C289.488 360.785 289.587 360.819 289.685 360.885Z" fill="#85E4E0"/>
<path fill-rule="evenodd" clip-rule="evenodd" d="M279.675 362.559C279.675 362.559 277.122 364.506 276.103 366.769C275.085 369.033 271.972 369.882 269.394 370.93C266.898 371.945 263.227 374.167 262.997 374.3C266.34 370.447 272.046 369.316 272.736 368.683C273.426 368.042 278.723 362.717 279.675 362.559Z" fill="#85E4E0"/>
<path fill-rule="evenodd" clip-rule="evenodd" d="M291.427 365.195C291.246 365.72 290.983 366.327 290.606 367.018V367.026C289.866 368.366 288.709 369.989 286.886 371.77C286.615 372.028 286.327 372.285 286.039 372.543C280.637 377.37 268.393 382.038 263.786 382.363C261.782 382.504 254.573 380.982 246.902 379.109C248.068 379.292 261.47 381.381 264.213 381.074C267.071 380.757 280.291 375.693 283.732 373.451C289.533 369.67 291.172 365.562 291.427 365.195Z" fill="#0099B8"/>
<path fill-rule="evenodd" clip-rule="evenodd" d="M261.764 381.03C261.693 381.472 261.617 381.872 261.541 382.208C261.359 383.014 261.195 383.496 261.195 383.496C261.195 383.496 260.397 383.267 258.127 382.926C255.858 382.584 227.026 375.971 223.958 373.923C223.952 373.923 223.952 373.917 223.947 373.917C220.891 371.862 217.993 367.062 217.489 364.195C217.419 363.789 217.342 362.953 217.284 361.769C216.932 354.556 217.131 334.318 221.823 318.155C224.738 308.116 229.084 305.772 229.336 305.63L229.348 305.619C229.553 305.69 229.741 305.76 229.928 305.848C229.975 305.861 230.029 305.878 230.075 305.901C239.4 309.893 239.224 327.558 237.559 341.219C237.23 343.904 236.843 346.436 236.462 348.674C236.415 348.956 236.362 349.233 236.31 349.515C235.606 353.555 234.931 356.529 234.685 357.559C234.65 357.694 234.62 357.83 234.591 357.959C234.145 360.026 233.835 361.387 233.835 361.387C233.835 361.387 239.963 364.007 246.902 368.264C253.84 372.515 261.359 373.787 261.359 373.787C261.376 373.84 261.394 373.899 261.406 373.952C261.435 374.034 261.459 374.117 261.483 374.199C262.198 376.72 262.045 379.246 261.764 381.03Z" fill="#FCB0BA"/>
<path fill-rule="evenodd" clip-rule="evenodd" d="M239.582 376.278C242.462 377.291 254.884 380.135 256.11 380.418C254.749 380.206 240.022 377.85 231.166 375.672C228.539 375.03 226.116 374.476 223.946 373.917C220.891 371.862 217.993 367.063 217.488 364.195C217.419 363.789 217.342 362.953 217.283 361.77C218.005 362.665 221.911 367.534 223.694 369.524C225.665 371.721 236.556 375.212 239.582 376.278Z" fill="#DB909A"/>
<path fill-rule="evenodd" clip-rule="evenodd" d="M133.99 387.441L133.21 396.798L132.19 408.969L131.264 420.033C131.204 420.045 131.141 420.051 131.07 420.057C130.583 420.109 129.24 420.239 127.973 420.145C126.776 420.062 124.806 418.614 123.275 417.03C123.263 417.018 123.246 417 123.228 416.983C123.158 416.919 123.093 416.842 123.023 416.759C122.618 416.33 122.255 415.893 121.955 415.475C120.477 413.42 119.117 408.751 119.005 405.789C118.924 403.746 119.099 396.026 119.211 391.41V391.369C119.264 389.296 119.304 387.859 119.304 387.859L133.99 387.441Z" fill="#58BAD3"/>
<path fill-rule="evenodd" clip-rule="evenodd" d="M132.191 408.972L131.264 420.036C131.205 420.048 131.141 420.053 131.07 420.059C129.557 420.189 125.845 418.928 124.829 417.185C123.774 415.366 124.15 410.119 124.455 407.841C124.753 405.563 125.892 402.065 126.196 400.928C126.449 399.962 126.706 398.137 126.777 397.59C126.689 398.561 126.496 403.495 126.496 405.033C126.496 406.704 127.329 408.601 127.709 409.06C128.085 409.514 129.751 409.437 130.278 409.437C130.648 409.437 131.616 409.148 132.191 408.972Z" fill="#0099B8"/>
<path fill-rule="evenodd" clip-rule="evenodd" d="M123.023 416.759C122.619 416.33 122.254 415.893 121.956 415.475C120.477 413.42 119.117 408.751 119.005 405.789C118.924 403.746 119.1 396.027 119.211 391.41C119.24 392.134 119.627 401.673 119.627 402.822C119.627 404.023 120.425 409.717 120.707 410.918C120.976 412.037 122.009 415.481 123.023 416.759Z" fill="#85E4E0"/>
<path fill-rule="evenodd" clip-rule="evenodd" d="M133.99 387.441L133.21 396.798C132.67 394.702 132.025 391.964 131.604 391.41C130.923 390.515 119.304 387.859 119.304 387.859L133.99 387.441Z" fill="#0099B8"/>
<path fill-rule="evenodd" clip-rule="evenodd" d="M133.99 388.314L124.624 388.025L119.304 387.86L119.005 384.816L127.515 384.945L133.762 385.046L133.99 388.314Z" fill="#00CCB2"/>
<path fill-rule="evenodd" clip-rule="evenodd" d="M133.99 388.314L124.624 388.025L127.515 384.945L133.762 385.046L133.99 388.314Z" fill="#00A48F"/>
<path fill-rule="evenodd" clip-rule="evenodd" d="M137.392 321C137.04 326.264 136.623 333.101 136.202 340.343C136.184 340.738 136.16 341.126 136.137 341.521C134.958 361.936 133.762 385.047 133.762 385.047L127.515 384.947L119.005 384.817C119.005 384.817 116.278 379.123 116.278 374.56C116.278 370.067 117.381 349.859 117.416 341.197V340.826C117.416 340.573 117.422 340.302 117.427 340.019C117.698 330.851 122.272 306.068 125.135 295.015C128.085 283.616 136.94 273.135 136.94 273.135C136.94 273.135 137.205 277.18 137.462 283.304C137.867 293.184 138.236 308.482 137.392 321Z" fill="white"/>
<path fill-rule="evenodd" clip-rule="evenodd" d="M137.392 321.001C136.032 341.286 133.762 385.048 133.762 385.048L127.516 384.948L130.584 380.944C130.584 380.944 130.812 357.014 130.812 351.314C130.812 345.614 131.944 329.204 133.31 312.793C134.313 300.722 136.413 288.781 137.463 283.305C137.868 293.185 138.237 308.483 137.392 321.001Z" fill="#D0D0D0"/>
<path fill-rule="evenodd" clip-rule="evenodd" d="M136.202 340.343C136.184 340.738 136.161 341.127 136.138 341.521C127.832 341.315 120.021 341.227 117.417 341.197V340.826C117.417 340.574 117.422 340.303 117.428 340.02C120.044 340.049 127.885 340.137 136.202 340.343Z" fill="#B4B4B4"/>
<path fill-rule="evenodd" clip-rule="evenodd" d="M215.777 406.762C215.672 409.594 214.37 414.063 212.95 416.029C212.669 416.43 212.317 416.843 211.93 417.254C211.865 417.337 211.801 417.408 211.736 417.472C211.719 417.49 211.701 417.501 211.689 417.514C210.223 419.033 208.341 420.416 207.197 420.499C205.983 420.587 204.698 420.464 204.235 420.411C204.165 420.405 204.106 420.398 204.047 420.387L203.162 409.8L202.822 405.749L201.438 389.203L215.49 389.603C215.49 389.603 215.531 390.975 215.578 392.96V393.001C215.684 397.417 215.854 404.807 215.777 406.762Z" fill="#58BAD3"/>
<path fill-rule="evenodd" clip-rule="evenodd" d="M203.161 409.803L204.047 420.389C204.103 420.401 204.165 420.407 204.233 420.413C205.681 420.537 209.233 419.331 210.204 417.663C211.214 415.922 210.855 410.902 210.563 408.721C210.277 406.541 209.188 403.194 208.896 402.107C208.655 401.183 208.408 399.436 208.341 398.912C208.425 399.842 208.61 404.564 208.61 406.034C208.61 407.634 207.813 409.448 207.449 409.888C207.089 410.322 205.495 410.248 204.991 410.248C204.637 410.248 203.711 409.972 203.161 409.803Z" fill="#0099B8"/>
<path fill-rule="evenodd" clip-rule="evenodd" d="M211.932 417.257C212.319 416.846 212.668 416.429 212.953 416.029C214.368 414.062 215.67 409.594 215.777 406.76C215.855 404.806 215.686 397.419 215.58 393.002C215.552 393.694 215.181 402.822 215.181 403.921C215.181 405.07 214.418 410.519 214.149 411.668C213.891 412.738 212.903 416.034 211.932 417.257Z" fill="#85E4E0"/>
<path fill-rule="evenodd" clip-rule="evenodd" d="M210.505 390.822C208.388 391.199 202.857 392.642 202.857 392.642C202.857 392.642 203.233 395.757 203.162 397.659C203.086 399.561 202.857 405.79 202.857 405.79L202.822 405.749L201.438 389.203L215.49 389.604C215.49 389.604 212.617 390.44 210.505 390.822Z" fill="#0099B8"/>
<path fill-rule="evenodd" clip-rule="evenodd" d="M215.948 386.411L215.49 389.603C215.49 389.603 213.86 389.667 211.678 389.726C207.614 389.838 201.625 389.927 200.734 389.526V386.188L208.798 386.305L215.948 386.411Z" fill="#00CCB2"/>
<path fill-rule="evenodd" clip-rule="evenodd" d="M211.678 389.726C207.614 389.838 201.625 389.927 200.734 389.526V386.188L208.798 386.305L211.678 389.726Z" fill="#00A48F"/>
<path fill-rule="evenodd" clip-rule="evenodd" d="M215.948 386.413C215.948 386.413 213.227 386.667 209.373 386.66C206.834 386.66 203.796 386.554 200.734 386.189C200.734 386.189 198.693 336.728 200.511 313.251C201.209 304.208 201.673 296.181 201.978 289.728C202.464 279.423 202.552 273.135 202.552 273.135C202.552 273.135 207.321 275.637 212.089 282.25C216.857 288.862 220.716 316.667 221.168 338.778C221.18 339.313 221.185 339.849 221.197 340.373C221.203 340.767 221.209 341.162 221.215 341.551C221.502 362.065 220.077 375.285 215.948 386.413Z" fill="white"/>
<path fill-rule="evenodd" clip-rule="evenodd" d="M204.593 364.307C204.593 364.307 204.948 354.145 205.271 342.293L217.082 340.599L205.306 341.014C205.485 334.277 205.65 327.101 205.731 320.999C205.959 303.676 202.723 287.207 202.723 287.207L201.977 289.727C201.673 296.18 201.209 304.206 200.511 313.25C198.693 336.727 200.734 386.188 200.734 386.188C203.796 386.553 206.833 386.659 209.373 386.659L205.05 383.22L204.593 364.307Z" fill="#D0D0D0"/>
<path fill-rule="evenodd" clip-rule="evenodd" d="M221.215 341.551C210.605 341.28 200.388 341.191 200.277 341.191L200.288 340.014C200.4 340.014 210.599 340.102 221.197 340.373C221.203 340.767 221.208 341.162 221.215 341.551Z" fill="#B4B4B4"/>
<path fill-rule="evenodd" clip-rule="evenodd" d="M142.918 269.031L136.94 273.134C136.94 273.134 135.351 316.897 134.896 327.154C134.442 337.411 135.351 365.674 135.351 365.674L130.583 424.252L203.914 425.392C203.914 425.392 200.735 364.307 200.735 363.395C200.735 362.484 203.686 310.287 203.914 301.169C204.141 292.053 202.552 273.134 202.552 273.134L194.076 270.703L142.918 269.031Z" fill="white"/>
<path fill-rule="evenodd" clip-rule="evenodd" d="M190.973 325.79H178.937V313.705H160.782V325.79H148.746V344.015H160.782V356.1H178.937V344.015H190.973V325.79Z" fill="#F0F0F0"/>
<path fill-rule="evenodd" clip-rule="evenodd" d="M170.132 275.624C169.971 275.709 169.797 275.749 169.618 275.768C169.837 282.188 170.671 307.629 170.475 316.889C170.39 320.851 170.156 329.737 169.883 340.028C169.415 357.707 168.885 377.746 168.885 381.628C168.885 387.711 168.66 427.044 168.658 427.441L169.244 427.444C169.247 427.047 169.472 387.713 169.472 381.628C169.472 377.754 170.001 357.72 170.469 340.044C170.742 329.752 170.977 320.864 171.061 316.902C171.259 307.547 170.409 281.743 170.198 275.592C170.176 275.601 170.156 275.615 170.132 275.624Z" fill="#D0D0D0"/>
<path fill-rule="evenodd" clip-rule="evenodd" d="M194.077 270.703C194.077 270.703 194.065 270.708 194.048 270.714C193.725 270.862 190.957 272.075 186.576 273.258C184.541 273.806 182.159 274.353 179.514 274.783C179.491 274.789 179.467 274.789 179.444 274.795C169.538 276.391 155.931 276.367 142.917 269.03C142.917 269.03 145.943 248.516 145.943 238.029C145.943 227.548 148.365 217.82 153.515 212.809C158.659 207.793 166.224 206.426 172.582 207.639C175.415 208.181 178.91 209.783 182.06 212.032C183.761 213.239 185.356 214.641 186.699 216.172C188.458 218.174 189.772 220.388 190.294 222.684C191.186 226.582 191.561 233.901 191.778 240.873C191.813 242.009 191.848 243.14 191.878 244.247C191.884 244.565 191.895 244.883 191.901 245.195C192.019 249.599 192.101 253.503 192.259 255.811C192.716 262.341 193.321 268.271 194.077 270.703Z" fill="white"/>
<path fill-rule="evenodd" clip-rule="evenodd" d="M191.776 240.874L191.778 240.873C191.561 233.901 191.186 226.583 190.294 222.684C189.772 220.388 188.459 218.174 186.699 216.172C187.338 217.367 188.019 218.663 188.588 219.799C190.176 222.99 190.857 236.775 190.857 236.775C190.857 236.775 184.048 237.918 183.596 238.029L183.19 240.664C182.956 240.687 182.718 240.711 182.494 240.732L182.271 241.073L183.18 251.554C184.089 251.101 186.506 247.603 188.324 246.39C189.327 245.72 190.793 245.372 191.901 245.195C191.863 243.796 191.823 242.342 191.776 240.874Z" fill="#D0D0D0"/>
<path fill-rule="evenodd" clip-rule="evenodd" d="M194.077 270.702C194.077 270.702 194.066 270.708 194.048 270.714C193.661 270.844 189.356 272.298 186.576 273.258C185.931 273.476 185.368 273.67 184.957 273.817C184.101 274.117 181.943 274.483 179.515 274.783C179.491 274.789 179.468 274.789 179.444 274.795C175.462 275.289 170.77 275.607 169.861 275.183C169.861 275.183 179.62 272.675 181.89 271.421C184.16 270.166 190.294 262.647 190.406 258.202C190.517 253.756 190.517 249.999 190.517 249.999L190.177 244.188L191.878 244.246C191.884 244.564 191.896 244.882 191.901 245.194C192.019 249.599 192.101 253.503 192.259 255.811C192.717 262.341 193.321 268.27 194.077 270.702Z" fill="#D0D0D0"/>
<mask id="mask1_3613_5809" style="mask-type:luminance" maskUnits="userSpaceOnUse" x="154" y="226" width="31" height="38">
<path fill-rule="evenodd" clip-rule="evenodd" d="M165.387 226.577C160.461 227.321 156.579 229.554 155.534 233.275C154.489 236.996 154.302 259.656 154.302 260.102C154.302 260.996 159.696 263.4 168.971 263.228C178.084 263.061 184.088 260.549 184.088 260.549C184.088 260.549 185.842 232.828 183.453 229.405C181.776 227.002 175.981 226.213 170.971 226.213C168.844 226.213 166.856 226.355 165.387 226.577Z" fill="white"/>
</mask>
<g mask="url(#mask1_3613_5809)">
<path fill-rule="evenodd" clip-rule="evenodd" d="M185.146 236.059C184.752 232.982 183.826 229.897 181.387 227.833C178.312 225.233 173.926 224.644 170.059 224.381C165.913 224.098 161.184 223.635 157.863 226.656C156.24 228.133 154.839 230.106 153.55 231.876C152.187 233.75 150.961 235.867 150.898 238.248C150.894 238.395 150.947 238.506 151.027 238.587C150.876 240.992 150.996 243.395 151.085 245.803C151.172 248.176 151.243 250.451 151.849 252.766C152.351 254.684 153.068 256.577 154.198 258.213C155.385 259.931 156.916 261.369 158.519 262.687C160.188 264.059 161.932 265.384 163.695 266.632C165.129 267.648 166.738 268.507 168.546 268.35C170.709 268.163 172.857 266.697 174.643 265.559C176.603 264.31 178.476 262.896 180.166 261.294C183.302 258.322 184.586 254.372 185.235 250.182C185.951 245.571 185.738 240.678 185.146 236.059Z" fill="#FFC6AD"/>
</g>
<mask id="mask2_3613_5809" style="mask-type:luminance" maskUnits="userSpaceOnUse" x="154" y="226" width="31" height="38">
<path fill-rule="evenodd" clip-rule="evenodd" d="M165.387 226.577C160.461 227.321 156.579 229.554 155.534 233.275C154.489 236.996 154.302 259.656 154.302 260.102C154.302 260.996 159.696 263.4 168.971 263.228C178.084 263.061 184.088 260.549 184.088 260.549C184.088 260.549 185.842 232.828 183.453 229.405C181.776 227.002 175.981 226.213 170.971 226.213C168.844 226.213 166.856 226.355 165.387 226.577Z" fill="white"/>
</mask>
<g mask="url(#mask2_3613_5809)">
<path fill-rule="evenodd" clip-rule="evenodd" d="M169.063 249.177C168.983 248.711 169.056 248.219 169.041 247.751C169.026 247.248 168.834 246.686 169.001 246.194C169.064 246.01 168.783 245.939 168.714 246.115C168.515 246.63 168.686 247.217 168.674 247.751C168.662 248.348 168.515 248.958 168.692 249.545C168.733 249.678 168.89 249.752 169.013 249.676C169.639 249.294 170.965 249.775 170.856 250.636C170.807 251.017 170.469 251.317 170.173 251.523C170.014 251.635 169.844 251.733 169.67 251.818C169.513 251.895 169.329 251.936 169.212 252.073C169.113 252.188 169.132 252.416 169.31 252.448C169.766 252.529 170.368 252.049 170.692 251.77C171.078 251.44 171.402 250.969 171.341 250.437C171.23 249.446 169.962 248.859 169.063 249.177Z" fill="#C17E67"/>
</g>
<mask id="mask3_3613_5809" style="mask-type:luminance" maskUnits="userSpaceOnUse" x="154" y="226" width="31" height="38">
<path fill-rule="evenodd" clip-rule="evenodd" d="M165.387 226.577C160.461 227.321 156.579 229.554 155.534 233.275C154.489 236.996 154.302 259.656 154.302 260.102C154.302 260.996 159.696 263.4 168.971 263.228C178.084 263.061 184.088 260.549 184.088 260.549C184.088 260.549 185.842 232.828 183.453 229.405C181.776 227.002 175.981 226.213 170.971 226.213C168.844 226.213 166.856 226.355 165.387 226.577Z" fill="white"/>
</mask>
<g mask="url(#mask3_3613_5809)">
<path fill-rule="evenodd" clip-rule="evenodd" d="M173.389 257.677C173.005 257.821 172.667 258.057 172.28 258.2C171.873 258.35 171.444 258.461 171.02 258.552C170.135 258.74 169.232 258.735 168.334 258.671C167.596 258.619 166.853 258.556 166.125 258.421C165.378 258.283 164.562 258.116 163.965 257.617C163.796 257.476 163.551 257.714 163.719 257.864C164.919 258.931 166.636 259.056 168.158 259.205C169.138 259.301 170.125 259.34 171.103 259.186C171.92 259.056 173.091 258.804 173.661 258.145C173.826 257.954 173.672 257.57 173.389 257.677Z" fill="#FF6969"/>
</g>
<mask id="mask4_3613_5809" style="mask-type:luminance" maskUnits="userSpaceOnUse" x="154" y="226" width="31" height="38">
<path fill-rule="evenodd" clip-rule="evenodd" d="M165.387 226.577C160.461 227.321 156.579 229.554 155.534 233.275C154.489 236.996 154.302 259.656 154.302 260.102C154.302 260.996 159.696 263.4 168.971 263.228C178.084 263.061 184.088 260.549 184.088 260.549C184.088 260.549 185.842 232.828 183.453 229.405C181.776 227.002 175.981 226.213 170.971 226.213C168.844 226.213 166.856 226.355 165.387 226.577Z" fill="white"/>
</mask>
<g mask="url(#mask4_3613_5809)">
<path fill-rule="evenodd" clip-rule="evenodd" d="M176.319 242.479C176.316 242.178 176.269 241.729 175.87 241.729C175.474 241.729 175.421 242.178 175.432 242.479C175.44 242.704 175.45 242.929 175.461 243.154C175.472 243.402 175.491 243.642 175.531 243.886C175.57 244.123 175.572 244.406 175.763 244.572C175.859 244.656 175.982 244.657 176.078 244.572C176.275 244.4 176.27 244.098 176.299 243.853C176.327 243.617 176.331 243.392 176.327 243.154C176.324 242.929 176.32 242.704 176.319 242.479Z" fill="#00143B"/>
</g>
<mask id="mask5_3613_5809" style="mask-type:luminance" maskUnits="userSpaceOnUse" x="154" y="226" width="31" height="38">
<path fill-rule="evenodd" clip-rule="evenodd" d="M165.387 226.577C160.461 227.321 156.579 229.554 155.534 233.275C154.489 236.996 154.302 259.656 154.302 260.102C154.302 260.996 159.696 263.4 168.971 263.228C178.084 263.061 184.088 260.549 184.088 260.549C184.088 260.549 185.842 232.828 183.453 229.405C181.776 227.002 175.981 226.213 170.971 226.213C168.844 226.213 166.856 226.355 165.387 226.577Z" fill="white"/>
</mask>
<g mask="url(#mask5_3613_5809)">
<path fill-rule="evenodd" clip-rule="evenodd" d="M178.444 238.528C178.068 238.323 177.596 238.299 177.174 238.259C176.702 238.214 176.226 238.206 175.754 238.239C174.865 238.3 173.919 238.498 173.198 239.054C172.976 239.224 173.164 239.585 173.423 239.441C174.158 239.033 174.996 238.857 175.829 238.807C176.253 238.782 176.678 238.79 177.101 238.826C177.508 238.86 177.921 238.984 178.326 238.969C178.55 238.961 178.659 238.644 178.444 238.528Z" fill="#00143B"/>
</g>
<mask id="mask6_3613_5809" style="mask-type:luminance" maskUnits="userSpaceOnUse" x="154" y="226" width="31" height="38">
<path fill-rule="evenodd" clip-rule="evenodd" d="M165.387 226.577C160.461 227.321 156.579 229.554 155.534 233.275C154.489 236.996 154.302 259.656 154.302 260.102C154.302 260.996 159.696 263.4 168.971 263.228C178.084 263.061 184.088 260.549 184.088 260.549C184.088 260.549 185.842 232.828 183.453 229.405C181.776 227.002 175.981 226.213 170.971 226.213C168.844 226.213 166.856 226.355 165.387 226.577Z" fill="white"/>
</mask>
<g mask="url(#mask6_3613_5809)">
<path fill-rule="evenodd" clip-rule="evenodd" d="M161.626 242.479C161.628 242.178 161.676 241.729 162.074 241.729C162.47 241.729 162.523 242.178 162.512 242.479C162.504 242.704 162.494 242.929 162.483 243.154C162.472 243.402 162.454 243.642 162.413 243.886C162.375 244.123 162.372 244.406 162.181 244.572C162.086 244.656 161.963 244.657 161.866 244.572C161.669 244.4 161.674 244.098 161.645 243.853C161.617 243.617 161.613 243.392 161.617 243.154C161.62 242.929 161.624 242.704 161.626 242.479Z" fill="#00143B"/>
</g>
<mask id="mask7_3613_5809" style="mask-type:luminance" maskUnits="userSpaceOnUse" x="154" y="226" width="31" height="38">
<path fill-rule="evenodd" clip-rule="evenodd" d="M165.387 226.577C160.461 227.321 156.579 229.554 155.534 233.275C154.489 236.996 154.302 259.656 154.302 260.102C154.302 260.996 159.696 263.4 168.971 263.228C178.084 263.061 184.088 260.549 184.088 260.549C184.088 260.549 185.842 232.828 183.453 229.405C181.776 227.002 175.981 226.213 170.971 226.213C168.844 226.213 166.856 226.355 165.387 226.577Z" fill="white"/>
</mask>
<g mask="url(#mask7_3613_5809)">
<path fill-rule="evenodd" clip-rule="evenodd" d="M159.5 238.528C159.876 238.323 160.348 238.299 160.77 238.259C161.242 238.214 161.718 238.206 162.19 238.239C163.079 238.3 164.026 238.498 164.746 239.054C164.968 239.224 164.781 239.585 164.522 239.441C163.786 239.033 162.948 238.857 162.115 238.807C161.691 238.782 161.266 238.79 160.843 238.826C160.436 238.86 160.023 238.984 159.619 238.969C159.394 238.961 159.286 238.644 159.5 238.528Z" fill="#00143B"/>
</g>
<mask id="mask8_3613_5809" style="mask-type:luminance" maskUnits="userSpaceOnUse" x="154" y="226" width="31" height="38">
<path fill-rule="evenodd" clip-rule="evenodd" d="M165.387 226.577C160.461 227.321 156.579 229.554 155.534 233.275C154.489 236.996 154.302 259.656 154.302 260.102C154.302 260.996 159.696 263.4 168.971 263.228C178.084 263.061 184.088 260.549 184.088 260.549C184.088 260.549 185.842 232.828 183.453 229.405C181.776 227.002 175.981 226.213 170.971 226.213C168.844 226.213 166.856 226.355 165.387 226.577Z" fill="white"/>
</mask>
<g mask="url(#mask8_3613_5809)">
<path fill-rule="evenodd" clip-rule="evenodd" d="M186.1 234.429C186.1 234.429 173.228 231.303 165.273 231.747C161.241 231.978 158.331 232.86 156.445 233.679C155.763 233.974 155.219 234.262 154.797 234.51C154.085 234.919 153.743 235.208 153.743 235.208C153.743 235.208 152.175 231.194 152.401 228.177C152.621 225.161 156.092 221.481 159.228 219.803C160.686 219.024 164.909 219.238 169.48 219.941C173.026 220.489 176.786 221.337 179.627 222.254H179.632C180.998 222.698 182.149 223.154 182.965 223.598C185.157 224.798 185.985 227.231 186.245 229.487C186.314 230.068 186.343 230.64 186.35 231.176C186.366 233.016 186.1 234.429 186.1 234.429Z" fill="#F5BB40"/>
</g>
<mask id="mask9_3613_5809" style="mask-type:luminance" maskUnits="userSpaceOnUse" x="154" y="226" width="31" height="38">
<path fill-rule="evenodd" clip-rule="evenodd" d="M165.387 226.577C160.461 227.321 156.579 229.554 155.534 233.275C154.489 236.996 154.302 259.656 154.302 260.102C154.302 260.996 159.696 263.4 168.971 263.228C178.084 263.061 184.088 260.549 184.088 260.549C184.088 260.549 185.842 232.828 183.453 229.405C181.776 227.002 175.981 226.213 170.971 226.213C168.844 226.213 166.856 226.355 165.387 226.577Z" fill="white"/>
</mask>
<g mask="url(#mask9_3613_5809)">
<path fill-rule="evenodd" clip-rule="evenodd" d="M186.349 231.176L184.943 232.081C184.943 232.081 181.663 230.518 179.124 229.256C176.584 227.992 172.181 227.768 172.181 227.768C172.181 227.768 164.643 228.211 162.028 229.331C160.038 230.179 157.538 232.578 156.445 233.679C155.763 233.974 155.218 234.262 154.797 234.509C153.679 234.406 153.969 232.681 153.969 232.681L154.415 226.28L158.893 220.327L169.48 219.941C173.026 220.489 176.786 221.337 179.627 222.254H179.633L186.245 229.486C186.314 230.068 186.343 230.639 186.349 231.176Z" fill="#D5A237"/>
</g>
<mask id="mask10_3613_5809" style="mask-type:luminance" maskUnits="userSpaceOnUse" x="154" y="226" width="31" height="38">
<path fill-rule="evenodd" clip-rule="evenodd" d="M165.387 226.577C160.461 227.321 156.579 229.554 155.534 233.275C154.489 236.996 154.302 259.656 154.302 260.102C154.302 260.996 159.696 263.4 168.971 263.228C178.084 263.061 184.088 260.549 184.088 260.549C184.088 260.549 185.842 232.828 183.453 229.405C181.776 227.002 175.981 226.213 170.971 226.213C168.844 226.213 166.856 226.355 165.387 226.577Z" fill="white"/>
</mask>
<g mask="url(#mask10_3613_5809)">
<path fill-rule="evenodd" clip-rule="evenodd" d="M184.423 260.734C183.884 261.894 182.004 263.56 179.4 264.984C175.479 267.141 169.901 268.756 164.793 267.286C156.282 264.829 154.565 263.635 153.593 260.215C153.072 258.381 153.176 255.93 153.379 254.049C153.425 253.623 153.477 253.23 153.529 252.879C153.674 251.87 153.819 251.212 153.819 251.212C153.819 251.212 154.425 251.258 155.368 251.293C157.55 251.368 161.525 251.374 163.821 250.537C165.719 249.851 167.211 249.02 168.698 248.766C168.802 248.749 168.907 248.732 169.01 248.726C169.074 248.714 169.132 248.709 169.19 248.709C169.624 248.668 170.058 248.691 170.509 248.784C170.642 248.812 170.775 248.848 170.913 248.894C170.989 248.91 171.058 248.933 171.133 248.963C171.446 249.072 171.77 249.228 172.106 249.424C175.015 251.137 178.527 251.806 180.691 251.656C182.855 251.506 184.943 250.762 184.943 250.762C184.943 250.762 185.764 257.833 184.423 260.734Z" fill="#58BAD3"/>
</g>
<mask id="mask11_3613_5809" style="mask-type:luminance" maskUnits="userSpaceOnUse" x="154" y="226" width="31" height="38">
<path fill-rule="evenodd" clip-rule="evenodd" d="M165.387 226.577C160.461 227.321 156.579 229.554 155.534 233.275C154.489 236.996 154.302 259.656 154.302 260.102C154.302 260.996 159.696 263.4 168.971 263.228C178.084 263.061 184.088 260.549 184.088 260.549C184.088 260.549 185.842 232.828 183.453 229.405C181.776 227.002 175.981 226.213 170.971 226.213C168.844 226.213 166.856 226.355 165.387 226.577Z" fill="white"/>
</mask>
<g mask="url(#mask11_3613_5809)">
<path fill-rule="evenodd" clip-rule="evenodd" d="M184.943 250.764C184.943 250.764 182.855 251.507 180.691 251.657C178.527 251.807 175.016 251.138 172.106 249.425C170.874 248.699 169.786 248.578 168.698 248.767C167.212 249.021 165.719 249.852 163.821 250.538C161.525 251.375 157.55 251.369 155.369 251.294L153.529 252.88C153.477 253.231 153.426 253.624 153.379 254.05L154.64 254.299C154.64 254.299 159.679 254.189 162.138 253.52C164.012 253.007 167.316 250.815 168.982 249.696C168.982 249.696 168.982 249.695 168.983 249.695C169.21 250.077 169.509 250.63 169.717 251.213C170.093 252.251 170.312 254.189 170.388 255.227C170.463 256.271 170.464 257.09 170.464 257.09C170.464 257.09 171.736 254.039 172.407 253.889C173.078 253.739 174.345 253.664 175.317 254.039C176.289 254.408 178.377 254.783 178.377 254.783L181.513 255.752L182.704 259.322C182.704 259.322 180.02 260.96 178.302 262.073C176.584 263.192 172.927 265.124 172.927 265.124L179.401 264.986C182.004 263.561 183.885 261.895 184.423 260.735C185.765 257.834 184.943 250.764 184.943 250.764Z" fill="#0099B8"/>
</g>
<mask id="mask12_3613_5809" style="mask-type:luminance" maskUnits="userSpaceOnUse" x="154" y="226" width="31" height="38">
<path fill-rule="evenodd" clip-rule="evenodd" d="M165.387 226.577C160.461 227.321 156.579 229.554 155.534 233.275C154.489 236.996 154.302 259.656 154.302 260.102C154.302 260.996 159.696 263.4 168.971 263.228C178.084 263.061 184.088 260.549 184.088 260.549C184.088 260.549 185.842 232.828 183.453 229.405C181.776 227.002 175.981 226.213 170.971 226.213C168.844 226.213 166.856 226.355 165.387 226.577Z" fill="white"/>
</mask>
<g mask="url(#mask12_3613_5809)">
<path fill-rule="evenodd" clip-rule="evenodd" d="M160.312 256.271C160.422 256.077 163.372 255.825 164.492 255.675C165.611 255.527 167.552 254.484 167.328 255.154C167.104 255.825 165.686 256.42 165.686 256.42C165.686 256.42 163.372 256.717 162.178 256.866C160.983 257.015 160.012 256.791 160.312 256.271Z" fill="#85E4E0"/>
</g>
<mask id="mask13_3613_5809" style="mask-type:luminance" maskUnits="userSpaceOnUse" x="154" y="226" width="31" height="38">
<path fill-rule="evenodd" clip-rule="evenodd" d="M165.387 226.577C160.461 227.321 156.579 229.554 155.534 233.275C154.489 236.996 154.302 259.656 154.302 260.102C154.302 260.996 159.696 263.4 168.971 263.228C178.084 263.061 184.088 260.549 184.088 260.549C184.088 260.549 185.842 232.828 183.453 229.405C181.776 227.002 175.981 226.213 170.971 226.213C168.844 226.213 166.856 226.355 165.387 226.577Z" fill="white"/>
</mask>
<g mask="url(#mask13_3613_5809)">
<path fill-rule="evenodd" clip-rule="evenodd" d="M159.789 258.28C159.946 258.061 162.7 258.503 163.521 258.354C164.343 258.205 166.284 257.759 165.463 258.429C164.641 259.098 162.327 259.024 162.327 259.024C162.327 259.024 159.043 259.322 159.789 258.28Z" fill="#85E4E0"/>
</g>
<path fill-rule="evenodd" clip-rule="evenodd" d="M192.369 241.76V244.281C192.369 244.794 191.94 245.213 191.416 245.213H185.763V240.828H191.416C191.94 240.828 192.369 241.243 192.369 241.76Z" fill="#00CCB2"/>
<path fill-rule="evenodd" clip-rule="evenodd" d="M189.028 245.213H185.763V240.828H188.057C188.392 242.1 188.816 243.844 189.028 245.213Z" fill="#00A48F"/>
<path fill-rule="evenodd" clip-rule="evenodd" d="M144.544 241.76V244.281C144.544 244.794 144.973 245.213 145.497 245.213H151.15V240.828H145.497C144.973 240.828 144.544 241.243 144.544 241.76Z" fill="#00CCB2"/>
<path fill-rule="evenodd" clip-rule="evenodd" d="M147.886 245.213H151.151V240.828H148.857C148.522 242.1 148.098 243.844 147.886 245.213Z" fill="#00A48F"/>
<path fill-rule="evenodd" clip-rule="evenodd" d="M151.225 249.221L151.756 236.226C151.756 236.226 158.512 234.815 163.218 234.89C167.924 234.964 183.789 235.855 184.852 236.152C185.915 236.449 186.067 242.092 186.067 243.429C186.067 244.766 185.594 248.805 184.16 249.533C182.727 250.261 177.11 250.483 175.06 250.186C173.01 249.889 169.822 247.513 168.076 248.033C166.33 248.553 162.383 249.964 160.257 250.558C158.132 251.151 151.68 251.003 151.225 249.221Z" fill="white"/>
<path fill-rule="evenodd" clip-rule="evenodd" d="M158.462 234.336C157.137 234.336 156.161 234.347 155.703 234.37C152.742 234.518 151.073 235.26 150.465 236.449C149.858 237.636 150.465 249.146 150.465 249.146C150.693 251.077 152.135 251.671 155.855 251.671C159.575 251.671 163.066 250.705 166.406 249.294C167.301 248.916 167.952 248.762 168.489 248.762C169.956 248.762 170.586 249.91 173.086 250.78C174.361 251.223 176.184 251.439 178.05 251.439C181.183 251.439 184.432 250.83 185.384 249.666C186.901 247.81 187.205 242.092 186.598 238.157C186.157 235.299 185.156 234.907 184.641 234.907C184.446 234.907 184.321 234.964 184.321 234.964C183.358 234.65 165.695 234.336 158.462 234.336ZM158.464 236.063C166.589 236.063 182.138 236.384 183.854 236.631L184.42 236.816L184.428 236.813C184.555 237.082 184.723 237.572 184.852 238.415C185.51 242.672 184.926 247.462 184.008 248.585C183.664 248.966 181.499 249.713 178.05 249.713C176.293 249.713 174.7 249.509 173.677 249.153C172.705 248.815 172.087 248.439 171.489 248.075C170.652 247.564 169.785 247.036 168.489 247.036C167.679 247.036 166.795 247.25 165.706 247.71C162.147 249.214 158.924 249.945 155.855 249.945C155.253 249.945 153.422 249.945 152.597 249.569C152.396 249.477 152.282 249.425 152.225 248.997C151.97 244.134 151.851 238.342 152.09 237.145C152.406 236.698 153.522 236.208 155.794 236.094C156.077 236.079 156.771 236.063 158.463 236.063H158.464Z" fill="#00CCB2"/>
<path fill-rule="evenodd" clip-rule="evenodd" d="M142.419 270.234C142.419 270.234 162.155 282.115 193.733 271.868C193.733 271.868 188.724 276.62 168.076 277.511C168.076 277.511 150.769 277.511 142.419 270.234Z" fill="#00CCB2"/>
</g>
<path d="M25.6121 47.3242V30.4753H33.3626C34.5822 30.4753 35.6092 30.6438 36.4436 30.9807C37.294 31.3177 37.9359 31.7911 38.3692 32.4009C38.8185 33.0106 39.0431 33.7247 39.0431 34.5431C39.0431 35.554 38.8105 36.3885 38.3451 37.0464C37.8958 37.7043 37.2299 38.1456 36.3473 38.3702L36.2751 37.9129C37.0132 38.0894 37.6551 38.3782 38.2007 38.7794C38.7463 39.1645 39.1715 39.6379 39.4764 40.1995C39.7813 40.7612 39.9337 41.403 39.9337 42.1251C39.9337 43.0077 39.7732 43.7779 39.4523 44.4358C39.1314 45.0777 38.6741 45.6153 38.0803 46.0485C37.5027 46.4818 36.8287 46.8027 36.0585 47.0113C35.3043 47.2199 34.4859 47.3242 33.6033 47.3242H25.6121ZM30.4261 43.2323H33.4589C33.7638 43.2323 34.0205 43.1842 34.2291 43.0879C34.4378 42.9756 34.5982 42.8151 34.7105 42.6065C34.8229 42.3819 34.879 42.1171 34.879 41.8122C34.879 41.5394 34.8148 41.3148 34.6865 41.1383C34.5741 40.9457 34.4057 40.8013 34.181 40.705C33.9564 40.5927 33.6755 40.5365 33.3386 40.5365H30.4261V43.2323ZM30.4261 37.0704H32.472C32.8411 37.0704 33.138 37.0223 33.3626 36.926C33.6033 36.8297 33.7718 36.6933 33.8681 36.5168C33.9804 36.3243 34.0366 36.0916 34.0366 35.8188C34.0366 35.4497 33.9082 35.1529 33.6515 34.9282C33.4108 34.6875 33.0016 34.5672 32.4239 34.5672H30.4261V37.0704ZM49.238 47.5649C47.842 47.5649 46.5984 47.2761 45.5072 46.6984C44.416 46.1207 43.5575 45.3344 42.9317 44.3395C42.3059 43.3286 41.993 42.1733 41.993 40.8735C41.993 39.5737 42.3059 38.4264 42.9317 37.4315C43.5575 36.4205 44.416 35.6262 45.5072 35.0486C46.5984 34.4709 47.842 34.182 49.238 34.182C50.6341 34.182 51.8697 34.4709 52.9448 35.0486C54.036 35.6262 54.8864 36.4205 55.4962 37.4315C56.122 38.4264 56.4349 39.5737 56.4349 40.8735C56.4349 42.1733 56.122 43.3286 55.4962 44.3395C54.8864 45.3344 54.036 46.1207 52.9448 46.6984C51.8697 47.2761 50.6341 47.5649 49.238 47.5649ZM49.238 43.473C49.6713 43.473 50.0564 43.3607 50.3934 43.1361C50.7464 42.9114 51.0192 42.6065 51.2118 42.2214C51.4043 41.8202 51.5006 41.3709 51.5006 40.8735C51.5006 40.36 51.4043 39.9107 51.2118 39.5256C51.0192 39.1244 50.7464 38.8115 50.3934 38.5868C50.0564 38.3622 49.6713 38.2499 49.238 38.2499C48.7887 38.2499 48.3875 38.3622 48.0345 38.5868C47.6975 38.8115 47.4248 39.1244 47.2161 39.5256C47.0236 39.9107 46.9273 40.36 46.9273 40.8735C46.9273 41.3709 47.0236 41.8202 47.2161 42.2214C47.4248 42.6065 47.6975 42.9114 48.0345 43.1361C48.3875 43.3607 48.7887 43.473 49.238 43.473ZM65.5296 47.5649C64.1335 47.5649 62.8899 47.2761 61.7987 46.6984C60.7075 46.1207 59.8491 45.3344 59.2232 44.3395C58.5974 43.3286 58.2845 42.1733 58.2845 40.8735C58.2845 39.5737 58.5974 38.4264 59.2232 37.4315C59.8491 36.4205 60.7075 35.6262 61.7987 35.0486C62.8899 34.4709 64.1335 34.182 65.5296 34.182C66.9256 34.182 68.1612 34.4709 69.2363 35.0486C70.3275 35.6262 71.178 36.4205 71.7877 37.4315C72.4136 38.4264 72.7265 39.5737 72.7265 40.8735C72.7265 42.1733 72.4136 43.3286 71.7877 44.3395C71.178 45.3344 70.3275 46.1207 69.2363 46.6984C68.1612 47.2761 66.9256 47.5649 65.5296 47.5649ZM65.5296 43.473C65.9628 43.473 66.3479 43.3607 66.6849 43.1361C67.0379 42.9114 67.3107 42.6065 67.5033 42.2214C67.6958 41.8202 67.7921 41.3709 67.7921 40.8735C67.7921 40.36 67.6958 39.9107 67.5033 39.5256C67.3107 39.1244 67.0379 38.8115 66.6849 38.5868C66.3479 38.3622 65.9628 38.2499 65.5296 38.2499C65.0802 38.2499 64.6791 38.3622 64.3261 38.5868C63.9891 38.8115 63.7163 39.1244 63.5077 39.5256C63.3151 39.9107 63.2188 40.36 63.2188 40.8735C63.2188 41.3709 63.3151 41.8202 63.5077 42.2214C63.7163 42.6065 63.9891 42.9114 64.3261 43.1361C64.6791 43.3607 65.0802 43.473 65.5296 43.473ZM80.3288 43.7137L77.9218 40.6809L83.867 34.4468H90.2215L80.3288 43.7137ZM75.5388 47.3242V29.5125H80.425V47.3242H75.5388ZM84.3003 47.3242L80.0158 41.2827L83.4338 38.8275L89.8845 47.3242H84.3003ZM102.086 52.8603L105.287 45.3023L105.336 47.2761L99.2941 34.4468H104.734L106.515 38.7313C106.708 39.1806 106.868 39.6058 106.996 40.007C107.141 40.4081 107.245 40.7852 107.309 41.1383L106.828 41.5715C106.892 41.395 106.988 41.1222 107.117 40.7531C107.245 40.368 107.39 39.9267 107.55 39.4293L109.235 34.4468H114.675L109.066 47.3242L106.804 52.8603H102.086ZM122.939 47.5649C121.543 47.5649 120.299 47.2761 119.208 46.6984C118.117 46.1207 117.258 45.3344 116.632 44.3395C116.007 43.3286 115.694 42.1733 115.694 40.8735C115.694 39.5737 116.007 38.4264 116.632 37.4315C117.258 36.4205 118.117 35.6262 119.208 35.0486C120.299 34.4709 121.543 34.182 122.939 34.182C124.335 34.182 125.57 34.4709 126.646 35.0486C127.737 35.6262 128.587 36.4205 129.197 37.4315C129.823 38.4264 130.136 39.5737 130.136 40.8735C130.136 42.1733 129.823 43.3286 129.197 44.3395C128.587 45.3344 127.737 46.1207 126.646 46.6984C125.57 47.2761 124.335 47.5649 122.939 47.5649ZM122.939 43.473C123.372 43.473 123.757 43.3607 124.094 43.1361C124.447 42.9114 124.72 42.6065 124.913 42.2214C125.105 41.8202 125.201 41.3709 125.201 40.8735C125.201 40.36 125.105 39.9107 124.913 39.5256C124.72 39.1244 124.447 38.8115 124.094 38.5868C123.757 38.3622 123.372 38.2499 122.939 38.2499C122.489 38.2499 122.088 38.3622 121.735 38.5868C121.398 38.8115 121.126 39.1244 120.917 39.5256C120.724 39.9107 120.628 40.36 120.628 40.8735C120.628 41.3709 120.724 41.8202 120.917 42.2214C121.126 42.6065 121.398 42.9114 121.735 43.1361C122.088 43.3607 122.489 43.473 122.939 43.473ZM137.257 47.589C136.278 47.589 135.451 47.3884 134.777 46.9872C134.103 46.5861 133.59 46.0004 133.237 45.2301C132.884 44.4439 132.707 43.4971 132.707 42.3899V34.4468H137.594V41.9807C137.594 42.3337 137.65 42.6306 137.762 42.8713C137.89 43.112 138.067 43.2965 138.292 43.4249C138.516 43.5533 138.789 43.6175 139.11 43.6175C139.351 43.6175 139.567 43.5854 139.76 43.5212C139.968 43.4409 140.145 43.3286 140.289 43.1842C140.434 43.0398 140.546 42.8793 140.626 42.7028C140.707 42.5102 140.747 42.3097 140.747 42.101V34.4468H145.633V47.3242H141.156L140.867 44.7247L141.782 44.4358C141.605 45.0456 141.292 45.5912 140.843 46.0726C140.41 46.5379 139.88 46.907 139.254 47.1798C138.629 47.4526 137.963 47.589 137.257 47.589ZM149.451 47.3242V34.4468H153.976L154.265 38.7313L153.182 38.0573C153.391 37.3192 153.72 36.6612 154.169 36.0836C154.618 35.4898 155.156 35.0245 155.782 34.6875C156.423 34.3505 157.105 34.182 157.827 34.182C158.116 34.182 158.389 34.2061 158.646 34.2543C158.903 34.2863 159.151 34.3345 159.392 34.3987L158.044 39.8144C157.884 39.7021 157.627 39.5978 157.274 39.5015C156.937 39.4052 156.568 39.3571 156.167 39.3571C155.878 39.3571 155.613 39.4052 155.372 39.5015C155.148 39.5817 154.955 39.7101 154.795 39.8866C154.65 40.0631 154.538 40.2717 154.458 40.5124C154.377 40.7531 154.337 41.0339 154.337 41.3549V47.3242H149.451ZM29.9688 77.5408C28.8936 77.5408 27.9389 77.26 27.1045 76.6984C26.27 76.1207 25.6121 75.3344 25.1307 74.3395C24.6493 73.3286 24.4086 72.1733 24.4086 70.8735C24.4086 69.5577 24.6413 68.4023 25.1066 67.4074C25.588 66.3965 26.246 65.6102 27.0804 65.0486C27.9309 64.4709 28.9097 64.182 30.0169 64.182C30.5946 64.182 31.1241 64.2623 31.6055 64.4227C32.0869 64.5832 32.5122 64.8079 32.8812 65.0967C33.2503 65.3855 33.5712 65.7225 33.844 66.1076C34.1168 66.4767 34.3495 66.8779 34.5421 67.3111L33.5552 67.2871V64.4468H38.3451V77.3242H33.4348V74.1711L34.518 74.2673C34.3575 74.7327 34.1329 75.1659 33.844 75.5671C33.5712 75.9683 33.2423 76.3133 32.8572 76.6021C32.472 76.891 32.0388 77.1236 31.5574 77.3001C31.076 77.4606 30.5464 77.5408 29.9688 77.5408ZM31.3648 73.5693C31.8302 73.5693 32.2233 73.465 32.5443 73.2564C32.8812 73.0478 33.13 72.7429 33.2904 72.3417C33.4669 71.9406 33.5552 71.4512 33.5552 70.8735C33.5552 70.2958 33.4669 69.8064 33.2904 69.4052C33.13 68.988 32.8812 68.6751 32.5443 68.4665C32.2233 68.2579 31.8302 68.1536 31.3648 68.1536C30.8995 68.1536 30.5063 68.2579 30.1854 68.4665C29.8645 68.6751 29.6157 68.988 29.4392 69.4052C29.2788 69.8064 29.1985 70.2958 29.1985 70.8735C29.1985 71.4512 29.2788 71.9406 29.4392 72.3417C29.6157 72.7429 29.8645 73.0478 30.1854 73.2564C30.5063 73.465 30.8995 73.5693 31.3648 73.5693ZM42.1096 82.6196V64.4468H46.6347L46.8995 67.2871L45.9126 67.0704C46.0249 66.5088 46.2977 66.0114 46.731 65.5781C47.1642 65.1448 47.7098 64.8079 48.3677 64.5672C49.0417 64.3104 49.7718 64.182 50.5581 64.182C51.6172 64.182 52.5559 64.4709 53.3743 65.0486C54.2087 65.6102 54.8586 66.3965 55.3239 67.4074C55.8053 68.4023 56.046 69.5577 56.046 70.8735C56.046 72.1733 55.8053 73.3286 55.3239 74.3395C54.8425 75.3344 54.1766 76.1207 53.3261 76.6984C52.4917 77.26 51.5289 77.5408 50.4378 77.5408C49.7157 77.5408 49.0337 77.4125 48.3918 77.1557C47.766 76.899 47.2365 76.546 46.8032 76.0967C46.3699 75.6313 46.0811 75.1018 45.9367 74.508L47.0198 74.1711V82.6196H42.1096ZM49.0898 73.5693C49.5552 73.5693 49.9483 73.465 50.2693 73.2564C50.5902 73.0478 50.8309 72.7429 50.9914 72.3417C51.1679 71.9406 51.2561 71.4512 51.2561 70.8735C51.2561 70.2958 51.1679 69.8064 50.9914 69.4052C50.8309 68.988 50.5902 68.6751 50.2693 68.4665C49.9483 68.2579 49.5552 68.1536 49.0898 68.1536C48.6245 68.1536 48.2233 68.2579 47.8863 68.4665C47.5654 68.6751 47.3167 68.988 47.1402 69.4052C46.9797 69.8064 46.8995 70.2958 46.8995 70.8735C46.8995 71.4512 46.9797 71.9406 47.1402 72.3417C47.3167 72.7429 47.5654 73.0478 47.8863 73.2564C48.2233 73.465 48.6245 73.5693 49.0898 73.5693ZM58.8477 82.6196V64.4468H63.3729L63.6376 67.2871L62.6508 67.0704C62.7631 66.5088 63.0359 66.0114 63.4691 65.5781C63.9024 65.1448 64.448 64.8079 65.1059 64.5672C65.7798 64.3104 66.51 64.182 67.2962 64.182C68.3553 64.182 69.2941 64.4709 70.1124 65.0486C70.9469 65.6102 71.5967 66.3965 72.0621 67.4074C72.5435 68.4023 72.7842 69.5577 72.7842 70.8735C72.7842 72.1733 72.5435 73.3286 72.0621 74.3395C71.5807 75.3344 70.9148 76.1207 70.0643 76.6984C69.2299 77.26 68.2671 77.5408 67.1759 77.5408C66.4538 77.5408 65.7718 77.4125 65.13 77.1557C64.5041 76.899 63.9746 76.546 63.5413 76.0967C63.1081 75.6313 62.8192 75.1018 62.6748 74.508L63.758 74.1711V82.6196H58.8477ZM65.828 73.5693C66.2933 73.5693 66.6865 73.465 67.0074 73.2564C67.3283 73.0478 67.569 72.7429 67.7295 72.3417C67.906 71.9406 67.9943 71.4512 67.9943 70.8735C67.9943 70.2958 67.906 69.8064 67.7295 69.4052C67.569 68.988 67.3283 68.6751 67.0074 68.4665C66.6865 68.2579 66.2933 68.1536 65.828 68.1536C65.3626 68.1536 64.9615 68.2579 64.6245 68.4665C64.3036 68.6751 64.0548 68.988 63.8783 69.4052C63.7179 69.8064 63.6376 70.2958 63.6376 70.8735C63.6376 71.4512 63.7179 71.9406 63.8783 72.3417C64.0548 72.7429 64.3036 73.0478 64.6245 73.2564C64.9615 73.465 65.3626 73.5693 65.828 73.5693ZM81.8681 77.5649C80.472 77.5649 79.2284 77.2761 78.1373 76.6984C77.0461 76.1207 76.1876 75.3344 75.5618 74.3395C74.936 73.3286 74.6231 72.1733 74.6231 70.8735C74.6231 69.5737 74.936 68.4264 75.5618 67.4315C76.1876 66.4205 77.0461 65.6262 78.1373 65.0486C79.2284 64.4709 80.472 64.182 81.8681 64.182C83.2642 64.182 84.4997 64.4709 85.5749 65.0486C86.666 65.6262 87.5165 66.4205 88.1263 67.4315C88.7521 68.4264 89.065 69.5737 89.065 70.8735C89.065 72.1733 88.7521 73.3286 88.1263 74.3395C87.5165 75.3344 86.666 76.1207 85.5749 76.6984C84.4997 77.2761 83.2642 77.5649 81.8681 77.5649ZM81.8681 73.473C82.3014 73.473 82.6865 73.3607 83.0235 73.1361C83.3765 72.9114 83.6493 72.6065 83.8418 72.2214C84.0344 71.8202 84.1307 71.3709 84.1307 70.8735C84.1307 70.36 84.0344 69.9107 83.8418 69.5256C83.6493 69.1244 83.3765 68.8115 83.0235 68.5868C82.6865 68.3622 82.3014 68.2499 81.8681 68.2499C81.4188 68.2499 81.0176 68.3622 80.6646 68.5868C80.3276 68.8115 80.0548 69.1244 79.8462 69.5256C79.6537 69.9107 79.5574 70.36 79.5574 70.8735C79.5574 71.3709 79.6537 71.8202 79.8462 72.2214C80.0548 72.6065 80.3276 72.9114 80.6646 73.1361C81.0176 73.3607 81.4188 73.473 81.8681 73.473ZM91.9496 77.3242V64.4468H96.8358V77.3242H91.9496ZM94.4047 62.112C93.5382 62.112 92.8562 61.9115 92.3588 61.5103C91.8774 61.1091 91.6367 60.5395 91.6367 59.8013C91.6367 59.1274 91.8854 58.5738 92.3829 58.1405C92.8803 57.7072 93.5543 57.4906 94.4047 57.4906C95.2712 57.4906 95.9452 57.6912 96.4266 58.0924C96.9241 58.4935 97.1728 59.0632 97.1728 59.8013C97.1728 60.4753 96.9241 61.0289 96.4266 61.4621C95.9292 61.8954 95.2552 62.112 94.4047 62.112ZM100.694 77.3242V64.4468H105.219L105.46 67.0464L104.425 67.3352C104.601 66.7254 104.914 66.1879 105.364 65.7225C105.829 65.2411 106.383 64.864 107.024 64.5912C107.666 64.3184 108.348 64.182 109.07 64.182C110.033 64.182 110.852 64.3826 111.526 64.7838C112.2 65.185 112.705 65.7787 113.042 66.565C113.395 67.3352 113.571 68.2739 113.571 69.3811V77.3242H108.685V69.7903C108.685 69.4373 108.629 69.1404 108.517 68.8997C108.404 68.659 108.236 68.4745 108.011 68.3461C107.787 68.2178 107.522 68.1536 107.217 68.1536C106.976 68.1536 106.752 68.1937 106.543 68.2739C106.351 68.3381 106.182 68.4424 106.038 68.5868C105.893 68.7313 105.781 68.8917 105.701 69.0682C105.62 69.2448 105.58 69.4453 105.58 69.67V77.3242H103.149C102.539 77.3242 102.026 77.3242 101.609 77.3242C101.208 77.3242 100.903 77.3242 100.694 77.3242ZM117.777 77.3242V61.1974H122.663V77.3242H117.777ZM115.779 68.5387V64.4468H124.781V68.5387H115.779ZM127.354 77.3242V64.4468H131.879L132.071 66.4687L131.518 66.2761C131.759 65.8589 132.031 65.5219 132.336 65.2652C132.657 64.9924 132.994 64.7758 133.347 64.6153C133.7 64.4548 134.061 64.3425 134.43 64.2783C134.799 64.2141 135.152 64.182 135.489 64.182C136.051 64.182 136.581 64.2623 137.078 64.4227C137.575 64.5672 138.025 64.8319 138.426 65.2171C138.827 65.6022 139.164 66.1558 139.437 66.8779L138.691 66.8538L138.883 66.5168C139.124 66.0996 139.413 65.7466 139.75 65.4578C140.087 65.1689 140.456 64.9282 140.857 64.7357C141.258 64.5431 141.667 64.4067 142.084 64.3265C142.502 64.2302 142.903 64.182 143.288 64.182C144.347 64.182 145.238 64.3826 145.96 64.7838C146.682 65.185 147.219 65.7787 147.572 66.565C147.942 67.3352 148.126 68.2739 148.126 69.3811V77.3242H143.24V69.7903C143.24 69.4373 143.184 69.1404 143.071 68.8997C142.959 68.659 142.791 68.4745 142.566 68.3461C142.357 68.2178 142.101 68.1536 141.796 68.1536C141.555 68.1536 141.33 68.1937 141.122 68.2739C140.929 68.3381 140.761 68.4424 140.616 68.5868C140.488 68.7313 140.384 68.8917 140.303 69.0682C140.223 69.2448 140.183 69.4453 140.183 69.67V77.3242H135.297V69.7903C135.297 69.4373 135.241 69.1404 135.128 68.8997C135.016 68.659 134.847 68.4745 134.623 68.3461C134.414 68.2178 134.157 68.1536 133.853 68.1536C133.612 68.1536 133.387 68.1937 133.179 68.2739C132.986 68.3381 132.818 68.4424 132.673 68.5868C132.545 68.7313 132.44 68.8917 132.36 69.0682C132.28 69.2448 132.24 69.4453 132.24 69.67V77.3242H127.354ZM157.895 77.5649C156.402 77.5649 155.119 77.2761 154.044 76.6984C152.969 76.1207 152.142 75.3344 151.564 74.3395C150.987 73.3286 150.698 72.1733 150.698 70.8735C150.698 69.9107 150.858 69.0201 151.179 68.2017C151.5 67.3833 151.95 66.6773 152.527 66.0836C153.121 65.4738 153.811 65.0084 154.597 64.6875C155.4 64.3505 156.274 64.182 157.221 64.182C158.168 64.182 159.026 64.3505 159.796 64.6875C160.583 65.0084 161.257 65.4738 161.818 66.0836C162.38 66.6773 162.805 67.3833 163.094 68.2017C163.399 69.0201 163.535 69.9107 163.503 70.8735L163.479 71.8844H153.394L152.84 69.5978H159.604L159.146 70.0792V69.6459C159.146 69.341 159.066 69.0763 158.906 68.8516C158.761 68.6109 158.553 68.4264 158.28 68.298C158.007 68.1696 157.686 68.1054 157.317 68.1054C156.852 68.1054 156.459 68.2017 156.138 68.3943C155.817 68.5868 155.568 68.8596 155.392 69.2127C155.231 69.5657 155.151 69.9909 155.151 70.4884C155.151 71.066 155.271 71.5715 155.512 72.0048C155.769 72.438 156.138 72.775 156.619 73.0157C157.117 73.2564 157.726 73.3768 158.448 73.3768C158.93 73.3768 159.339 73.3206 159.676 73.2083C160.029 73.0799 160.398 72.8793 160.783 72.6065L163.022 75.7597C162.428 76.225 161.842 76.5861 161.265 76.8428C160.703 77.0996 160.141 77.2841 159.58 77.3964C159.034 77.5088 158.472 77.5649 157.895 77.5649ZM166.166 77.3242V64.4468H170.691L170.932 67.0464L169.897 67.3352C170.073 66.7254 170.386 66.1879 170.835 65.7225C171.301 65.2411 171.854 64.864 172.496 64.5912C173.138 64.3184 173.82 64.182 174.542 64.182C175.505 64.182 176.323 64.3826 176.997 64.7838C177.671 65.185 178.177 65.7787 178.514 66.565C178.867 67.3352 179.043 68.2739 179.043 69.3811V77.3242H174.157V69.7903C174.157 69.4373 174.101 69.1404 173.989 68.8997C173.876 68.659 173.708 68.4745 173.483 68.3461C173.258 68.2178 172.994 68.1536 172.689 68.1536C172.448 68.1536 172.223 68.1937 172.015 68.2739C171.822 68.3381 171.654 68.4424 171.509 68.5868C171.365 68.7313 171.253 68.8917 171.172 69.0682C171.092 69.2448 171.052 69.4453 171.052 69.67V77.3242H168.621C168.011 77.3242 167.498 77.3242 167.08 77.3242C166.679 77.3242 166.374 77.3242 166.166 77.3242ZM183.249 77.3242V61.1974H188.135V77.3242H183.249ZM181.251 68.5387V64.4468H190.253V68.5387H181.251ZM197.7 77.5649C196.304 77.5649 195.085 77.3563 194.042 76.9391C193.015 76.5058 192.212 75.9683 191.635 75.3264L194.475 72.8954C194.988 73.3447 195.574 73.6816 196.232 73.9063C196.906 74.1149 197.468 74.2192 197.917 74.2192C198.077 74.2192 198.214 74.2112 198.326 74.1951C198.455 74.163 198.551 74.1229 198.615 74.0748C198.695 74.0106 198.751 73.9464 198.783 73.8822C198.832 73.818 198.856 73.7378 198.856 73.6415C198.856 73.4008 198.727 73.2243 198.471 73.112C198.326 73.0478 198.085 72.9676 197.748 72.8713C197.428 72.775 197.002 72.6627 196.473 72.5343C195.847 72.3738 195.269 72.1733 194.74 71.9326C194.226 71.6919 193.785 71.411 193.416 71.0901C193.031 70.7371 192.726 70.3359 192.501 69.8866C192.293 69.4373 192.188 68.9318 192.188 68.3702C192.188 67.7123 192.341 67.1266 192.646 66.6131C192.951 66.0996 193.368 65.6664 193.897 65.3133C194.427 64.9443 195.021 64.6634 195.678 64.4709C196.336 64.2783 197.01 64.182 197.7 64.182C198.487 64.182 199.217 64.2623 199.891 64.4227C200.581 64.5672 201.223 64.7838 201.816 65.0726C202.426 65.3454 202.98 65.6744 203.477 66.0595L200.998 68.8275C200.725 68.6029 200.404 68.3863 200.035 68.1777C199.682 67.969 199.305 67.8006 198.904 67.6722C198.519 67.5278 198.158 67.4556 197.821 67.4556C197.644 67.4556 197.492 67.4716 197.363 67.5037C197.251 67.5197 197.155 67.5599 197.075 67.624C196.994 67.6722 196.93 67.7364 196.882 67.8166C196.85 67.8808 196.834 67.961 196.834 68.0573C196.834 68.1857 196.874 68.306 196.954 68.4184C197.034 68.5307 197.163 68.627 197.339 68.7072C197.484 68.7714 197.724 68.8596 198.061 68.972C198.414 69.0843 198.928 69.2367 199.602 69.4293C200.324 69.6379 200.958 69.8786 201.503 70.1514C202.065 70.4242 202.514 70.7451 202.851 71.1142C203.076 71.3709 203.252 71.6598 203.381 71.9807C203.509 72.3016 203.573 72.6466 203.573 73.0157C203.573 73.8983 203.317 74.6846 202.803 75.3746C202.306 76.0485 201.616 76.5861 200.733 76.9872C199.851 77.3724 198.84 77.5649 197.7 77.5649Z" fill="white"/>
<defs>
<filter id="filter0_d_3613_5809" x="-45.9349" y="-29.4552" width="424.87" height="516.805" filterUnits="userSpaceOnUse" color-interpolation-filters="sRGB">
<feFlood flood-opacity="0" result="BackgroundImageFix"/>
<feColorMatrix in="SourceAlpha" type="matrix" values="0 0 0 0 0 0 0 0 0 0 0 0 0 0 0 0 0 0 127 0" result="hardAlpha"/>
<feOffset dy="22.3146"/>
<feGaussianBlur stdDeviation="25.8849"/>
<feColorMatrix type="matrix" values="0 0 0 0 0.243137 0 0 0 0 0.392157 0 0 0 0 1 0 0 0 0.3 0"/>
<feBlend mode="normal" in2="BackgroundImageFix" result="effect1_dropShadow_3613_5809"/>
<feBlend mode="normal" in="SourceGraphic" in2="effect1_dropShadow_3613_5809" result="shape"/>
</filter>
</defs>
</svg>
