<svg xmlns="http://www.w3.org/2000/svg" width="266" height="207" fill="none"><path fill="#00CCB2" fill-rule="evenodd" d="m22.649 142.47 4.404 5.264s-2.498.189-4.92.383c-.845.064-1.683.13-2.399.188-1.906.154-7.079-.871-10.135-1.525-.011-.005-.017-.005-.023-.005-1.384-.301-2.329-.524-2.329-.524s-1.56-1.885-2.862-3.499l-.715-.888c-.323-.407-.669-1.084-1.009-1.884-1.08-2.556-2.059-6.425-1.883-7.119.223-.913 9.701-21.14 16.24-32.616a74.407 74.407 0 0 1 1.936-3.208c5.026-7.897 9.42-11.459 9.42-11.459.034.3.064.606.087.924.61 8.38-2.803 23.524-5.595 34.146-1.812 6.919-3.36 11.935-3.36 11.935s-.012-.011-.024-.029c-.035-.041-.1-.111-.188-.218-.03-.041-.07-.082-.111-.129-.076-.082-.153-.182-.253-.289a10.195 10.195 0 0 0-.24-.282l-1.226 4.645 5.18 6.183.005.006Z" clip-rule="evenodd"/><path fill="#00A48F" fill-rule="evenodd" d="m24.53 97.041-1.665 23.608c-1.81 6.92-3.362 11.931-3.362 11.931a25.062 25.062 0 0 0-5.532-5.069c2.195-7.057 7.447-23.649 10.558-30.47Z" clip-rule="evenodd"/><path fill="#00DABE" fill-rule="evenodd" d="M28.373 85.574s-6.377 4.108-11.355 14.669a.115.115 0 0 1-.005.011c-2.698 4.737-5.895 10.959-8.736 16.7a369.584 369.584 0 0 1-3.587 6.263c.34-.552 1.3-2.117 2.58-4.217-3.576 7.294-6.372 13.369-6.492 13.86-.176.694.804 4.563 1.883 7.119.147.099.235.152.235.152s-1.214-6.153-1.062-7.365c.153-1.22 6.739-14.669 7.19-15.428.178-.298 1.761-3.477 3.621-7.232 2.947-4.922 5.766-9.732 6.61-11.492 1.439-3.016 4.896-7.751 8.089-11.01.008-.008.008-.017.008-.017.378-.382.748-.75 1.11-1.084a29.718 29.718 0 0 0-.089-.929Z" clip-rule="evenodd"/><path fill="#00A48F" fill-rule="evenodd" d="M27.053 147.733s-2.498.188-4.92.383c-2.311-.295-5.29-.654-6.223-.689-1.073-.047-4.059-.383-6.31-.648-.013-.006-.018-.006-.024-.006-1.384-.3-2.329-.524-2.329-.524s-1.56-1.884-2.862-3.498c.44.13 1.942.554 3.279.878 1.59.377 3.255.683 3.255.683s-2.346-1.825-2.804-2.662c-.451-.83-.832-2.885-.832-2.885l5.677.989s-2.575-3.574-3.484-4.333c-.903-.76-3.325-1.973-3.325-1.973l-1.367-.453s2.123-.23 2.956.07c.833.307 2.117.689 2.117.689l1.742-5.246s1.513 6.153 3.478 8.285c1.783 1.919 6.645 5.081 7.566 5.67l.006.006 4.404 5.264Z" clip-rule="evenodd"/><path fill="#00CCB2" fill-rule="evenodd" d="m73.407 221.017-35.07 2.257-3.104.196-23.876 1.54 1.303-23.022.048-.97.105-1.809 15.729-.359 42.324-.969 1.15 10.496 1.391 12.64Z" clip-rule="evenodd"/><path fill="#00A48F" fill-rule="evenodd" d="M72.016 208.377c-8.388-.179-33.679-1.662-33.679-1.662v16.559l-3.104.196.892-14.229c-1.125-.522-17.466-5.452-23.465-7.253-1.367-.416-2.196-.66-2.196-.66l2.244-.31 15.834-2.168 42.324-.969 1.15 10.496Z" clip-rule="evenodd"/><path fill="#00CCB2" fill-rule="evenodd" d="M81.61 82.894s-1.223 9.91-2.727 22.509c-1.753 14.75-3.891 33.192-4.906 43.737-.434 4.572-.707 11.116-.876 18.466-.24 10.709-.25 23.128-.177 33.632-7.438.294-24.905 1.036-33.043 1.688-8.58.692-24.053-.97-29.417-1.597 1.625-16.552 3.852-36.567 4.841-50.291.065-.945.145-1.914.234-2.9.056-.571.104-1.157.16-1.744.491-4.939 1.207-10.31 2.067-15.753 2.815-17.977 7.117-36.705 9.578-43.037.008-.008.008-.016.008-.016.394-1.002.74-1.695 1.021-2.013 2.01-2.257 8.179-5.06 11.508-6.462.008-.008.016-.008.016-.008a78.89 78.89 0 0 1 2.18-.888L69 76.113l12.61 6.781Z" clip-rule="evenodd"/><path fill="#00DABE" fill-rule="evenodd" d="M28.462 86.505c.756-.7 1.471-1.288 2.131-1.728 3.586-2.388 8.958-5.468 9.288-5.664-3.33 1.402-9.497 4.206-11.508 6.463-.28.318-.627 1.01-1.02 2.013.377-.383.747-.75 1.109-1.084Z" clip-rule="evenodd"/><path fill="#00A48F" fill-rule="evenodd" d="m60.596 115.964-13.695 22.452-22.774 5.823 2.926 3.495s-4.54.342-7.32.571c-.876.071-2.441-.108-4.175-.385-.006.072-.012.147-.02.218 5.227 1.898 16.478 5.867 20.201 6.21 0 0 9.136 2.836 15.36 5.908 4.737 2.347 16.606 5.819 22.002 7.35.169-7.35.442-13.894.876-18.466 1.014-10.545 3.153-28.987 4.906-43.738l-18.287 10.562Z" clip-rule="evenodd"/><path fill="#fff" fill-rule="evenodd" d="m56.26 106.517-8.698-.919.748-2.327 8.698.919-.748 2.327Z" clip-rule="evenodd"/><path fill="#58BAD3" fill-rule="evenodd" d="M18.901 123.792c-.223 1.272-.44 2.555-.65 3.833-.17 1.007-.33 2.014-.488 3.015-.1.642-.199 1.284-.293 1.92-.193 1.248-.37 2.49-.545 3.721l-2.956 3.55s-1.783-1.613-2.522-2.925c-.229-.407-.47-.978-.68-1.573-.476-1.301-.851-2.703-.851-2.703s1.073-6.094 1.7-7.007c.623-.912 4.599-1.654 5.168-1.766.117-.024.299-.042.51-.047.493-.03 1.161-.024 1.607-.018Z" clip-rule="evenodd"/><path fill="#0099B8" fill-rule="evenodd" d="M18.25 127.625c-.17 1.007-.328 2.014-.487 3.015-.1.642-.199 1.284-.293 1.92l-1.935.529c0-.288.962-2.278.962-2.278s.457-1.996.909-2.396c.252-.225.557-.531.844-.79Z" clip-rule="evenodd"/><path fill="#85E4E0" fill-rule="evenodd" d="M17.295 123.809c-1.607.565-4.346 1.578-4.939 2.096-.85.742-1.536 4.045-1.59 4.734-.052.648-.005 4.292 0 4.693-.474-1.301-.85-2.703-.85-2.703s1.074-6.094 1.701-7.007c.622-.913 4.598-1.654 5.167-1.766.118-.024.3-.042.51-.047Z" clip-rule="evenodd"/><path fill="#00CCB2" fill-rule="evenodd" d="M89.622 100.086c-1.53 7.667-10.334 23.253-15.402 31.784l-.006.007c-2.117 3.574-3.583 5.912-3.583 5.912s-7.314 9.603-10.093 11.994c-2.775 2.397-15.373 5.812-17.19 6.153-1.819.342-9.877-2.732-13.396-4.557-3.52-1.826-13.848-7.066-15.097-8.662-1.249-1.596-1.226-3.592-1.226-3.592s.006-.818.106-1.872c.135-1.39.44-3.18 1.138-3.975 1.231-1.389 3.008-1.643 3.008-1.643s3.103-.135 4.464.401c1.36.542 11.407 3.274 13.477 3.785.317.078.745.219 1.244.384 2.545.877 6.908 2.708 7.378 2.909.03.005.041.011.041.011 3.572-1.748 3.86-3.55 3.8-4.292.153-.2.306-.401.458-.607.633-.324 1.619-.942 1.76-1.648.064-.318-.006-.566-.141-.748.345-.572.645-1.143.88-1.696 0 0 .005 0 .005-.006.03-.024.059-.053.082-.076.416-.413 1.771-1.255.933-2.262a.762.762 0 0 0-.393-.253s-.023-.053-.053-.165c-.105-.394-.275-1.519.446-3.309 0 0 3.572-10.251 7.988-19.39l.006-.012c1.97-4.074 4.11-7.937 6.176-10.563a35.037 35.037 0 0 1 7.331-6.954 37.111 37.111 0 0 1 2.862-1.837h.011c3.021-1.744 5.203-2.414 5.203-2.414s.85.541 2 1.577c1.56 1.402 3.677 3.722 4.956 6.849 1.009 2.443 1.507 5.387.827 8.767Z" clip-rule="evenodd"/><path fill="#00DABE" fill-rule="evenodd" d="M44.238 139.118c-.487-.123-10.416-2.714-11.449-2.861-1.061-.148-7.114-2.279-9.084-2.944-1.965-.666-4.2-.736-4.2-.736l2.305 2.69c-.123-.07-2.058-1.224-2.563-1.578-.516-.365-2.733-.624-3.707 0-.979.625-2.035 3.563-2.035 3.563.135-1.39.44-3.18 1.138-3.975 1.232-1.389 3.009-1.643 3.009-1.643s3.102-.135 4.463.401c1.36.542 11.408 3.274 13.478 3.785 2.012.501 8.258 3.133 8.645 3.298ZM73.763 87.143S62.227 101.539 59.2 109.895a7659.771 7659.771 0 0 0-6.668 18.507s-.305-.4-.716-1.031c-.105-.394-.275-1.519.446-3.309 0 0 3.572-10.252 7.987-19.39l.007-.012c1.97-4.075 4.11-7.937 6.176-10.563a35.028 35.028 0 0 1 7.331-6.954Z" clip-rule="evenodd"/><path fill="#00A48F" fill-rule="evenodd" d="m88.795 91.317-4.317 17.759-10.258 22.793-.006.007c-.281.341-9.279 11.258-13.348 15.55-4.135 4.363-12.868 5.842-16.422 6.036-3.554.194-8.622-1.778-8.622-1.778s10.516-1.52 15.056-2.585c4.54-1.067 12.862-9.976 12.862-9.976l16.234-33.591s4.48-15.292 3.865-21.063c1.56 1.402 3.677 3.721 4.956 6.848Z" clip-rule="evenodd"/><path fill="#00A48F" fill-rule="evenodd" d="M44.255 139.126s4.045-.847 5.835-3.3c1.79-2.455 1.945-4.9 1.945-4.9s.927-1.661.265-2.525c-.662-.864-6.179 2.525-6.179 2.525l-1.866 8.2Z" clip-rule="evenodd"/><path fill="#58BAD3" fill-rule="evenodd" d="M51.1 130.052c-.023.023-.053.053-.082.076 0 .007-.006.007-.006.007-.498.441-1.76 1.159-1.76 1.159s.593.112.88.536c.135.182.206.43.141.748-.14.706-1.126 1.324-1.76 1.648-.304.159-.527.248-.527.248s.053.129.07.359c.059.742-.229 2.544-3.8 4.292 0 0-.012-.006-.041-.011-.429-.183-4.083-1.719-6.657-2.656-.252-.088-.493-.177-.722-.253.024-.03.053-.053.083-.082l.222-.224c.077-.077.153-.159.24-.241l.206-.207a120.187 120.187 0 0 1 1.953-1.896c.235-.218.47-.442.704-.659.111-.106.223-.207.334-.313.141-.123.276-.253.417-.376l.68-.613c.147-.129.293-.253.44-.382.188-.159.363-.313.54-.454.017-.011.035-.029.052-.041.112-.094.217-.183.329-.264.633-.513 1.202-.914 1.63-1.131.78-.401 1.8-.825 2.839-1.166 1.63-.554 3.308-.895 4.135-.619.17.053.305.136.393.253.838 1.007-.517 1.849-.933 2.262Z" clip-rule="evenodd"/><path fill="#85E4E0" fill-rule="evenodd" d="M47.505 128.154c-1.085.53-2.381 1.213-3.25 1.849-1.372 1.007-5.078 4.787-6.697 6.454-.252-.089-.493-.177-.722-.253.024-.03.053-.053.083-.083l.222-.224c.077-.076.153-.159.24-.241l.206-.206c.428-.424.92-.907 1.455-1.419.164-.159.328-.318.498-.477.235-.218.47-.442.704-.66.111-.106.223-.206.334-.312.141-.123.276-.253.417-.377l.68-.612c.147-.13.293-.253.44-.383.182-.153.363-.306.54-.453.017-.012.035-.03.052-.041.112-.095.217-.183.329-.265.633-.513 1.202-.913 1.63-1.131.78-.4 1.8-.824 2.839-1.166Z" clip-rule="evenodd"/><path fill="#B57E65" fill-rule="evenodd" d="M64.899 75.169c-9.956 6.414-20.024 5.574-20.024 5.574.322-1.467.515-2.811.61-4.026.403-5.085-.819-7.962-.819-7.962l17.33-3.153a17.75 17.75 0 0 0 .265 3.797c.732 3.96 2.638 5.77 2.638 5.77Z" clip-rule="evenodd"/><path fill="#6F4C3C" fill-rule="evenodd" d="M62.261 69.4c-2.597 4.164-8.637 11.587-16.775 7.317.402-5.085-.82-7.962-.82-7.962l17.33-3.153a17.75 17.75 0 0 0 .265 3.797Z" clip-rule="evenodd"/><path fill="#fff" fill-rule="evenodd" d="M69 76.116S45.651 95.358 39.892 104.66c0 0 .082-19.448 2.17-26.414.006-.012.012-.017.012-.03l2.973-.841.106-.754.3-2.114s0-.006.005-.012l.088-.641v-.018l.006-.024s2.768 2.308 7.495 1.667c1.478-.2 2.962-.73 4.311-1.36.094-.042.188-.083.276-.13.176-.082.346-.17.516-.26.129-.064.258-.13.381-.2.1-.052.194-.105.293-.158.147-.083.288-.165.428-.248.118-.064.235-.136.346-.2.047-.03.094-.053.141-.083 1.725-1.041 2.868-1.984 2.868-1.984l2.293 4.31 4.1.949Z" clip-rule="evenodd"/><path fill="#D0D0D0" fill-rule="evenodd" d="M59.739 72.84c-3.12 3.603-8.569 6.742-14.586 3.78l.299-2.114s0-.006.006-.011a2.12 2.12 0 0 0 .088-.642v-.018l.006-.024s2.768 2.309 7.495 1.667c1.478-.2 2.962-.73 4.31-1.36.095-.041.183-.083.276-.13.176-.082.346-.17.517-.258.129-.066.258-.13.38-.2.1-.054.2-.107.294-.16.147-.082.288-.165.428-.248.117-.064.235-.129.346-.2.047-.029.094-.052.141-.082Z" clip-rule="evenodd"/><path fill="#B57E65" fill-rule="evenodd" d="M69.386 45.142c-.201-3.575-1.106-7.244-3.295-10.122-2.389-3.141-5.974-4.535-9.751-5.07-4.543-.643-9.821-.134-13.634 2.674-1.828 1.346-3.943 2.906-4.928 5.03-1.235 2.667-.716 6.142-.52 8.965 0 .011.006.019.007.03-.007.646-.004 1.291-.008 1.928-.017 2.644-.252 5.28-.039 7.922.36 4.456 2.171 8.551 4.86 12.065 2.236 2.924 5.48 5.812 9.353 5.755 4.103-.06 8.069-3.278 10.54-6.346 2.753-3.417 4.622-7.6 5.97-11.77 1.143-3.534 1.655-7.346 1.445-11.06Z" clip-rule="evenodd"/><path fill="#3A180F" fill-rule="evenodd" d="M53.468 55.757c-.351-.233-.754-.226-1.135-.112-.016-.655-.024-1.305-.123-1.955-.014-.097-.179-.097-.194 0a12.376 12.376 0 0 0-.116 2.27c.005.18.18.262.332.192 1.598-.731 1.853 1.752 1.05 2.636-.277.304-.624.35-1.013.378-.258.019-.303.362-.06.45.964.352 1.74-.63 1.92-1.483.169-.791.07-1.889-.661-2.376Z" clip-rule="evenodd"/><path fill="#fff" fill-rule="evenodd" d="M55.731 64.077a8.049 8.049 0 0 0-.281.449c-.458 1.654-2.469 2.542-4.102 2.469-2.098-.09-3.811-1.418-4.253-3.52a.198.198 0 0 1 .225-.245 9.414 9.414 0 0 0 4.576 1.238c1.922.017 3.176-.293 3.844-.53h.007c.024.042.024.09-.016.14Z" clip-rule="evenodd"/><path fill="#3A180F" fill-rule="evenodd" d="M59.397 48.886c-.044-.153-.194-.283-.357-.276-.149.007-.335.11-.358.276-.025.18-.07.354-.078.537-.006.17-.023.338-.037.507a9.99 9.99 0 0 0-.052 1.001c.003.224.19.437.42.427a.433.433 0 0 0 .422-.427c.008-.336.055-.667.09-1 .016-.163.03-.327.037-.491a1.732 1.732 0 0 0-.087-.554ZM61.737 44.614c-.29-.232-.683-.359-1.034-.469a5.334 5.334 0 0 0-1.281-.235c-.756-.046-1.633.03-2.217.571-.125.117.04.338.183.241.597-.401 1.37-.414 2.053-.3.366.06.734.148 1.088.26.329.105.623.273.943.393.248.094.478-.292.265-.461ZM46.855 47.764c.071-.142.242-.243.402-.206.145.035.309.17.302.338-.008.182.005.36-.02.543-.024.168-.039.337-.055.506-.03.331-.064.666-.128.992-.044.22-.267.395-.49.343a.435.435 0 0 1-.338-.498c.052-.331.065-.665.091-1 .013-.163.03-.326.052-.49.026-.188.1-.359.184-.528ZM45.32 43.133c.328-.175.738-.228 1.102-.27.434-.053.868-.051 1.302.004.752.094 1.6.332 2.077.971.102.137-.1.325-.223.203-.514-.505-1.272-.66-1.965-.675a7.97 7.97 0 0 0-1.116.056c-.342.042-.662.154-.998.214-.26.045-.418-.376-.178-.503ZM37.902 55.617c-.111-.537-.255-.955-.278-1.52-.017-.425-.213-.777-.255-1.183-.048-.455.313-.77.39-1.21.044-.256.011-.535-.041-.787-.078-.37-.235-.754-.553-.906.296-.385.462-.816.42-1.317-.044-.513-.251-1.002-.26-1.52-.01-.555.242-1.078.303-1.626.081-.722-.108-1.432-.133-2.151-.004-.097-.097-.122-.161-.087-.08-.098-.227-.142-.345-.025-.48.47-.85.755-1.048 1.422-.238.793-.398 1.627-.54 2.442-.29 1.675-.407 3.364-.203 5.056.142 1.18.423 2.356.753 3.499.206.716.515 1.928 1.369 2.118a.257.257 0 0 0 .28-.114c.404-.588.444-1.408.302-2.091ZM70.698 49.023c-.16-.432-.587-1.107-1.141-1.002-.78.146-.541 1.344-.718 1.87-.151.45-.465.76-.498 1.257-.043.65.123 1.26.026 1.916-.089.61-.235 1.169-.512 1.723-.2.406-.416.8-.462 1.259-.07.681.357 1.318.053 1.967-.137.293-.276.587-.378.895-.152.456-.21 1.012.192 1.21.04.105.144.188.267.138.666-.266.958-1.094 1.254-1.69.456-.913.768-1.755.941-2.772.204-1.193.493-2.34.785-3.511.25-1 .563-2.253.191-3.26Z" clip-rule="evenodd"/><path fill="#fff" fill-rule="evenodd" d="M65.56 61.219c.359-1.784.483-3.42.435-4.342.465-.678 2.667-3.934 3.804-6.426l-.693-.319c-.946 2.073-2.706 4.773-3.462 5.9-1.006-.37-5.624-1.704-11.516-2.55-5.626-.806-13.381-.363-15.09-.25-.597-1.03-2.013-3.645-2.703-6.414l-.74.186c.82 3.289 2.57 6.276 2.985 6.956a31.605 31.605 0 0 0-.272 4.87c-.695-2.06-1.4-4.213-1.748-5.486l-.735.203c.52 1.901 2.568 8.504 2.581 8.597.681 4.673 4.257 8.434 4.257 8.434s3.519 3.76 8.287 4.217c4.767.455 11.31-5.395 13.167-9.118.18-.36.34-.742.492-1.13l.011.006c.115-.206 2.8-5.054 3.594-6.931l.217-1.86c-.37.88-2.11 4.028-2.87 5.457Z" clip-rule="evenodd"/><path fill="#00CCB2" fill-rule="evenodd" d="M73.651 49.271c-2.023 8.438-7.824 13.065-7.824 13.065C68.15 58.333 69.57 50.284 69 47.552c-.175-.843-.322-1.655-.563-2.456v-.006c-.557-1.814-1.63-3.58-4.773-5.547-.54-.341-1.08-.641-1.626-.9-4.023-1.95-8.269-1.879-14.568-.772-7.155 1.255-9.12 3.61-10.37 8.28-.006.022-.01.046-.017.07-1.185 4.581.546 13.224.627 13.631-2.89-3.816-4.087-7.938-4.468-12.849-.17-2.155-.182-4.468-.112-6.97.223-8.203 5.22-14.698 12.938-18.119 6.053-2.685 14.135-2.703 20.628 1.543a20.865 20.865 0 0 1 4.915 4.499 15.358 15.358 0 0 1 2.21 3.783l.012.014.135.33.047.118c3.032 7.979-.364 17.07-.364 17.07Z" clip-rule="evenodd"/><path fill="#00A48F" fill-rule="evenodd" d="M73.65 49.27c-2.022 8.438-7.823 13.065-7.823 13.065C68.149 58.332 69.569 50.282 69 47.55c-.176-.842-.322-1.654-.563-2.455v-.007s2.492.736 2.868-1.188c.38-1.932-1.044-5.118-1.507-7.626-.458-2.508.223-2.815.75-4.18.534-1.367.792-2.05.323-3.039a73.332 73.332 0 0 0-1.068-2.114l4.03 4.811.134.33.047.118c3.032 7.978-.364 17.07-.364 17.07Z" clip-rule="evenodd"/><path fill="#F0F0F0" fill-rule="evenodd" d="M40.107 65.6s2.74 2.318 4.559 2.83c1.82.513 5.279-2.731 8.031-3.318 2.753-.587 8.039-.185 9.124-2.773 1.086-2.59 3.078-5.687 3.078-5.687s.198 3.208-.554 6.573c-.752 3.366-2.366 4.534-5.346 7.785-2.98 3.252-6.806 3.673-9.942 2.871-3.134-.8-7.696-4.102-8.95-8.28Z" clip-rule="evenodd"/><path fill="#00DABE" fill-rule="evenodd" d="M66.695 23.457c-.762-.17-1.748-.342-3.789-.707-3.718-.665-3.178-1.366-5.747-1.672-2.563-.307-4.768 0-8.633.99-3.86.988-2.874 1.518-3.86 3.19-.985 1.672-2.95 3.116-5.595 4.446-2.65 1.325-2.346 2.014-3.976 4.9-1.625 2.884-.945 4.027-1.097 6.989-.076 1.512-.428 3.667-.757 5.41-.17-2.155-.181-4.469-.111-6.971.223-8.202 5.22-14.697 12.938-18.118 6.053-2.685 14.135-2.703 20.627 1.543Z" clip-rule="evenodd"/><path fill="#00DABE" fill-rule="evenodd" d="M62.038 38.642c-4.023-1.95-8.27-1.878-14.569-.772-7.155 1.255-9.12 3.61-10.369 8.28l-.017.07c.187-1.212.434-2.502.733-3.397.721-2.143 2.615-4.116 4.733-5.028 2.117-.913 3.255-1.596 6.129-2.133 2.88-.53 4.316-.223 6.586.23 2.27.46 3.841 0 5.296 1.366l1.478 1.384Z" clip-rule="evenodd"/><path fill="#EDA1AB" fill-rule="evenodd" d="M256.597 135.22c-.058.441-.139.99-.238 1.639-.649 4.019-2.111 11.692-3.556 18.64-.944 4.544-1.881 8.78-2.57 11.493-.403 1.606-.492 4.876-.377 9.037.41 15.337 3.555 42.715 3.555 42.715s-14.831 3.004-23.092 2.796c-8.269-.216-41.543-5.159-41.543-5.159s1.732-7.723 3.622-17.118c2.545-12.649 5.378-28.327 4.656-32.271-.338-1.839-.813-7.415-1.273-14.638a701.251 701.251 0 0 1-.681-11.892c-.83-16.693-1.29-35.792-.19-40.734l.049-.209c.108-.432.239-.74.379-.89l.007-.008c.888-.916 3.211-2.014 5.987-3.08.008 0 .008-.007.017-.007.386-.15.788-.3 1.19-.45l.008-.008c2.628-.965 5.502-1.89 7.834-2.605 2.743-.832 4.739-1.381 4.739-1.381l16.571 1.514 3.367 1.823 11.784 6.374s.853 4.552 2.119 8.422c1.272 3.869 8.268 21.045 7.636 25.997Z" clip-rule="evenodd"/><path fill="#DB909A" fill-rule="evenodd" d="M256.359 136.86c-.648 4.018-2.111 11.691-3.555 18.639-.945 4.544-1.882 8.78-2.571 11.493-.403 1.606-.492 4.876-.377 9.037-7.071 2.247-30.244 9.537-36.576 10.769-5.329 1.031-15.471 8.338-20.883 12.465 2.546-12.648 5.379-28.326 4.657-32.271-.501-2.771-1.331-13.972-1.955-26.529l9.082-25.34s3.039 22.411 2.562 26.505a37.142 37.142 0 0 0-.155 1.955c2.135 1.207 6.027 3.304 8.039 3.753 2.866.649 23.001-2.255 23.001-2.255l-1.108 4.885 3.645-4.669s11.686-4.443 16.194-8.437Z" clip-rule="evenodd"/><path fill="#EB8991" fill-rule="evenodd" d="m246.532 116.948-7.97.095-.312-1.825 7.971-.095.311 1.825Z" clip-rule="evenodd"/><path fill="#fff" fill-rule="evenodd" d="m246.22 116.716-7.97.094-.312-1.825 7.971-.094.311 1.825Z" clip-rule="evenodd"/><path fill="#EB8991" fill-rule="evenodd" d="M260.009 165.684s-1.727 1.009-3.65-.244c-1.923-1.254-2.547-4.901-2.547-4.901l8.059-3.348s.397 1.639.283 2.607c-.113.969-1.226 4.649-2.145 5.886Z" clip-rule="evenodd"/><path fill="#FFAEB7" fill-rule="evenodd" d="M265.217 151.801c-.006.117-.012.241-.029.358-.499 6.49-4.874 13.078-5.179 13.526.106-.248.985-2.255 1.126-3.321.035-.282.059-.901.035-1.695-.058-2.409-.522-6.472-2.234-7.955a12.323 12.323 0 0 0-.487-.401c-1.895-1.478-4.915-3.062-6.111-3.674-.018-.16-.041-.365-.076-.565-.071-.395-.188-.766-.388-.736l-1.536-14.209-2.381-22.017-1.115-10.309s5.971 2.402 9.795 8.361c2.111 3.297 4.469 10.781 6.181 18.53v.006c.047.3 1.531 9.804 2.159 17.312.223 2.691.34 5.122.24 6.789Z" clip-rule="evenodd"/><path fill="#EB8991" fill-rule="evenodd" d="M258.449 152.313c-1.895-1.478-4.915-3.061-6.112-3.674a8.73 8.73 0 0 0-.076-.565c-.07-.394-.187-.766-.387-.736l-1.537-14.208v-8.592l-.592-13.112s5.302 8.861 6.305 11.399c.997 2.538 4.176 17.123 4.328 20.168.123 2.566-1.044 7.49-1.929 9.32Z" clip-rule="evenodd"/><path fill="#3E5164" fill-rule="evenodd" d="m239.159 156.588 7.477-35.567 14.886-3.056-7.477 35.568-14.886 3.055Z" clip-rule="evenodd"/><path fill="#fff" fill-rule="evenodd" d="m261.522 117.967-1.221-1.012-14.886 3.056-7.477 35.568 1.221 1.011 7.477-35.568 14.886-3.055Z" clip-rule="evenodd"/><path fill="#0099B8" fill-rule="evenodd" d="M261.17 160.67c-.187.201-.38.389-.569.554-1.964 1.749-8.398 2.585-8.398 2.585l.153-14.892-.018-.276c1.302.665 4.779 2.49 6.598 4.074 1.712 1.484 2.176 5.547 2.234 7.955Z" clip-rule="evenodd"/><path fill="#58BAD3" fill-rule="evenodd" d="M257.781 156.565v.006a9.622 9.622 0 0 1-.2.717c-.064.207-.141.418-.223.637a7.68 7.68 0 0 1-.158.4 8.122 8.122 0 0 1-.264.624c-.053.124-.112.248-.17.371-.071.153-.141.3-.212.447-.076.154-.146.301-.228.448-.082.153-.158.301-.241.448 0 .006-.005.006-.005.011-.082.153-.165.3-.253.448-.099.177-.193.336-.293.495-.03.04-.053.088-.082.129-.088.142-.176.271-.258.4-.106.153-.212.3-.306.425-.052.064-.099.123-.151.182-.048.053-.089.106-.136.153-1.337 1.466-12.949 2.579-17.078.789 0 0-1.596-.989-1.906-2.337a.841.841 0 0 1-.036-.206c-.188-1.302.669-2.757.669-2.757s-1.103-.788-.803-1.807c.023-.083.052-.171.105-.265.592-1.148 1.008-1.548 1.008-1.548l-.005-.024a2.026 2.026 0 0 1 0-.706c.088-.56.434-1.308 1.601-1.632 0 0-.03-.453.164-1.024a3.119 3.119 0 0 1 1.426-1.69s3.712 1.184 5.829.965c0 0-.704-.518-1.167-1.454a3.948 3.948 0 0 1-.317-.901s4.346.206 6.141 0c.669-.082 1.378.076 2.076.336.91.347 1.789.877 2.481 1.354h.006c.235.165.446.318.633.46.387.27.699.765.98 1.336.17.353.329.736.469 1.125.34.901.616 1.808.904 2.36.14.271.123.725 0 1.285Z" clip-rule="evenodd"/><path fill="#85E4E0" fill-rule="evenodd" d="M252.31 148.644c-1.264-.234-2.751-.076-3.276-.017-.673.083-2.463 0-3.055 0-.599 0-1.889-.316-1.889-.316s4.345.208 6.143 0c.665-.084 1.38.075 2.077.333Z" clip-rule="evenodd"/><path fill="#0099B8" fill-rule="evenodd" d="M244.937 157.863s-.904.807-1.479.916c-.583.107-7.209-.383-7.209-.383s-1.101-.79-.806-1.806c.567.25 1.833.749 2.981.791 1.537.05 3.934.041 4.698.124.755.092 1.815.358 1.815.358ZM243.006 154.992s-1.404.158-2.258.216c-.845.05-4.188-.433-4.188-.433l-.008-.025a2.138 2.138 0 0 1 0-.707c.748.166 2.579.557 3.228.624.837.083 3.226.325 3.226.325ZM240.165 152.92l-2.012-.507s-.024-.45.165-1.024l1.847 1.531ZM251.916 150.155s-3.276.774-6.339.508c0 0-.707-.516-1.166-1.456.032.008.164.017.673 0 .796-.017 2.381.865 3.334.948.953.084 3.498 0 3.498 0Z" clip-rule="evenodd"/><path fill="#85E4E0" fill-rule="evenodd" d="M249.133 150.606c-.747.108-4.303.575-5.757.4-1.198-.15-3.227-.641-4.212-.891a3.17 3.17 0 0 1 .583-.416s3.712 1.182 5.831.965c1.363.117 3.062-.017 3.555-.058Z" clip-rule="evenodd"/><path fill="#0099B8" fill-rule="evenodd" d="M257.781 155.28c-.288-.553-.564-1.46-.904-2.361-.14-.389-.299-.771-.469-1.125-.281-.571-.593-1.065-.98-1.336a23.128 23.128 0 0 0-.633-.46h-.006c-.105.018-.393.4-.469.718-.076.325-.999 2.644-.999 2.644h.002c-.334.85-.472 1.896-1.079 3.097-1.255 2.515-4.047 3.74-4.077 3.751-.891.324-1.53.501-1.53.442 0-.159-.393-4.062-.393-4.062l-1.572 2.937s-3.818 1.991-4.909 2.197c-.744.153-2.909-.283-4.182-.571 0 .064.018.141.036.205.31 1.349 1.906 2.338 1.906 2.338 4.129 1.79 15.742.677 17.078-.789.047-.047.088-.1.136-.153l.14-.176s.006 0 .012-.006c.093-.124.199-.271.305-.425.082-.129.17-.258.258-.4.029-.041.052-.088.082-.129.1-.159.194-.318.294-.495.087-.147.17-.294.252-.448 0-.005.005-.005.005-.011.036-.047.059-.1.089-.147.052-.1.105-.2.152-.3.082-.147.152-.295.228-.448.007-.012.013-.03.024-.041a12.3 12.3 0 0 0 .188-.407c.058-.124.117-.247.17-.371.099-.212.188-.417.264-.624a7.68 7.68 0 0 0 .158-.4c.082-.218.159-.43.223-.636.082-.254.146-.495.2-.719v-.005c.123-.56.14-1.013 0-1.284Z" clip-rule="evenodd"/><path fill="#FFD3D1" fill-rule="evenodd" d="M242.092 68.132c-.103-1.092-.547-2.058-1.611-2.263-.89-.171-1.939.124-2.52.918-.783.487-1.003 2.73-1.079 3.35-.081.666-.121 1.336-.195 2.003-.08.732-.414 1.665-.484 2.497-.032.377-.016.794.191 1.111.282.431.784.492 1.226.4 1.004-.21 1.929-1.007 2.605-1.808 1.371-1.626 2.074-3.993 1.867-6.209ZM231.798 82.494c-.305 1.382-.312 4.136-.246 6.65.073 2.779.139 3.462.139 3.462s-.633 4.268-6.406 4.8c-5.764.541-10.165-6.316-10.165-6.316.402-1.273.706-2.887.928-4.368.344-2.264.492-4.228.492-4.228s15.898-2.905 15.258 0Z" clip-rule="evenodd"/><path fill="#FF9BA1" fill-rule="evenodd" d="M231.798 82.494c-.304 1.382-.312 4.136-.246 6.65-1.618 1.896-3.835 3.702-6.266 3.436-3.416-.374-7.227-3.803-9.238-5.858.345-2.264.492-4.228.492-4.228s15.899-2.905 15.258 0Z" clip-rule="evenodd"/><path fill="#FAE0BD" fill-rule="evenodd" d="M239.987 57.303c.029-3.11-.472-6.29-2.392-8.755-2.008-2.579-5.141-3.99-8.282-4.504-6.767-1.103-14.166 1.245-17.812 7.424-1.223 2.07-2.079 4.505-2.484 6.985-.078-.075-.842 6.234-.967 9.291-.113 2.775.051 5.577.922 8.228 1.48 4.5 4.806 7.73 8.529 10.415 1.849 1.332 3.855 2.846 6.167 3.163 2.269.311 4.207-.803 5.864-2.27 3.96-3.503 7.784-8.012 9.483-13.133.994-2.999.925-6.073 1.07-9.187.116-2.513.521-5.18-.098-7.657Z" clip-rule="evenodd"/><path fill="#FFD3D1" fill-rule="evenodd" d="M210.863 67.475c-.095-.888-.513-2.264-1.445-2.567a.219.219 0 0 0-.123-.003 1.984 1.984 0 0 0-.956-.471c-.702-.136-1.544-.021-2.089.481-.67.616-.901 1.718-1.023 2.583a11.512 11.512 0 0 0-.025 2.944c.234 1.987 1.306 4.002 3.201 4.8.705.297 1.372.251 1.611-.576.131-.458.191-.947.29-1.413.146-.686.291-1.374.39-2.069.17-1.192.299-2.504.169-3.71Z" clip-rule="evenodd"/><path fill="#FF6969" fill-rule="evenodd" d="M227.143 80.518c-.254-.022-.419.134-.62.265a3.614 3.614 0 0 1-.619.326 4.327 4.327 0 0 1-1.415.31 4.158 4.158 0 0 1-1.42-.177 2.714 2.714 0 0 1-.64-.29c-.048-.03-.091-.067-.144-.088a1.684 1.684 0 0 0-.104-.036 1.565 1.565 0 0 1-.31-.223c-.153-.129-.412.036-.293.229.073.116.151.237.243.338.072.08.115.176.247.276.217.163.451.291.7.397.531.225 1.113.301 1.687.279a4.997 4.997 0 0 0 1.696-.363c.419-.173 1.206-.477 1.21-1.022.002-.127-.101-.211-.218-.221Z" clip-rule="evenodd"/><path fill="#FF9BA1" fill-rule="evenodd" d="M226.752 75.03c-.099-.464-.411-.744-.715-1.076-.102-.111-.115-.307-.136-.496-.038-.347-.053-.689-.117-1.032-.025-.13-.235-.13-.261 0-.058.3-.103.593-.122.9-.015.226-.022.468.052.687.118.354.463.543.628.868a.952.952 0 0 1 .107.407c.003.137-.014.232-.076.323l-.036.038-.013.01-.014.01-.032.017a.123.123 0 0 0-.026.008c-.01.003-.048.007-.056.008a.377.377 0 0 1-.181-.028.598.598 0 0 0-.386.008.285.285 0 0 0-.165.411c.084.155.183.252.36.285.118.022.238.035.358.023a.919.919 0 0 0 .566-.252c.288-.29.348-.731.265-1.119Z" clip-rule="evenodd"/><path fill="#00143B" fill-rule="evenodd" d="M230.905 66.73c-.169-.25-.66-.182-.824.036-.026.034-.054.068-.078.102-.07.096-.075.168-.088.273l-.026.224a5.34 5.34 0 0 0-.032.505c-.004.163-.006.325-.005.489 0 .08.002.163.004.245.003.115.036.226.062.34.041.177.343.311.57.293.232-.018.515-.151.543-.344.051-.36.034-.719.047-1.079a6.55 6.55 0 0 0 .005-.485c-.003-.08-.002-.161-.009-.241-.014-.14-.088-.24-.169-.359Z" clip-rule="evenodd"/><path fill="#FF9043" fill-rule="evenodd" d="M233.382 62.679c-.167-.14-.328-.292-.506-.418-.485-.34-1.14-.43-1.716-.455-1.165-.053-2.212.623-2.795 1.624-.123.213.209.412.357.226a3.002 3.002 0 0 1 2.615-1.112c.449.044.905.126 1.261.418.239.197.683.736 1.031.566.176-.086.238-.246.19-.435-.046-.182-.299-.298-.437-.414Z" clip-rule="evenodd"/><path fill="#00143B" fill-rule="evenodd" d="M217.865 66.73c.169-.25.66-.182.824.036.026.034.054.068.079.102.069.096.075.168.087.273l.026.224c.02.169.028.335.033.505.003.163.005.325.004.489 0 .08-.002.163-.004.245-.003.115-.035.226-.061.34-.042.177-.343.311-.571.293-.231-.018-.514-.151-.542-.344-.052-.36-.035-.719-.048-1.079-.005-.163-.01-.323-.004-.485.003-.08.002-.161.009-.241.013-.14.088-.24.168-.359Z" clip-rule="evenodd"/><path fill="#FF9043" fill-rule="evenodd" d="M215.388 62.679c.167-.14.328-.292.506-.418.485-.34 1.14-.43 1.716-.455 1.165-.053 2.212.623 2.795 1.624.123.213-.21.412-.357.226a3.002 3.002 0 0 0-2.616-1.112c-.448.044-.904.126-1.26.418-.24.197-.684.736-1.031.566-.176-.086-.238-.246-.19-.435.046-.182.299-.298.437-.414Z" clip-rule="evenodd"/><path fill="#FFBCC1" fill-rule="evenodd" d="M235.242 74.244c0 .46-.865.833-1.933.833s-1.934-.373-1.934-.833c0-.46.866-.832 1.934-.832s1.933.373 1.933.832ZM218.395 74.244c0 .46-.866.833-1.934.833-1.067 0-1.934-.373-1.934-.833 0-.46.867-.832 1.934-.832 1.068 0 1.934.373 1.934.832Z" clip-rule="evenodd"/><path fill="#fff" fill-rule="evenodd" d="m237.576 76.493-.714-.27c.019-.052 1.962-5.25 2.554-8.893l.752.123c-.604 3.719-2.511 8.824-2.592 9.04Z" clip-rule="evenodd"/><path fill="#fff" fill-rule="evenodd" d="M237.822 74.913s-.036.282-.111.736c-.147.96-.458 2.69-.945 4.051-1.513 4.257-7.566 10.717-10.369 11.246-2.897.548-5.9-.53-9.46-3.115-.54-.394-1.068-.83-1.566-1.295-2.798-2.55-4.868-5.77-4.868-5.77s.457-5.623 1.366-6.383c.91-.76 17.331-4.864 25.953.53Z" clip-rule="evenodd"/><path fill="#F0F0F0" fill-rule="evenodd" d="M237.71 75.648c-.146.96-.457 2.69-.943 4.051-1.514 4.257-7.567 10.717-10.37 11.246-2.897.548-5.9-.53-9.461-3.115a17.002 17.002 0 0 1-1.565-1.295l-1.461-2.355s1.507 1.319 2.552 1.437c0 0 4.193.5 5.249.276 1.056-.229 2.222-3.02 2.222-3.02s5.044-1.49 6.534-1.49c1.49 0 3.308-2.496 3.279-4.092-.03-1.596 0-3.857 0-3.857s2.404.76 3.964 2.214Z" clip-rule="evenodd"/><path fill="#fff" fill-rule="evenodd" d="M211.82 74.913c-.031-.072-3.102-7.202-4.277-8.898l.626-.437c1.219 1.758 4.224 8.735 4.351 9.031l-.7.304ZM210.505 80.764c-.029-.049-2.834-5.013-4.117-8.803l.722-.246c1.26 3.721 4.029 8.621 4.057 8.67l-.662.38Z" clip-rule="evenodd"/><path fill="#00CCB2" fill-rule="evenodd" d="M242.368 58.35c-.458 5.622-3.731 15.06-3.731 15.06.434-2.184.499-5.446-.217-8.16-.346-1.33-.879-2.526-1.653-3.404-.605-.683-1.637-1.26-2.933-1.737v-.006c-3.765-1.383-9.759-1.9-13.871-1.447-5.524.606-8.399 2.961-9.988 6.76-1.302 3.108-1.067 9.614-.944 11.876.035.494.053.8.053.8s-3.273-2.266-5.314-6.065c-.804-1.496-1.302-3.95-1.56-6.6-.399-4.098-.217-8.65.305-10.781.006-.013.011-.018.011-.03a20.173 20.173 0 0 1 3.514-8.65c3.484-4.863 12.41-9.951 23.535-6.536 1.561.483 2.951 1.09 4.171 1.796 2.51 1.442 4.346 3.298 5.672 5.31 2.627 3.994 3.207 8.598 2.95 11.813Z" clip-rule="evenodd"/><path fill="#00A48F" fill-rule="evenodd" d="M242.368 58.35c-.458 5.623-3.731 15.061-3.731 15.061.434-2.184.499-5.447-.217-8.16.276-.19.534-.466.739-.873.863-1.677 1.033-4.185 1.085-5.664.058-1.483.739-1.383.909-3.174.129-1.377-.481-5.912-1.736-9.003 2.628 3.993 3.208 8.597 2.951 11.813Z" clip-rule="evenodd"/><path fill="#00DABE" fill-rule="evenodd" d="M233.834 60.103c-3.765-1.384-9.76-1.901-13.871-1.448-5.524.606-8.399 2.961-9.988 6.76-1.302 3.108-1.067 9.615-.944 11.876-.117-1.76-.429-5.918-.74-7.042-.398-1.448.23-5.094 1.25-6.519 1.02-1.43 1.701-3.368 2.979-4.563 1.279-1.195 1.9-1.195 5.168-1.596 3.26-.4 4.885-.948 6.709-.56 1.83.39 3.191.62 4.838.96 1.649.342 4.599 2.132 4.599 2.132ZM229.576 39.43c-11.126-3.415-20.052 1.673-23.536 6.536a20.173 20.173 0 0 0-3.514 8.65c0 .012-.005.017-.011.03-.522 2.13-.704 6.682-.305 10.78.352-2.979 1.009-8.59 1.255-10.41.264-1.953 1.37-4.654 3.013-7.073-.352 1.407-.089 2.416-.089 2.416.229 1.946 2.017.546 2.924-.822.909-1.367 2.838-2.792 4.598-4.655 1.626-1.723 1.506-3.63.801-4.136a14.475 14.475 0 0 1 4.207-1.051c5.32-.53 7.261.518 9.977.494 1.15-.006 3.043.478 4.85 1.037-1.22-.706-2.61-1.313-4.17-1.796Z" clip-rule="evenodd"/><path fill="#fff" fill-rule="evenodd" d="M235.06 94.428c-.686 4.269-2.34 12.377-5.595 16.999 0 0-14.159-9.586-19.085-18.954 5.061-1.625 5.138-2.867 5.138-2.867a21.721 21.721 0 0 0 2.733 1.772c4.961 2.697 8.862 1.978 11.137 1.019 1.437-.607 2.223-1.308 2.223-1.308.381 1.443 3.056 3.097 3.408 3.315.028.018.041.024.041.024Z" clip-rule="evenodd"/><path fill="#58BAD3" fill-rule="evenodd" d="m257.435 158.179-.009.016c-.18.525-.444 1.132-.821 1.823v.008c-.739 1.34-1.896 2.963-3.72 4.743-.271.259-.558.516-.846.775-5.403 4.826-17.647 9.494-22.254 9.819-2.003.142-9.213-1.382-16.883-3.254-.057-.008-.082-.017-.082-.017-9.969-2.43-20.669-5.417-21.654-6.066-4.295-2.829-6.356-7.248-6.832-9.703-.091-.441-.148-1.015-.181-1.656-.173-2.937.107-7.331.107-7.331l16.12 2.255-.419 3.412-.214 1.772s7.153 3.52 12.876 6.907c5.716 3.387 16.366 5.626 16.366 5.626l.009-.009c3.342-3.853 9.048-4.985 9.739-5.617.689-.641 5.986-5.967 6.938-6.124.961-.167.641 1.764-.312 4.185-.911 2.314-3.646 4.186-3.868 4.336.288-.075 4.936-1.415 7.753-3.038 0 0 .008 0 .024-.008.813-.474 1.47-.965 1.815-1.456 1.585-2.255 3.334-5.792 4.286-5.792.116 0 .214.033.313.1.706.466.952 2.438.952 2.438s.961-.449 1.117 0c.057.167.033.832-.32 1.856Z" clip-rule="evenodd"/><path fill="#85E4E0" fill-rule="evenodd" d="M255.685 153.885c-.763.557-2.135 2.414-3.211 4.294-1.19 2.073-2.989 2.78-3.202 2.855.813-.475 1.47-.966 1.815-1.457 1.584-2.255 3.334-5.792 4.286-5.792.115 0 .214.034.312.1ZM245.675 155.559s-2.553 1.947-3.572 4.21c-1.018 2.264-4.131 3.113-6.709 4.161-2.496 1.015-6.167 3.237-6.397 3.37 3.343-3.853 9.049-4.984 9.739-5.617.69-.641 5.987-5.966 6.939-6.124Z" clip-rule="evenodd"/><path fill="#0099B8" fill-rule="evenodd" d="M257.427 158.195a11.983 11.983 0 0 1-.821 1.823v.008c-.74 1.34-1.897 2.963-3.72 4.744-.271.258-.559.515-.847.773-5.402 4.827-17.646 9.495-22.253 9.82-2.004.141-9.213-1.381-16.884-3.254 1.166.183 14.568 2.272 17.311 1.965 2.858-.317 16.078-5.381 19.519-7.623 5.801-3.781 7.44-7.889 7.695-8.256Z" clip-rule="evenodd"/><path fill="#FCB0BA" fill-rule="evenodd" d="M227.764 174.03c-.071.442-.147.842-.223 1.178-.182.806-.346 1.288-.346 1.288s-.798-.229-3.068-.57c-2.269-.342-31.101-6.955-34.169-9.003-.006 0-.006-.006-.011-.006-3.056-2.055-5.954-6.855-6.458-9.722-.07-.406-.147-1.242-.205-2.426-.352-7.213-.153-27.451 4.539-43.614 2.915-10.039 7.261-12.383 7.513-12.525l.012-.01c.205.07.393.14.58.228a.75.75 0 0 1 .147.053c9.325 3.992 9.149 21.657 7.484 35.318a162.15 162.15 0 0 1-1.097 7.455c-.047.282-.1.559-.152.841-.704 4.04-1.379 7.014-1.625 8.044-.035.135-.065.271-.094.4-.446 2.067-.756 3.428-.756 3.428s6.128 2.62 13.067 6.877c6.938 4.251 14.457 5.523 14.457 5.523.017.053.035.112.047.165.029.082.053.165.077.247.715 2.521.562 5.047.281 6.831Z" clip-rule="evenodd"/><path fill="#DB909A" fill-rule="evenodd" d="M205.582 169.278c2.88 1.013 15.302 3.857 16.528 4.14-1.361-.212-16.088-2.568-24.944-4.746-2.627-.642-5.05-1.196-7.22-1.755-3.055-2.055-5.953-6.854-6.458-9.722-.069-.406-.146-1.242-.205-2.425.722.895 4.628 5.764 6.411 7.754 1.971 2.197 12.862 5.688 15.888 6.754Z" clip-rule="evenodd"/><path fill="#58BAD3" fill-rule="evenodd" d="m99.99 180.441-.78 9.357-1.02 12.171-.926 11.064a1.73 1.73 0 0 1-.194.024c-.487.052-1.83.182-3.097.088-1.197-.083-3.167-1.531-4.698-3.115l-.047-.047c-.07-.064-.135-.141-.205-.224a12.529 12.529 0 0 1-1.068-1.284c-1.478-2.055-2.838-6.724-2.95-9.686-.081-2.043.094-9.763.206-14.379v-.041c.053-2.073.093-3.51.093-3.51l14.686-.418Z" clip-rule="evenodd"/><path fill="#0099B8" fill-rule="evenodd" d="m98.19 201.972-.926 11.064c-.06.012-.123.017-.194.023-1.513.13-5.225-1.131-6.24-2.874-1.056-1.819-.68-7.066-.375-9.344.298-2.278 1.437-5.776 1.741-6.913.253-.966.51-2.791.581-3.338-.088.971-.281 5.905-.281 7.443 0 1.671.833 3.568 1.213 4.027.376.454 2.042.377 2.569.377.37 0 1.338-.289 1.913-.465Z" clip-rule="evenodd"/><path fill="#85E4E0" fill-rule="evenodd" d="M89.023 209.759a12.534 12.534 0 0 1-1.067-1.284c-1.479-2.055-2.839-6.724-2.95-9.686-.082-2.043.094-9.762.204-14.379.03.724.417 10.263.417 11.412 0 1.201.798 6.895 1.08 8.096.27 1.119 1.302 4.563 2.316 5.841Z" clip-rule="evenodd"/><path fill="#0099B8" fill-rule="evenodd" d="m99.99 180.441-.78 9.357c-.54-2.096-1.185-4.834-1.606-5.388-.68-.895-12.3-3.551-12.3-3.551l14.686-.418Z" clip-rule="evenodd"/><path fill="#00CCB2" fill-rule="evenodd" d="m99.99 181.314-9.366-.289-5.32-.165-.299-3.044 8.51.129 6.247.101.228 3.268Z" clip-rule="evenodd"/><path fill="#00A48F" fill-rule="evenodd" d="m99.99 181.314-9.366-.289 2.892-3.08 6.246.101.228 3.268Z" clip-rule="evenodd"/><path fill="#fff" fill-rule="evenodd" d="M103.392 114c-.352 5.264-.769 12.101-1.19 19.343-.018.395-.042.783-.065 1.178-1.179 20.415-2.375 43.526-2.375 43.526l-6.247-.1-8.51-.13s-2.727-5.694-2.727-10.257c0-4.493 1.103-24.701 1.138-33.363v-.371c0-.253.005-.524.011-.807.27-9.168 4.845-33.951 7.707-45.004 2.95-11.4 11.806-21.88 11.806-21.88s.265 4.045.522 10.169c.405 9.88.774 25.178-.07 37.696Z" clip-rule="evenodd"/><path fill="#D0D0D0" fill-rule="evenodd" d="M103.392 114.001c-1.36 20.285-3.63 64.047-3.63 64.047l-6.246-.1 3.068-4.004s.228-23.93.228-29.63c0-5.7 1.132-22.11 2.498-38.521 1.003-12.07 3.103-24.012 4.153-29.488.405 9.88.774 25.178-.071 37.696Z" clip-rule="evenodd"/><path fill="#B4B4B4" fill-rule="evenodd" d="M102.202 133.343c-.018.395-.041.784-.064 1.178-8.306-.206-16.117-.294-18.722-.324v-.371c0-.252.006-.523.012-.806 2.616.029 10.457.117 18.774.323Z" clip-rule="evenodd"/><path fill="#58BAD3" fill-rule="evenodd" d="M181.777 199.762c-.105 2.832-1.407 7.301-2.827 9.267-.281.401-.633.814-1.02 1.225a2.247 2.247 0 0 1-.194.218c-.017.018-.035.029-.047.042-1.466 1.519-3.348 2.902-4.492 2.985-1.214.088-2.499-.035-2.962-.088a1.883 1.883 0 0 1-.188-.024l-.885-10.587-.34-4.051-1.384-16.546 14.052.4s.041 1.372.088 3.357v.041c.106 4.416.276 11.806.199 13.761Z" clip-rule="evenodd"/><path fill="#0099B8" fill-rule="evenodd" d="m169.161 202.803.886 10.586c.056.012.118.018.186.024 1.448.124 5-1.082 5.971-2.75 1.01-1.741.651-6.761.359-8.942-.286-2.18-1.375-5.527-1.667-6.614-.241-.924-.488-2.671-.555-3.195.084.93.269 5.652.269 7.122 0 1.6-.797 3.414-1.161 3.854-.36.434-1.954.36-2.458.36-.354 0-1.28-.276-1.83-.445Z" clip-rule="evenodd"/><path fill="#85E4E0" fill-rule="evenodd" d="M177.932 210.257c.387-.411.736-.828 1.021-1.228 1.415-1.967 2.717-6.435 2.824-9.269.078-1.954-.091-9.341-.197-13.758-.028.692-.399 9.82-.399 10.919 0 1.149-.763 6.598-1.032 7.747-.258 1.07-1.246 4.366-2.217 5.589Z" clip-rule="evenodd"/><path fill="#0099B8" fill-rule="evenodd" d="M176.505 183.822c-2.117.377-7.648 1.82-7.648 1.82s.376 3.115.305 5.017c-.076 1.902-.305 8.131-.305 8.131l-.035-.041-1.384-16.546 14.052.401s-2.873.836-4.985 1.218Z" clip-rule="evenodd"/><path fill="#00CCB2" fill-rule="evenodd" d="m181.948 179.411-.458 3.192s-1.63.064-3.812.123c-4.064.112-10.053.201-10.944-.2v-3.338l8.064.117 7.15.106Z" clip-rule="evenodd"/><path fill="#00A48F" fill-rule="evenodd" d="M177.678 182.726c-4.064.112-10.053.201-10.944-.2v-3.338l8.064.117 2.88 3.421Z" clip-rule="evenodd"/><path fill="#fff" fill-rule="evenodd" d="M181.948 179.413s-2.721.254-6.575.247c-2.539 0-5.577-.106-8.639-.471 0 0-2.041-49.461-.223-72.938a795.954 795.954 0 0 0 1.467-23.523c.486-10.305.574-16.593.574-16.593s4.769 2.502 9.537 9.115c4.768 6.612 8.627 34.417 9.079 56.528.012.535.017 1.071.029 1.595l.018 1.178c.287 20.514-1.138 33.734-5.267 44.862Z" clip-rule="evenodd"/><path fill="#D0D0D0" fill-rule="evenodd" d="M170.593 157.307s.355-10.162.678-22.014l11.811-1.694-11.776.415c.179-6.737.344-13.913.425-20.015.228-17.323-3.008-33.792-3.008-33.792l-.746 2.52a792.22 792.22 0 0 1-1.466 23.523c-1.818 23.477.223 72.938.223 72.938 3.062.365 6.099.471 8.639.471l-4.323-3.439-.457-18.913Z" clip-rule="evenodd"/><path fill="#B4B4B4" fill-rule="evenodd" d="M187.215 134.551a1387.17 1387.17 0 0 0-20.938-.36l.011-1.177c.112 0 10.311.088 20.909.359.006.394.011.789.018 1.178Z" clip-rule="evenodd"/><path fill="#fff" fill-rule="evenodd" d="m108.918 62.031-5.978 4.103s-1.589 43.763-2.044 54.02c-.454 10.257.455 38.52.455 38.52l-4.768 58.578 73.331 1.14s-3.179-61.085-3.179-61.997c0-.911 2.951-53.108 3.179-62.226.227-9.117-1.362-28.035-1.362-28.035l-8.476-2.431-51.158-1.672Z" clip-rule="evenodd"/><path fill="#F0F0F0" fill-rule="evenodd" d="M156.973 118.79h-12.036v-12.085h-18.155v12.085h-12.036v18.225h12.036V149.1h18.155v-12.085h12.036V118.79Z" clip-rule="evenodd"/><path fill="#D0D0D0" fill-rule="evenodd" d="M136.132 68.624a1.392 1.392 0 0 1-.514.144c.219 6.42 1.053 31.861.857 41.121-.085 3.962-.319 12.848-.592 23.139-.468 17.679-.998 37.718-.998 41.6 0 6.083-.225 45.416-.227 45.813l.586.003c.003-.397.228-39.731.228-45.816 0-3.874.529-23.908.997-41.584.273-10.292.508-19.18.592-23.142.198-9.355-.652-35.16-.863-41.31-.022.009-.042.023-.066.032Z" clip-rule="evenodd"/><path fill="#fff" fill-rule="evenodd" d="m160.077 63.703-.029.011c-.323.148-3.091 1.36-7.472 2.544a71.131 71.131 0 0 1-7.062 1.525c-.023.006-.047.006-.07.012-9.906 1.596-23.513 1.572-36.527-5.765 0 0 3.026-20.514 3.026-31.001 0-10.481 2.422-20.209 7.572-25.22C124.659.793 132.224-.574 138.582.64c2.833.542 6.328 2.144 9.478 4.393 1.701 1.207 3.296 2.609 4.639 4.14 1.759 2.002 3.073 4.215 3.595 6.512.892 3.898 1.267 11.217 1.484 18.189.035 1.136.07 2.267.1 3.374.006.318.017.636.023.948.118 4.404.2 8.308.358 10.616.457 6.53 1.062 12.46 1.818 14.892Z" clip-rule="evenodd"/><path fill="#D0D0D0" fill-rule="evenodd" d="M157.776 33.874h.002c-.217-6.973-.592-14.291-1.484-18.19-.522-2.296-1.835-4.51-3.595-6.512.639 1.195 1.32 2.49 1.889 3.627 1.588 3.192 2.269 16.976 2.269 16.976s-6.809 1.143-7.261 1.254l-.406 2.635-.696.068-.223.341.909 10.481c.909-.453 3.326-3.95 5.144-5.164 1.003-.67 2.469-1.018 3.577-1.195a887.319 887.319 0 0 0-.125-4.32Z" clip-rule="evenodd"/><path fill="#D0D0D0" fill-rule="evenodd" d="M160.077 63.702s-.011.006-.029.012c-.387.13-4.692 1.584-7.472 2.544-.645.218-1.208.412-1.619.56-.856.3-3.014.665-5.442.965-.024.006-.047.006-.071.012-3.982.494-8.674.812-9.583.388 0 0 9.759-2.508 12.029-3.762 2.27-1.255 8.404-8.774 8.516-13.22.111-4.445.111-8.202.111-8.202l-.34-5.812 1.701.06c.006.317.018.635.023.947.118 4.405.2 8.309.358 10.617.458 6.53 1.062 12.46 1.818 14.891Z" clip-rule="evenodd"/><mask id="a" width="31" height="38" x="120" y="19" maskUnits="userSpaceOnUse" style="mask-type:luminance"><path fill="#fff" fill-rule="evenodd" d="M131.387 19.577c-4.926.744-8.808 2.977-9.853 6.698-1.045 3.72-1.232 26.38-1.232 26.828 0 .893 5.394 3.297 14.669 3.125 9.113-.167 15.117-2.68 15.117-2.68s1.754-27.72-.635-31.143c-1.677-2.403-7.472-3.192-12.482-3.192-2.127 0-4.115.142-5.584.364Z" clip-rule="evenodd"/></mask><g mask="url(#a)"><path fill="#FFC6AD" fill-rule="evenodd" d="M151.146 29.059c-.394-3.077-1.32-6.162-3.759-8.226-3.075-2.6-7.461-3.189-11.328-3.452-4.146-.283-8.875-.746-12.196 2.275-1.623 1.477-3.024 3.45-4.313 5.22-1.363 1.874-2.589 3.991-2.652 6.372a.447.447 0 0 0 .129.339c-.151 2.405-.031 4.808.058 7.216.087 2.373.158 4.648.764 6.963.502 1.918 1.219 3.811 2.349 5.447 1.187 1.718 2.718 3.156 4.321 4.474a90.816 90.816 0 0 0 5.176 3.945c1.434 1.016 3.043 1.875 4.851 1.718 2.163-.187 4.311-1.653 6.097-2.791 1.96-1.25 3.833-2.663 5.523-4.265 3.136-2.972 4.42-6.922 5.069-11.112.716-4.61.503-9.504-.089-14.123Z" clip-rule="evenodd"/></g><mask id="b" width="31" height="38" x="120" y="19" maskUnits="userSpaceOnUse" style="mask-type:luminance"><path fill="#fff" fill-rule="evenodd" d="M131.387 19.577c-4.926.744-8.808 2.977-9.853 6.698-1.045 3.72-1.232 26.38-1.232 26.828 0 .893 5.394 3.297 14.669 3.125 9.113-.167 15.117-2.68 15.117-2.68s1.754-27.72-.635-31.143c-1.677-2.403-7.472-3.192-12.482-3.192-2.127 0-4.115.142-5.584.364Z" clip-rule="evenodd"/></mask><g mask="url(#b)"><path fill="#C17E67" fill-rule="evenodd" d="M135.063 42.177c-.08-.466-.007-.958-.022-1.426-.015-.503-.207-1.065-.04-1.557.063-.184-.218-.255-.287-.08-.199.516-.028 1.103-.04 1.637-.012.597-.159 1.207.018 1.794.041.133.198.207.321.131.626-.382 1.952.1 1.843.96-.049.381-.387.681-.683.887-.159.112-.329.21-.503.295-.157.077-.341.118-.458.255-.099.115-.08.343.098.375.456.081 1.058-.4 1.382-.678.386-.33.71-.802.649-1.333-.111-.99-1.379-1.578-2.278-1.26Z" clip-rule="evenodd"/></g><mask id="c" width="31" height="38" x="120" y="19" maskUnits="userSpaceOnUse" style="mask-type:luminance"><path fill="#fff" fill-rule="evenodd" d="M131.387 19.577c-4.926.744-8.808 2.977-9.853 6.698-1.045 3.72-1.232 26.38-1.232 26.828 0 .893 5.394 3.297 14.669 3.125 9.113-.167 15.117-2.68 15.117-2.68s1.754-27.72-.635-31.143c-1.677-2.403-7.472-3.192-12.482-3.192-2.127 0-4.115.142-5.584.364Z" clip-rule="evenodd"/></mask><g mask="url(#c)"><path fill="#FF6969" fill-rule="evenodd" d="M139.389 50.677c-.384.144-.722.38-1.109.523-.407.15-.836.261-1.26.352-.885.188-1.788.183-2.686.12-.738-.053-1.481-.116-2.209-.251-.747-.138-1.563-.305-2.16-.804-.169-.14-.414.097-.246.247 1.2 1.067 2.917 1.192 4.439 1.341.98.096 1.967.135 2.945-.02.817-.129 1.988-.38 2.558-1.04.165-.191.011-.575-.272-.468Z" clip-rule="evenodd"/></g><mask id="d" width="31" height="38" x="120" y="19" maskUnits="userSpaceOnUse" style="mask-type:luminance"><path fill="#fff" fill-rule="evenodd" d="M131.387 19.577c-4.926.744-8.808 2.977-9.853 6.698-1.045 3.72-1.232 26.38-1.232 26.828 0 .893 5.394 3.297 14.669 3.125 9.113-.167 15.117-2.68 15.117-2.68s1.754-27.72-.635-31.143c-1.677-2.403-7.472-3.192-12.482-3.192-2.127 0-4.115.142-5.584.364Z" clip-rule="evenodd"/></mask><g mask="url(#d)"><path fill="#00143B" fill-rule="evenodd" d="M142.319 35.479c-.003-.3-.05-.75-.449-.75-.396 0-.449.45-.438.75.008.225.018.45.029.675.011.248.03.488.07.732.039.237.041.52.232.686a.229.229 0 0 0 .315 0c.197-.172.192-.474.221-.719.028-.236.032-.461.028-.699-.003-.225-.007-.45-.008-.675Z" clip-rule="evenodd"/></g><mask id="e" width="31" height="38" x="120" y="19" maskUnits="userSpaceOnUse" style="mask-type:luminance"><path fill="#fff" fill-rule="evenodd" d="M131.387 19.577c-4.926.744-8.808 2.977-9.853 6.698-1.045 3.72-1.232 26.38-1.232 26.828 0 .893 5.394 3.297 14.669 3.125 9.113-.167 15.117-2.68 15.117-2.68s1.754-27.72-.635-31.143c-1.677-2.403-7.472-3.192-12.482-3.192-2.127 0-4.115.142-5.584.364Z" clip-rule="evenodd"/></mask><g mask="url(#e)"><path fill="#00143B" fill-rule="evenodd" d="M144.444 31.528c-.376-.205-.848-.23-1.27-.27a8.724 8.724 0 0 0-1.42-.02c-.889.062-1.835.26-2.556.816-.222.17-.034.531.225.387.735-.408 1.573-.584 2.406-.634a8.754 8.754 0 0 1 1.272.02c.407.033.82.157 1.225.142.224-.008.333-.325.118-.441Z" clip-rule="evenodd"/></g><mask id="f" width="31" height="38" x="120" y="19" maskUnits="userSpaceOnUse" style="mask-type:luminance"><path fill="#fff" fill-rule="evenodd" d="M131.387 19.577c-4.926.744-8.808 2.977-9.853 6.698-1.045 3.72-1.232 26.38-1.232 26.828 0 .893 5.394 3.297 14.669 3.125 9.113-.167 15.117-2.68 15.117-2.68s1.754-27.72-.635-31.143c-1.677-2.403-7.472-3.192-12.482-3.192-2.127 0-4.115.142-5.584.364Z" clip-rule="evenodd"/></mask><g mask="url(#f)"><path fill="#00143B" fill-rule="evenodd" d="M127.626 35.479c.002-.3.05-.75.448-.75.396 0 .449.45.438.75-.008.225-.018.45-.029.675a5.982 5.982 0 0 1-.07.732c-.038.237-.041.52-.232.686a.229.229 0 0 1-.315 0c-.197-.172-.192-.474-.221-.719-.028-.236-.032-.461-.028-.699l.009-.675Z" clip-rule="evenodd"/></g><mask id="g" width="31" height="38" x="120" y="19" maskUnits="userSpaceOnUse" style="mask-type:luminance"><path fill="#fff" fill-rule="evenodd" d="M131.387 19.577c-4.926.744-8.808 2.977-9.853 6.698-1.045 3.72-1.232 26.38-1.232 26.828 0 .893 5.394 3.297 14.669 3.125 9.113-.167 15.117-2.68 15.117-2.68s1.754-27.72-.635-31.143c-1.677-2.403-7.472-3.192-12.482-3.192-2.127 0-4.115.142-5.584.364Z" clip-rule="evenodd"/></mask><g mask="url(#g)"><path fill="#00143B" fill-rule="evenodd" d="M125.5 31.528c.376-.205.848-.23 1.27-.27a8.724 8.724 0 0 1 1.42-.02c.889.062 1.836.26 2.556.816.222.17.035.531-.224.387-.736-.408-1.574-.584-2.407-.634a8.754 8.754 0 0 0-1.272.02c-.407.033-.82.157-1.224.142-.225-.008-.333-.325-.119-.441Z" clip-rule="evenodd"/></g><mask id="h" width="31" height="38" x="120" y="19" maskUnits="userSpaceOnUse" style="mask-type:luminance"><path fill="#fff" fill-rule="evenodd" d="M131.387 19.577c-4.926.744-8.808 2.977-9.853 6.698-1.045 3.72-1.232 26.38-1.232 26.828 0 .893 5.394 3.297 14.669 3.125 9.113-.167 15.117-2.68 15.117-2.68s1.754-27.72-.635-31.143c-1.677-2.403-7.472-3.192-12.482-3.192-2.127 0-4.115.142-5.584.364Z" clip-rule="evenodd"/></mask><g mask="url(#h)"><path fill="#F5BB40" fill-rule="evenodd" d="M152.1 27.43s-12.872-3.127-20.827-2.683c-4.032.231-6.942 1.113-8.828 1.933-.682.294-1.226.582-1.648.83-.712.41-1.054.698-1.054.698s-1.568-4.014-1.342-7.03c.22-3.017 3.691-6.697 6.827-8.375 1.458-.779 5.681-.565 10.252.138 3.546.548 7.306 1.396 10.147 2.313h.005c1.366.444 2.517.9 3.333 1.344 2.192 1.2 3.02 3.633 3.28 5.889.069.582.098 1.153.105 1.689.016 1.84-.25 3.253-.25 3.253Z" clip-rule="evenodd"/></g><mask id="i" width="31" height="38" x="120" y="19" maskUnits="userSpaceOnUse" style="mask-type:luminance"><path fill="#fff" fill-rule="evenodd" d="M131.387 19.577c-4.926.744-8.808 2.977-9.853 6.698-1.045 3.72-1.232 26.38-1.232 26.828 0 .893 5.394 3.297 14.669 3.125 9.113-.167 15.117-2.68 15.117-2.68s1.754-27.72-.635-31.143c-1.677-2.403-7.472-3.192-12.482-3.192-2.127 0-4.115.142-5.584.364Z" clip-rule="evenodd"/></mask><g mask="url(#i)"><path fill="#D5A237" fill-rule="evenodd" d="m152.349 24.176-1.406.905s-3.28-1.563-5.819-2.825c-2.54-1.264-6.943-1.488-6.943-1.488s-7.538.443-10.153 1.563c-1.99.848-4.49 3.247-5.583 4.349a14.85 14.85 0 0 0-1.648.83c-1.118-.104-.828-1.829-.828-1.829l.446-6.401 4.478-5.953 10.587-.386c3.546.548 7.306 1.396 10.147 2.313h.006l6.612 7.232c.069.582.098 1.154.104 1.69Z" clip-rule="evenodd"/></g><mask id="j" width="31" height="38" x="120" y="19" maskUnits="userSpaceOnUse" style="mask-type:luminance"><path fill="#fff" fill-rule="evenodd" d="M131.387 19.577c-4.926.744-8.808 2.977-9.853 6.698-1.045 3.72-1.232 26.38-1.232 26.828 0 .893 5.394 3.297 14.669 3.125 9.113-.167 15.117-2.68 15.117-2.68s1.754-27.72-.635-31.143c-1.677-2.403-7.472-3.192-12.482-3.192-2.127 0-4.115.142-5.584.364Z" clip-rule="evenodd"/></mask><g mask="url(#j)"><path fill="#58BAD3" fill-rule="evenodd" d="M150.423 53.734c-.539 1.16-2.419 2.826-5.023 4.25-3.921 2.157-9.499 3.772-14.607 2.301-8.511-2.456-10.228-3.65-11.2-7.07-.521-1.834-.417-4.285-.214-6.166.046-.426.098-.819.15-1.17.145-1.01.29-1.667.29-1.667s.606.046 1.549.08c2.182.076 6.157.082 8.453-.755 1.898-.686 3.39-1.517 4.877-1.77.104-.018.209-.035.312-.04a.954.954 0 0 1 .18-.018 4.45 4.45 0 0 1 1.319.074c.133.03.266.064.404.11.076.017.145.04.22.07.313.109.637.265.973.461 2.909 1.713 6.421 2.382 8.585 2.232 2.164-.15 4.252-.894 4.252-.894s.821 7.071-.52 9.972Z" clip-rule="evenodd"/></g><mask id="k" width="31" height="38" x="120" y="19" maskUnits="userSpaceOnUse" style="mask-type:luminance"><path fill="#fff" fill-rule="evenodd" d="M131.387 19.577c-4.926.744-8.808 2.977-9.853 6.698-1.045 3.72-1.232 26.38-1.232 26.828 0 .893 5.394 3.297 14.669 3.125 9.113-.167 15.117-2.68 15.117-2.68s1.754-27.72-.635-31.143c-1.677-2.403-7.472-3.192-12.482-3.192-2.127 0-4.115.142-5.584.364Z" clip-rule="evenodd"/></mask><g mask="url(#k)"><path fill="#0099B8" fill-rule="evenodd" d="M150.943 43.764s-2.088.743-4.252.893c-2.164.15-5.675-.52-8.585-2.231-1.232-.727-2.32-.848-3.408-.659-1.486.254-2.979 1.085-4.877 1.771-2.296.837-6.271.831-8.452.756l-1.84 1.586a31.94 31.94 0 0 0-.15 1.17l1.261.249s5.039-.11 7.498-.78c1.874-.512 5.178-2.704 6.844-3.823h.001c.227.38.526.934.734 1.517.376 1.038.595 2.976.671 4.014.075 1.045.076 1.863.076 1.863s1.272-3.05 1.943-3.2c.671-.151 1.938-.226 2.91.15.972.368 3.06.743 3.06.743l3.136.969 1.191 3.57s-2.684 1.638-4.402 2.75c-1.718 1.12-5.375 3.052-5.375 3.052l6.474-.139c2.603-1.424 4.484-3.09 5.022-4.25 1.342-2.9.52-9.971.52-9.971Z" clip-rule="evenodd"/></g><mask id="l" width="31" height="38" x="120" y="19" maskUnits="userSpaceOnUse" style="mask-type:luminance"><path fill="#fff" fill-rule="evenodd" d="M131.387 19.577c-4.926.744-8.808 2.977-9.853 6.698-1.045 3.72-1.232 26.38-1.232 26.828 0 .893 5.394 3.297 14.669 3.125 9.113-.167 15.117-2.68 15.117-2.68s1.754-27.72-.635-31.143c-1.677-2.403-7.472-3.192-12.482-3.192-2.127 0-4.115.142-5.584.364Z" clip-rule="evenodd"/></mask><g mask="url(#l)"><path fill="#85E4E0" fill-rule="evenodd" d="M126.312 49.27c.11-.193 3.06-.445 4.18-.595 1.119-.148 3.06-1.19 2.836-.521-.224.67-1.642 1.266-1.642 1.266s-2.314.297-3.508.446c-1.195.15-2.166-.075-1.866-.595Z" clip-rule="evenodd"/></g><mask id="m" width="31" height="38" x="120" y="19" maskUnits="userSpaceOnUse" style="mask-type:luminance"><path fill="#fff" fill-rule="evenodd" d="M131.387 19.577c-4.926.744-8.808 2.977-9.853 6.698-1.045 3.72-1.232 26.38-1.232 26.828 0 .893 5.394 3.297 14.669 3.125 9.113-.167 15.117-2.68 15.117-2.68s1.754-27.72-.635-31.143c-1.677-2.403-7.472-3.192-12.482-3.192-2.127 0-4.115.142-5.584.364Z" clip-rule="evenodd"/></mask><g mask="url(#m)"><path fill="#85E4E0" fill-rule="evenodd" d="M125.789 51.28c.157-.219 2.911.223 3.732.074.822-.149 2.763-.595 1.942.075-.822.67-3.136.595-3.136.595s-3.284.298-2.538-.744Z" clip-rule="evenodd"/></g><path fill="#00CCB2" fill-rule="evenodd" d="M158.369 34.76v2.521a.946.946 0 0 1-.953.932h-5.653v-4.385h5.653c.524 0 .953.415.953.932Z" clip-rule="evenodd"/><path fill="#00A48F" fill-rule="evenodd" d="M155.028 38.213h-3.265v-4.385h2.294c.335 1.272.759 3.016.971 4.385Z" clip-rule="evenodd"/><path fill="#00CCB2" fill-rule="evenodd" d="M110.544 34.76v2.521c0 .513.429.932.953.932h5.653v-4.385h-5.653a.943.943 0 0 0-.953.932Z" clip-rule="evenodd"/><path fill="#00A48F" fill-rule="evenodd" d="M113.886 38.213h3.265v-4.385h-2.294c-.335 1.272-.759 3.016-.971 4.385Z" clip-rule="evenodd"/><path fill="#fff" fill-rule="evenodd" d="m117.225 42.22.531-12.994s6.756-1.41 11.462-1.336c4.706.074 20.571.965 21.634 1.262 1.063.297 1.215 5.94 1.215 7.277 0 1.337-.473 5.376-1.907 6.104-1.433.728-7.05.95-9.1.653-2.05-.297-5.238-2.673-6.984-2.153-1.746.52-5.693 1.93-7.819 2.525-2.125.593-8.577.445-9.032-1.337Z" clip-rule="evenodd"/><path fill="#00CCB2" fill-rule="evenodd" d="M124.462 27.336c-1.325 0-2.301.01-2.759.034-2.961.148-4.63.89-5.238 2.078-.607 1.188 0 12.698 0 12.698.228 1.931 1.67 2.525 5.39 2.525 3.72 0 7.211-.965 10.551-2.377.895-.378 1.546-.532 2.083-.532 1.467 0 2.097 1.148 4.597 2.018 1.275.443 3.098.66 4.964.66 3.133 0 6.382-.61 7.334-1.774 1.517-1.856 1.821-7.574 1.214-11.51-.441-2.857-1.442-3.249-1.957-3.249-.195 0-.32.057-.32.057-.963-.314-18.626-.628-25.859-.628Zm.002 1.727c8.125 0 23.674.32 25.39.568l.566.185.008-.003c.127.27.295.76.424 1.602.658 4.257.074 9.047-.844 10.17-.344.381-2.509 1.128-5.958 1.128-1.757 0-3.35-.204-4.373-.56-.972-.338-1.59-.714-2.188-1.078-.837-.511-1.704-1.039-3-1.039-.81 0-1.694.214-2.783.674-3.559 1.504-6.782 2.235-9.851 2.235-.602 0-2.433 0-3.258-.376-.201-.092-.315-.144-.372-.572-.255-4.863-.374-10.655-.135-11.852.316-.447 1.432-.937 3.704-1.051.283-.015.977-.031 2.669-.031h.001ZM108.419 63.234s19.736 11.881 51.314 1.634c0 0-5.009 4.753-25.657 5.643 0 0-17.307 0-25.657-7.277Z" clip-rule="evenodd"/></svg>